<svg width="95" height="22" viewBox="0 0 95 22" fill="#000000" xmlns="http://www.w3.org/2000/svg">
<path d="M27.0074 3.184V0.879999H36.1154V3.184H32.9294V6.892C32.9294 11.518 34.3874 12.922 36.2594 13.75V16.162C34.2974 15.694 32.4794 14.38 31.5614 12.868C30.6254 14.398 28.7714 15.712 26.8454 16.162V13.75C28.6994 12.94 30.1754 11.518 30.1754 6.892V3.184H27.0074ZM37.8974 0.591999H40.6334V17.206H37.8974V0.591999ZM44.3767 3.076V0.772H53.1607V3.076H50.1007V3.256C50.1007 6.1 51.3247 7.198 53.4667 7.63V9.97C51.5227 9.718 49.7587 8.872 48.8047 7.612C47.7967 8.89 45.9607 9.934 44.0527 10.168V7.828C46.1767 7.378 47.4007 6.136 47.4007 3.256V3.076H44.3767ZM57.9307 0.591999V10.276H55.1947V6.37H52.2247V4.066H55.1947V0.591999H57.9307ZM45.1147 13.318V11.014H57.9307V17.476H55.1947V13.318H45.1147ZM68.694 9.268H61.458V0.772H69.828V3.076H64.158V6.982H69.27C70.656 6.982 71.448 6.82 72.042 6.424V0.591999H74.778V4.084H77.064V6.442H74.778V9.898H72.042V8.602C71.448 9.034 70.44 9.268 68.694 9.268ZM74.778 17.386H62.322V10.618H74.778V17.386ZM72.06 15.154V12.886H65.058V15.154H72.06ZM85.9733 9.268H78.7373V0.772H87.1073V3.076H81.4373V6.982H86.5493C87.9353 6.982 88.7273 6.82 89.3213 6.424V0.591999H92.0573V4.084H94.3433V6.442H92.0573V10.06H89.3213V8.602C88.7273 9.034 87.7193 9.268 85.9733 9.268ZM79.4033 13.93C79.4033 12.886 79.8533 12.112 80.5913 11.554C81.7613 10.618 83.7233 10.258 85.9373 10.258C88.1333 10.258 90.0953 10.618 91.2653 11.554C92.0033 12.112 92.4533 12.886 92.4533 13.93C92.4533 14.974 92.0033 15.766 91.2653 16.324C90.0953 17.242 88.1333 17.602 85.9373 17.602C83.7233 17.602 81.7613 17.242 80.5913 16.324C79.8533 15.766 79.4033 14.974 79.4033 13.93ZM82.1393 13.93C82.1393 14.272 82.3013 14.542 82.6073 14.758C83.2193 15.19 84.3893 15.316 85.9373 15.316C87.4673 15.316 88.6373 15.19 89.2493 14.758C89.5553 14.542 89.7353 14.272 89.7353 13.93C89.7353 13.588 89.5553 13.318 89.2493 13.102C88.6373 12.688 87.4673 12.544 85.9373 12.544C84.3893 12.544 83.2193 12.688 82.6073 13.102C82.3013 13.318 82.1393 13.588 82.1393 13.93Z" />
<path d="M25.4414 17.8H94.5593V18.7H25.4414V17.8Z" />
<path d="M14.321 0.248776C17.8354 3.0339 19.3948 7.30834 18.2196 11.7791C17.3529 15.0775 15.126 17.3045 12.8205 18.5498C10.2064 19.9634 7.63447 20.2074 5.25603 19.6549C4.08645 19.3828 3.8172 19.2314 3.15527 18.9649C4.25754 19.6857 5.42712 20.3084 7.01462 20.687C10.0466 21.4078 13.2103 20.8749 15.7318 19.2426C18.0008 17.7757 19.8912 15.2037 20.441 12.4635C21.417 7.59723 19.0779 2.25979 14.321 0.245972V0.248776Z" />
<path d="M17.4093 9.63906C17.4093 9.63906 14.8514 8.91544 12.0719 10.8058C12.0719 10.8058 11.1828 11.3079 9.29238 13.5882C9.29238 13.5882 7.14674 16.7098 3.78384 15.2093C3.78384 15.2093 1.82331 14.4773 0.78836 12.3036C0.129242 10.9208 -0.454147 8.84532 0.507884 6.22007C0.507884 6.22007 1.10249 4.39137 2.82742 2.9946C4.17089 1.90916 6.46518 0.846158 9.26713 1.44638C9.26713 1.44638 12.2822 1.96526 14.0156 4.63538C14.0156 4.63538 10.6667 1.70722 6.23239 3.41251C6.23239 3.41251 1.09127 5.15146 1.54003 11.3191C1.54003 11.3191 1.71393 14.9232 4.49344 14.7521C4.49344 14.7521 5.83411 14.8755 7.37392 12.6205C7.37392 12.6205 8.73423 10.6404 11.2361 9.75125C11.2361 9.75125 12.8488 9.3053 13.2948 9.3053C13.2948 9.3053 11.3763 9.15945 9.34847 10.2505C9.34847 10.2505 7.8339 10.8816 6.43713 12.8477C6.43713 12.8477 5.27597 14.6624 3.74457 14.1519C3.74457 14.1519 4.5299 10.8844 7.73574 9.3053C7.73574 9.3053 12.1897 6.85114 17.4093 9.63906Z" />
</svg>
