<svg width="151" height="77" viewBox="0 0 151 77" fill="none" xmlns="http://www.w3.org/2000/svg">
<g clip-path="url(#clip0_4_1924)">
<path d="M2.68048 1.79077H137.265C144.84 1.79077 151 7.98058 151 15.6126V63.1783C151 70.8013 144.849 77.0001 137.265 77.0001H16.4157C8.84043 77.0001 2.68048 70.8103 2.68048 63.1783V1.79077Z" fill="#5C627D"/>
<path d="M0 0H134.584C142.16 0 148.32 6.18984 148.32 13.8219V60.4921C148.32 68.1152 142.168 74.3139 134.584 74.3139H13.7353C6.15995 74.3139 0 68.1241 0 60.4921V0Z" fill="white"/>
<path d="M32.6124 62.6743C48.1565 62.6743 60.7574 50.0472 60.7574 34.4708C60.7574 18.8945 48.1565 6.26733 32.6124 6.26733C17.0684 6.26733 4.46747 18.8945 4.46747 34.4708C4.46747 50.0472 17.0684 62.6743 32.6124 62.6743Z" fill="#C2EFDF"/>
<path d="M5.1146 5.37207C3.3684 5.37207 1.66354 5.53958 0 5.83271V63.1091C1.66354 63.4127 3.3684 63.5697 5.1146 63.5697C21.037 63.5697 33.9527 50.5357 33.9527 34.4657C33.9527 18.3956 21.037 5.37207 5.1146 5.37207Z" fill="#60BD9B"/>
<rect x="5.36096" y="5.37207" width="50.0355" height="58.1977" rx="10" fill="#D9D9D9"/>
</g>
<defs>
<clipPath id="clip0_4_1924">
<rect width="151" height="77" fill="white"/>
</clipPath>
</defs>
</svg>
