<svg width="207" height="42" viewBox="0 0 207 42" fill="#223322" xmlns="http://www.w3.org/2000/svg">
<path d="M15.184 10.016V5.616H0.752V1.392H19.892V9.444C19.892 24.624 14.26 34.744 0.488 38.264V33.732C10.608 30.784 15.184 22.468 15.184 10.016ZM32.608 0.687998V40.596H27.812V0.687998H32.608ZM42.1543 10.72C42.1543 7.112 43.5183 4.384 45.7183 2.624C47.5223 1.216 49.8983 0.423999 52.6263 0.423999C55.3983 0.423999 57.7743 1.216 59.5343 2.624C61.3383 4.032 62.5263 6.056 62.9223 8.652H70.1383V0.687998H74.9343V21.764H70.1383V12.744H62.9663C62.5703 15.384 61.3383 17.452 59.5343 18.816C57.7743 20.268 55.3983 21.06 52.6263 21.06C49.8983 21.06 47.5223 20.268 45.7183 18.816C43.5183 17.1 42.1543 14.372 42.1543 10.72ZM46.8183 10.72C46.8183 12.788 47.5223 14.504 48.7543 15.516C49.7223 16.44 51.0863 16.924 52.6263 16.924C54.1663 16.924 55.5303 16.44 56.5423 15.516C57.7743 14.504 58.4343 12.788 58.4343 10.72C58.4343 8.652 57.7743 7.024 56.5423 5.924C55.5303 5.044 54.1663 4.56 52.6263 4.56C51.0863 4.56 49.7223 5.044 48.7543 5.924C47.5223 7.024 46.8183 8.652 46.8183 10.72ZM70.1383 28.54V23.876H74.9343V40.992H45.1023V23.876H49.8983V28.54H70.1383ZM70.1383 32.632H49.8983V36.944H70.1383V32.632ZM90.9926 11.688V14.592H117.173V18.376H103.885V21.456H119.549V25.372H83.6006V21.456H99.1326V18.376H86.2406V1.172H116.953V5H90.9926V7.948H116.425V11.688H90.9926ZM85.4926 34.92C85.4926 32.632 86.9006 31.004 89.2326 29.948C92.0926 28.628 96.4046 28.1 101.641 28.1C106.833 28.1 111.189 28.628 114.005 29.948C116.381 31.004 117.745 32.632 117.745 34.92C117.745 37.296 116.381 38.88 114.005 39.936C111.189 41.3 106.833 41.74 101.641 41.74C96.4046 41.74 92.0926 41.3 89.2326 39.936C86.9006 38.88 85.4926 37.296 85.4926 34.92ZM90.2886 34.92C90.2886 35.668 90.7726 36.24 91.6526 36.68C93.5006 37.56 97.0206 37.912 101.641 37.912C106.261 37.912 109.737 37.56 111.585 36.68C112.465 36.24 112.993 35.668 112.993 34.92C112.993 34.216 112.465 33.644 111.585 33.248C109.737 32.324 106.261 32.016 101.641 32.016C97.0206 32.016 93.5006 32.324 91.6526 33.248C90.7726 33.644 90.2886 34.216 90.2886 34.92ZM138.907 0.951997V5.88C138.907 12.788 142.691 16.352 147.795 17.892V22.116C142.779 21.06 138.599 18.244 136.531 14.9C134.639 18.376 130.415 21.368 125.223 22.6V18.376C130.459 16.704 134.155 12.612 134.155 5.88V0.951997H138.907ZM158.355 0.687998V9.664H164.163V13.844H158.355V23.436H153.559V0.687998H158.355ZM128.391 33.028C128.391 30.608 129.535 28.76 131.339 27.396C134.199 25.372 138.687 24.536 143.879 24.536C149.027 24.536 153.559 25.372 156.375 27.396C158.179 28.76 159.323 30.608 159.323 33.028C159.323 35.492 158.179 37.34 156.375 38.704C153.559 40.728 149.027 41.52 143.879 41.52C138.687 41.52 134.199 40.728 131.339 38.704C129.535 37.34 128.391 35.492 128.391 33.028ZM133.187 33.028C133.187 34.128 133.759 35.052 134.815 35.756C136.575 36.944 139.787 37.428 143.879 37.428C147.927 37.428 151.139 36.944 152.987 35.756C153.999 35.052 154.527 34.128 154.527 33.028C154.527 31.928 153.999 31.004 152.987 30.3C151.139 29.156 147.927 28.628 143.879 28.628C139.787 28.628 136.575 29.156 134.815 30.3C133.759 31.004 133.187 31.928 133.187 33.028ZM185.149 17.408V5.616H169.793V1.392H189.901V16.704C189.901 20.312 189.549 24.668 188.933 27.352H184.225C184.797 24.668 185.149 20.752 185.149 17.408ZM174.193 34.216V16.044H178.945V34.216H187.833C191.397 34.216 194.169 33.512 195.797 32.148V0.687998H200.593V16.968H206.841V21.148H200.593V40.596H195.797V36.108C194.169 37.604 190.913 38.352 186.909 38.352H168.473V34.216H174.193Z" fill="black"/>
</svg>
