<svg width="150" height="77" viewBox="0 0 150 77" fill="none" xmlns="http://www.w3.org/2000/svg">
<g clip-path="url(#clip0_4_1940)">
<path d="M2.66272 1.79077H136.356C143.881 1.79077 150 7.98058 150 15.6126V63.1783C150 70.8013 143.89 77.0001 136.356 77.0001H16.307C8.78188 77.0001 2.66272 70.8103 2.66272 63.1783V1.79077Z" fill="#5C627D"/>
<path d="M0 0H133.693C141.218 0 147.337 6.18984 147.337 13.8219V60.4921C147.337 68.1152 141.227 74.3139 133.693 74.3139H13.6443C6.11916 74.3139 0 68.1241 0 60.4921V0Z" fill="white"/>
<path d="M32.3964 62.6743C47.8375 62.6743 60.355 50.0472 60.355 34.4708C60.355 18.8945 47.8375 6.26733 32.3964 6.26733C16.9553 6.26733 4.43787 18.8945 4.43787 34.4708C4.43787 50.0472 16.9553 62.6743 32.3964 62.6743Z" fill="#FFEBC2"/>
<path d="M5.08073 5.37207C3.34609 5.37207 1.65252 5.53958 0 5.83271V63.1091C1.65252 63.4127 3.34609 63.5697 5.08073 63.5697C20.8977 63.5697 33.7278 50.5357 33.7278 34.4657C33.7278 18.3956 20.8977 5.37207 5.08073 5.37207Z" fill="#FCB004"/>
<rect x="5.32544" y="5.37207" width="49.7041" height="58.1977" rx="10" fill="#D9D9D9"/>
</g>
<defs>
<clipPath id="clip0_4_1940">
<rect width="150" height="77" fill="white"/>
</clipPath>
</defs>
</svg>
