<svg width="154" height="198" viewBox="0 0 154 198" fill="none" xmlns="http://www.w3.org/2000/svg">
<g clip-path="url(#clip0_4_2143)">
<path d="M4 4.10352H128.09C142.39 4.10352 154 16.0225 154 30.7039V171.4C154 186.081 142.39 198 128.09 198H29.9102C15.6098 198 4 186.081 4 171.4V4.10352Z" fill="#5C627D"/>
<path d="M0 0H124C138.35 0 150 11.9518 150 26.6736V168.249C150 182.97 138.35 194.922 124 194.922H26C11.65 194.922 0 182.97 0 168.249V0Z" fill="white"/>
<path d="M67.12 132.67C98.418 132.67 123.79 106.641 123.79 74.5322C123.79 42.4234 98.418 16.394 67.12 16.394C35.822 16.394 10.45 42.4234 10.45 74.5322C10.45 106.641 35.822 132.67 67.12 132.67Z" fill="#FFDEE4"/>
<path d="M10.57 12.8032C6.96 12.8032 3.43 13.152 0 13.7778V134.076C3.43 134.701 6.96 135.05 10.57 135.05C43.5 135.05 70.2 107.679 70.2 73.9267C70.2 40.1744 43.5 12.8032 10.57 12.8032Z" fill="#FF3F5E"/>
<rect x="10" y="13.3367" width="100" height="121.057" rx="20" fill="#D9D9D9"/>
</g>
<defs>
<clipPath id="clip0_4_2143">
<rect width="154" height="198" fill="white"/>
</clipPath>
</defs>
</svg>
