<svg width="20" height="20" viewBox="0 0 20 20" fill="none" xmlns="http://www.w3.org/2000/svg">
<g clip-path="url(#clip0_187_433)">
<path d="M7.48006 17.7798V17.8158L7.51425 17.8272L12.4642 19.4772L12.5301 19.4991V19.4298V11.2798V11.1203L12.439 11.2512C12.3705 11.3498 12.3178 11.4468 12.27 11.5351C12.2607 11.5523 12.2515 11.5692 12.2425 11.5857C12.1863 11.6881 12.1342 11.7749 12.0647 11.8444L12.0501 11.8591V11.8798V18.8413L7.96006 17.5333V9.92977V9.91408L7.9511 9.90121C7.8732 9.78922 7.817 9.68186 7.76083 9.572C7.75701 9.56454 7.7532 9.55707 7.74938 9.54959C7.69712 9.44723 7.64343 9.34207 7.57194 9.23245L7.48006 9.09157V9.25977V17.7798ZM17.9561 17.8271L17.9901 17.8156V17.7798V5.36977V5.29982L17.9239 5.32246L14.8539 6.37246L14.836 6.37857L14.8266 6.39496C14.7828 6.47164 14.7615 6.55288 14.7428 6.62764C14.7417 6.63189 14.7407 6.63612 14.7396 6.64033C14.7218 6.71193 14.7056 6.77689 14.6753 6.83741L14.6214 6.94522L14.7358 6.90722L17.5901 5.95906V17.5337L13.4201 18.9204V9.62977L13.3222 9.61521C13.2887 9.7252 13.2335 9.83369 13.1755 9.94701L13.1745 9.9491C13.1177 10.0601 13.0585 10.176 13.0222 10.2952L13.0201 10.3023V10.3098V19.4298V19.4995L13.0861 19.4771L17.9561 17.8271ZM12.4261 9.30594L12.4261 9.30593L12.4253 9.30752C11.705 10.7577 10.9204 12.0502 10.5338 12.6074C10.4947 12.541 10.4495 12.4649 10.3991 12.3799C10.0161 11.7344 9.33035 10.5785 8.69478 9.3074L8.69481 9.30739L8.69392 9.30575C8.2044 8.41163 7.7378 7.48085 7.39374 6.65185C7.04876 5.82064 6.83006 5.09884 6.83006 4.61977C6.83006 4.10224 6.90011 3.59364 7.12283 3.22566L7.12442 3.22662L7.12817 3.21338C7.27481 2.69523 7.55806 2.33255 7.93494 1.96559L7.93494 1.96559L7.93541 1.96512C8.2311 1.66944 8.67435 1.36457 9.11491 1.22751L9.11513 1.22821L9.12281 1.22429C9.56305 0.999278 10.0842 0.929766 10.5301 0.929766C11.0464 0.929766 11.5674 0.999431 12.0073 1.22429L12.007 1.2249L12.0149 1.22741C12.4456 1.36446 12.889 1.66939 13.1847 1.96512C13.5524 2.33286 13.8454 2.69554 13.9919 3.21338L13.9902 3.21389L13.9973 3.22566C14.2202 3.59393 14.2901 4.10285 14.2901 4.54977V4.61977C14.2901 5.09375 14.0689 5.81544 13.7226 6.64806C13.3773 7.47838 12.9107 8.41173 12.4261 9.30594ZM11.3847 4.72512L11.3847 4.72513L11.3855 4.7259C11.6077 4.93846 11.7501 5.22606 11.7501 5.50977C11.7501 5.87509 11.6064 6.16273 11.3847 6.38441L11.3839 6.3852C11.1779 6.60063 10.8947 6.66977 10.5301 6.66977C10.237 6.66977 9.95294 6.60135 9.74619 6.3852C9.53311 6.16243 9.38006 5.87428 9.38006 5.50977C9.38006 5.22676 9.52176 4.94894 9.74501 4.72552C9.95907 4.52136 10.2471 4.36977 10.5301 4.36977C10.8757 4.36977 11.1732 4.51365 11.3847 4.72512ZM11.6854 4.43441L11.6848 4.43382C11.3756 4.1349 10.9832 3.96977 10.5301 3.96977C10.1416 3.96977 9.68552 4.12204 9.4424 4.43672C9.13505 4.7452 8.98006 5.12678 8.98006 5.50977C8.98006 5.97245 9.1349 6.35501 9.44413 6.67454L9.44406 6.6746L9.44634 6.67669C9.56575 6.78572 9.73787 6.89849 9.9283 6.98412C10.1186 7.06967 10.3307 7.12977 10.5301 7.12977C10.9869 7.12977 11.3781 6.89119 11.6787 6.68073L11.6793 6.68149L11.686 6.67454C11.9952 6.35501 12.1501 5.97245 12.1501 5.50977C12.1501 5.12582 11.9943 4.74329 11.6854 4.43441ZM10.7501 13.1998H10.8001V13.1588C10.8014 13.156 10.8033 13.1523 10.8057 13.1477C10.8128 13.1342 10.8236 13.1148 10.8381 13.0894C10.8669 13.0389 10.9094 12.9666 10.9637 12.8747C10.995 12.8218 11.0301 12.7625 11.0688 12.6973C11.1642 12.5363 11.281 12.3393 11.4135 12.1137C11.7858 11.4795 12.2824 10.6186 12.7791 9.69214C13.2757 8.76587 13.7728 7.77331 14.1459 6.87599C14.5158 5.98629 14.767 5.18296 14.77 4.62977H14.7701V4.61977V4.39977C14.7701 3.94011 14.6169 3.48229 14.4674 3.04363L14.4675 3.04358L14.4659 3.03986C14.234 2.50542 13.9408 2.04976 13.5554 1.67441C13.1791 1.28808 12.6526 0.995135 12.202 0.774846L12.2024 0.774118L12.1937 0.771655C12.1585 0.761713 12.1234 0.751714 12.0883 0.74171C11.595 0.601276 11.0979 0.459766 10.5301 0.459766C9.98159 0.459766 9.4549 0.612117 8.93535 0.771977L8.93523 0.771571L8.92929 0.774281C8.46643 0.98559 7.95054 1.28857 7.5647 1.67441C7.19056 2.04855 6.87709 2.50348 6.65455 3.03898C6.43028 3.48837 6.35006 4.01659 6.35006 4.61977C6.35006 5.17314 6.59758 5.9757 6.96431 6.86461C7.33192 7.7557 7.82247 8.74078 8.31471 9.66208C8.80703 10.5835 9.30147 11.442 9.67713 12.08C9.86497 12.399 10.0231 12.6629 10.1365 12.852L10.1401 12.858C10.1951 12.9498 10.2393 13.0235 10.2709 13.0769C10.2871 13.1042 10.2999 13.126 10.3091 13.1422L10.32 13.1617L10.3232 13.1676C10.324 13.1692 10.3243 13.1698 10.3243 13.1698L10.3374 13.1998H10.3701H10.4145L10.4828 13.3962L10.5177 13.4963L10.5728 13.4058L10.6982 13.1998H10.7501ZM2.01006 19.5098V19.579L2.07581 19.5572L7.00814 17.9198H7.01006H7.06006V17.8698V8.20977V8.1976L7.05447 8.18679C6.98048 8.04376 6.92616 7.91541 6.87117 7.78419L6.86449 7.76823C6.81172 7.64226 6.75757 7.51298 6.68478 7.3674L6.59006 7.38977V17.6039L2.49006 18.9901V7.42559L6.19614 6.16711L6.2675 6.14288L6.21743 6.08655C6.18518 6.05026 6.16787 6.00257 6.14863 5.94613C6.14783 5.94376 6.14701 5.94136 6.14619 5.93893C6.12912 5.88866 6.10827 5.82726 6.06541 5.78441L6.04386 5.76286L6.01482 5.77214L2.04482 7.04214L2.01006 7.05326V7.08977V19.5098Z" fill="#272525" stroke="black" stroke-width="0.1"/>
</g>
<defs>
<clipPath id="clip0_187_433">
<rect width="20" height="20" fill="white"/>
</clipPath>
</defs>
</svg>
