<svg width="20" height="20" viewBox="0 0 20 20" fill="none" xmlns="http://www.w3.org/2000/svg">
<g clip-path="url(#clip0_69_168)">
<path d="M10 20C4.49 20 0 15.51 0 10C0 4.49 4.49 0 10 0C15.51 0 20 4.49 20 10C20 15.51 15.51 20 10 20ZM10 0.55C4.79 0.55 0.54 4.79 0.54 10C0.54 15.21 4.78 19.46 10 19.46C15.22 19.46 19.46 15.22 19.46 10C19.46 4.78 15.21 0.55 10 0.55Z" fill="#272525"/>
<path d="M10.0002 6.76014C9.42019 6.76014 8.94019 6.29014 8.94019 5.70014C8.94019 5.11014 9.41019 4.64014 10.0002 4.64014C10.5902 4.64014 11.0602 5.11014 11.0602 5.70014C11.0602 6.29014 10.5902 6.76014 10.0002 6.76014ZM10.0002 5.18014C9.72019 5.18014 9.48019 5.41014 9.48019 5.70014C9.48019 5.99014 9.71019 6.22014 10.0002 6.22014C10.2902 6.22014 10.5202 5.99014 10.5202 5.70014C10.5202 5.41014 10.2902 5.18014 10.0002 5.18014Z" fill="#272525"/>
<path d="M10.0001 14.78C9.85006 14.78 9.73006 14.66 9.73006 14.51V8.58004H8.58006C8.43006 8.58004 8.31006 8.46004 8.31006 8.31004C8.31006 8.16004 8.43006 8.04004 8.58006 8.04004H10.0001C10.1501 8.04004 10.2701 8.16004 10.2701 8.31004V14.51C10.2701 14.67 10.1501 14.79 10.0001 14.79V14.78Z" fill="#272525"/>
<path d="M11.9001 14.7802H8.10008C7.95008 14.7802 7.83008 14.6602 7.83008 14.5102C7.83008 14.3602 7.95008 14.2402 8.10008 14.2402H11.9001C12.0501 14.2402 12.1701 14.3602 12.1701 14.5102C12.1701 14.6602 12.0501 14.7802 11.9001 14.7802Z" fill="#272525"/>
</g>
<defs>
<clipPath id="clip0_69_168">
<rect width="20" height="20" fill="white"/>
</clipPath>
</defs>
</svg>
