<svg width="20" height="20" viewBox="0 0 20 20" fill="none" xmlns="http://www.w3.org/2000/svg">
<g clip-path="url(#clip0_69_176)">
<path d="M10.38 20.0002C10.27 20.0002 10.17 19.9402 10.13 19.8402L4.91 8.69018C4.05 6.82018 4.19 4.65018 5.26 2.88018C6.32 1.16018 8.06 0.110176 10.05 0.000175781C10.27 -0.00982422 10.5 -0.00982422 10.72 0.000175781C12.71 0.100176 14.46 1.15018 15.51 2.88018C16.58 4.65018 16.71 6.81017 15.86 8.69018L10.64 19.8402C10.59 19.9402 10.5 20.0002 10.39 20.0002H10.38ZM10.38 0.550176C10.28 0.550176 10.18 0.550176 10.08 0.550176C8.28 0.640176 6.69 1.59018 5.74 3.16018C4.76 4.77018 4.64 6.75018 5.42 8.45018L10.38 19.0602L15.34 8.45018C16.12 6.75018 16 4.77018 15.02 3.16018C14.07 1.59018 12.49 0.640176 10.68 0.550176C10.58 0.550176 10.48 0.540176 10.38 0.540176V0.550176Z" fill="#272525"/>
<path d="M10.3801 9.36023C8.56007 9.36023 7.07007 7.88023 7.07007 6.05023C7.07007 4.22023 8.55007 2.74023 10.3801 2.74023C12.2101 2.74023 13.6901 4.22023 13.6901 6.05023C13.6901 7.88023 12.2101 9.36023 10.3801 9.36023ZM10.3801 3.30023C8.86007 3.30023 7.63007 4.54023 7.63007 6.05023C7.63007 7.56023 8.87007 8.80023 10.3801 8.80023C11.8901 8.80023 13.1301 7.56023 13.1301 6.05023C13.1301 4.53023 11.8901 3.30023 10.3801 3.30023Z" fill="#272525"/>
</g>
<defs>
<clipPath id="clip0_69_176">
<rect width="20" height="20" fill="white"/>
</clipPath>
</defs>
</svg>
