<svg width="20" height="20" viewBox="0 0 20 20" fill="none" xmlns="http://www.w3.org/2000/svg">
<g clip-path="url(#clip0_69_161)">
<path d="M8.43989 9.82C5.92989 9.82 3.88989 7.73 3.88989 5.16C3.88989 2.59 5.92989 0.5 8.43989 0.5C10.9499 0.5 12.9899 2.59 12.9899 5.16C12.9899 7.73 10.9499 9.82 8.43989 9.82ZM8.43989 1.02C6.21989 1.02 4.39989 2.88 4.39989 5.15C4.39989 7.42 6.20989 9.28 8.43989 9.28C10.6699 9.28 12.4799 7.42 12.4799 5.15C12.4799 2.88 10.6699 1.02 8.43989 1.02Z" fill="#272525"/>
<path d="M14.13 19.4998H2.95995C2.81995 19.4998 2.69995 19.3798 2.69995 19.2298V15.2698C2.69995 11.9698 5.31995 9.27979 8.53995 9.27979C11.76 9.27979 14.38 11.9698 14.38 15.2698V19.2298C14.38 19.3798 14.27 19.4998 14.12 19.4998H14.13ZM3.20995 18.9698H13.87V15.2798C13.87 12.2698 11.48 9.81979 8.53995 9.81979C5.59995 9.81979 3.20995 12.2698 3.20995 15.2798V18.9698Z" fill="#272525"/>
<path d="M12.5299 10.8099C11.4299 10.8099 10.3999 10.3699 9.61992 9.57988C9.51992 9.47988 9.51992 9.30988 9.61992 9.20988C9.71992 9.10988 9.87992 9.10988 9.97992 9.20988C10.6599 9.90988 11.5599 10.2899 12.5199 10.2899C14.4999 10.2899 16.1199 8.63988 16.1199 6.59988C16.1199 4.55988 14.5099 2.90988 12.5199 2.90988C12.3399 2.90988 12.1599 2.91988 11.9899 2.94988C11.8499 2.96988 11.7199 2.86988 11.6999 2.72988C11.6799 2.58988 11.7799 2.44988 11.9199 2.42988C12.1199 2.39988 12.3199 2.37988 12.5199 2.37988C14.7899 2.37988 16.6299 4.26988 16.6299 6.58988C16.6299 8.90988 14.7899 10.7999 12.5199 10.7999L12.5299 10.8099Z" fill="#272525"/>
<path d="M17.65 19.5H14.14C14 19.5 13.88 19.38 13.88 19.23C13.88 19.08 14 18.96 14.14 18.96H17.4V15.67C17.4 12.98 15.3 10.8 12.73 10.8C12.46 10.8 12.2 10.82 11.94 10.87C11.8 10.89 11.67 10.8 11.64 10.65C11.62 10.51 11.71 10.37 11.85 10.35C12.13 10.3 12.43 10.27 12.72 10.27C15.58 10.27 17.9 12.69 17.9 15.67V19.22C17.9 19.37 17.79 19.48 17.64 19.48L17.65 19.5Z" fill="#272525"/>
</g>
<defs>
<clipPath id="clip0_69_161">
<rect width="20" height="20" fill="white"/>
</clipPath>
</defs>
</svg>
