<svg width="158" height="14" viewBox="0 0 158 14" fill="none" xmlns="http://www.w3.org/2000/svg">
<path d="M8.416 9.688C8.416 10.3387 8.256 10.9307 7.936 11.464C7.616 11.9867 7.136 12.4027 6.496 12.712C5.856 13.0107 5.05067 13.16 4.08 13.16C3.632 13.16 3.216 13.1333 2.832 13.08C2.448 13.0267 2.08 12.952 1.728 12.856C1.38667 12.7493 1.05067 12.616 0.72 12.456V9.976C1.296 10.2427 1.88267 10.4667 2.48 10.648C3.088 10.8293 3.66933 10.92 4.224 10.92C4.576 10.92 4.85867 10.8773 5.072 10.792C5.296 10.696 5.456 10.5733 5.552 10.424C5.65867 10.264 5.712 10.0827 5.712 9.88C5.712 9.63467 5.62667 9.42667 5.456 9.256C5.296 9.07467 5.056 8.904 4.736 8.744C4.416 8.57333 4.02667 8.38133 3.568 8.168C3.22667 8.01867 2.89067 7.848 2.56 7.656C2.24 7.45333 1.94667 7.224 1.68 6.968C1.424 6.70133 1.216 6.38667 1.056 6.024C0.906667 5.65067 0.832 5.21333 0.832 4.712C0.832 3.99733 0.997333 3.4 1.328 2.92C1.66933 2.42933 2.144 2.056 2.752 1.8C3.36 1.544 4.07467 1.416 4.896 1.416C5.568 1.416 6.18667 1.49067 6.752 1.64C7.31733 1.78933 7.86667 1.98133 8.4 2.216L7.536 4.344C7.024 4.12 6.544 3.94933 6.096 3.832C5.65867 3.704 5.232 3.64 4.816 3.64C4.528 3.64 4.288 3.68267 4.096 3.768C3.904 3.84267 3.76 3.95467 3.664 4.104C3.568 4.24267 3.52 4.408 3.52 4.6C3.52 4.824 3.59467 5.02133 3.744 5.192C3.89333 5.352 4.128 5.51733 4.448 5.688C4.768 5.85867 5.18933 6.06667 5.712 6.312C6.27733 6.568 6.76267 6.84533 7.168 7.144C7.57333 7.44267 7.88267 7.79467 8.096 8.2C8.30933 8.59467 8.416 9.09067 8.416 9.688ZM14.9356 13L12.3756 4.376H12.3116C12.333 4.58933 12.3543 4.89867 12.3756 5.304C12.397 5.69867 12.4183 6.12533 12.4396 6.584C12.461 7.032 12.4716 7.45333 12.4716 7.848V13H10.0396V1.576H13.7196L16.2636 10.024H16.3276L18.9516 1.576H22.6156V13H20.0876V7.784C20.0876 7.42133 20.093 7.02133 20.1036 6.584C20.125 6.136 20.141 5.71467 20.1516 5.32C20.173 4.91467 20.189 4.60533 20.1996 4.392H20.1356L17.4956 13H14.9356ZM31.9773 13L31.2733 10.552H27.3213L26.6173 13H23.6413L27.5293 1.528H31.0173L34.9533 13H31.9773ZM29.9933 5.992C29.9399 5.8 29.8653 5.544 29.7693 5.224C29.6839 4.89333 29.5933 4.55733 29.4973 4.216C29.4119 3.87467 29.3426 3.58667 29.2893 3.352C29.2466 3.58667 29.1773 3.88 29.0813 4.232C28.9959 4.57333 28.9106 4.90933 28.8253 5.24C28.7399 5.56 28.6706 5.81067 28.6173 5.992L27.9453 8.28H30.6653L29.9933 5.992ZM39.4978 1.576C40.5324 1.576 41.3858 1.704 42.0578 1.96C42.7404 2.20533 43.2524 2.584 43.5938 3.096C43.9351 3.59733 44.1058 4.22667 44.1058 4.984C44.1058 5.47467 44.0151 5.912 43.8338 6.296C43.6524 6.68 43.4071 7.016 43.0978 7.304C42.7991 7.592 42.4524 7.832 42.0578 8.024L45.4018 13H42.3458L39.7698 8.712H38.6978V13H35.9778V1.576H39.4978ZM39.3858 3.72H38.6978V6.584H39.3858C39.8231 6.584 40.1858 6.536 40.4738 6.44C40.7618 6.33333 40.9751 6.168 41.1138 5.944C41.2631 5.70933 41.3378 5.42133 41.3378 5.08C41.3378 4.77067 41.2684 4.52 41.1298 4.328C40.9911 4.12533 40.7778 3.976 40.4898 3.88C40.2018 3.77333 39.8338 3.72 39.3858 3.72ZM51.0333 13H48.3133V3.832H45.3533V1.576H53.9933V3.832H51.0333V13ZM63.6689 6.456H68.3889V12.488C67.7915 12.6907 67.1409 12.856 66.4369 12.984C65.7435 13.1013 64.9862 13.16 64.1649 13.16C63.0449 13.16 62.0795 12.9413 61.2689 12.504C60.4582 12.0667 59.8342 11.4107 59.3969 10.536C58.9702 9.66133 58.7569 8.57333 58.7569 7.272C58.7569 6.07733 58.9862 5.04267 59.4449 4.168C59.9035 3.29333 60.5755 2.616 61.4609 2.136C62.3569 1.656 63.4502 1.416 64.7409 1.416C65.3915 1.416 66.0209 1.48 66.6289 1.608C67.2475 1.736 67.7915 1.90667 68.2609 2.12L67.3809 4.28C67.0075 4.088 66.5969 3.93867 66.1489 3.832C65.7009 3.72533 65.2315 3.672 64.7409 3.672C64.0475 3.672 63.4609 3.832 62.9809 4.152C62.5115 4.46133 62.1595 4.89333 61.9249 5.448C61.6902 5.992 61.5729 6.616 61.5729 7.32C61.5729 8.056 61.6742 8.69067 61.8769 9.224C62.0795 9.75733 62.3835 10.1733 62.7889 10.472C63.2049 10.76 63.7329 10.904 64.3729 10.904C64.5542 10.904 64.7302 10.8987 64.9009 10.888C65.0715 10.8667 65.2315 10.8453 65.3809 10.824C65.5302 10.8027 65.6635 10.7813 65.7809 10.76V8.648H63.6689V6.456ZM80.092 8.728C80.092 9.60267 79.916 10.376 79.564 11.048C79.212 11.7093 78.6787 12.2267 77.964 12.6C77.2493 12.9733 76.348 13.16 75.26 13.16C73.724 13.16 72.5507 12.7653 71.74 11.976C70.9293 11.1867 70.524 10.1093 70.524 8.744V1.576H73.26V8.44C73.26 9.31467 73.4307 9.93867 73.772 10.312C74.124 10.6853 74.6413 10.872 75.324 10.872C75.804 10.872 76.1933 10.7867 76.492 10.616C76.7907 10.4453 77.0093 10.1787 77.148 9.816C77.2973 9.45333 77.372 8.98933 77.372 8.424V1.576H80.092V8.728ZM87.1138 13H81.5618V11.448L82.9698 10.856V3.72L81.5618 3.128V1.576H87.1138V3.128L85.7058 3.72V10.856L87.1138 11.448V13ZM98.2351 7.112C98.2351 8.41333 97.9898 9.50133 97.4991 10.376C97.0085 11.2507 96.3045 11.9067 95.3871 12.344C94.4698 12.7813 93.3765 13 92.1071 13H88.6671V1.576H92.4271C93.6325 1.576 94.6671 1.78933 95.5311 2.216C96.4058 2.64267 97.0725 3.26667 97.5311 4.088C98.0005 4.89867 98.2351 5.90667 98.2351 7.112ZM95.4191 7.208C95.4191 6.42933 95.3071 5.78933 95.0831 5.288C94.8698 4.78667 94.5445 4.41333 94.1071 4.168C93.6805 3.92267 93.1471 3.8 92.5071 3.8H91.3871V10.76H92.2671C93.3445 10.76 94.1391 10.4667 94.6511 9.88C95.1631 9.28267 95.4191 8.392 95.4191 7.208ZM106.816 13H100.144V1.576H106.816V3.784H102.864V5.976H106.528V8.184H102.864V10.76H106.816V13ZM120.263 13L118.743 9.064H113.991L112.455 13H111.511L116.007 1.544H116.839L121.223 13H120.263ZM116.919 4.104C116.887 3.99733 116.839 3.85333 116.775 3.672C116.711 3.49067 116.647 3.29867 116.583 3.096C116.519 2.89333 116.455 2.712 116.391 2.552C116.338 2.73333 116.279 2.92 116.215 3.112C116.162 3.304 116.103 3.48533 116.039 3.656C115.986 3.82667 115.933 3.98133 115.879 4.12L114.311 8.232H118.455L116.919 4.104ZM125.71 13.16C124.568 13.16 123.688 12.7973 123.07 12.072C122.462 11.336 122.158 10.2587 122.158 8.84C122.158 7.368 122.478 6.248 123.118 5.48C123.768 4.712 124.659 4.328 125.79 4.328C126.27 4.328 126.686 4.40267 127.038 4.552C127.39 4.69067 127.688 4.88267 127.934 5.128C128.19 5.37333 128.387 5.65067 128.526 5.96H128.59C128.579 5.704 128.563 5.42667 128.542 5.128C128.531 4.81867 128.526 4.54133 128.526 4.296V0.839999H129.438V13H128.702L128.574 11.512H128.526C128.376 11.8107 128.179 12.088 127.934 12.344C127.688 12.5893 127.384 12.7867 127.022 12.936C126.659 13.0853 126.222 13.16 125.71 13.16ZM125.822 12.376C126.814 12.376 127.512 12.0773 127.918 11.48C128.334 10.8827 128.542 10.0187 128.542 8.888V8.744C128.542 7.57067 128.334 6.67467 127.918 6.056C127.512 5.42667 126.835 5.112 125.886 5.112C124.968 5.112 124.275 5.43733 123.806 6.088C123.336 6.728 123.102 7.65067 123.102 8.856C123.102 10.008 123.326 10.8827 123.774 11.48C124.222 12.0773 124.904 12.376 125.822 12.376ZM141.112 4.328C141.965 4.328 142.626 4.568 143.096 5.048C143.576 5.528 143.816 6.28533 143.816 7.32V13H142.904V7.352C142.904 6.59467 142.733 6.03467 142.392 5.672C142.05 5.29867 141.586 5.112 141 5.112C140.178 5.112 139.549 5.352 139.112 5.832C138.685 6.30133 138.472 7.032 138.472 8.024V13H137.56V7.352C137.56 6.84 137.48 6.41867 137.32 6.088C137.17 5.75733 136.952 5.512 136.664 5.352C136.386 5.192 136.045 5.112 135.64 5.112C135.106 5.112 134.653 5.224 134.28 5.448C133.906 5.672 133.618 6.008 133.416 6.456C133.224 6.904 133.128 7.47467 133.128 8.168V13H132.232V4.488H132.952L133.096 5.848H133.144C133.293 5.56 133.485 5.304 133.72 5.08C133.965 4.856 134.258 4.67467 134.6 4.536C134.941 4.39733 135.33 4.328 135.768 4.328C136.397 4.328 136.925 4.46133 137.352 4.728C137.778 4.99467 138.077 5.39467 138.248 5.928H138.312C138.557 5.416 138.92 5.02133 139.4 4.744C139.89 4.46667 140.461 4.328 141.112 4.328ZM147.409 4.488V13H146.513V4.488H147.409ZM146.961 1.336C147.164 1.336 147.318 1.4 147.425 1.528C147.532 1.64533 147.585 1.81067 147.585 2.024C147.585 2.248 147.532 2.424 147.425 2.552C147.318 2.66933 147.164 2.728 146.961 2.728C146.769 2.728 146.62 2.66933 146.513 2.552C146.406 2.424 146.353 2.248 146.353 2.024C146.353 1.81067 146.406 1.64533 146.513 1.528C146.62 1.4 146.769 1.336 146.961 1.336ZM154.04 4.328C155.01 4.328 155.752 4.57867 156.264 5.08C156.776 5.58133 157.032 6.37067 157.032 7.448V13H156.136V7.496C156.136 6.67467 155.949 6.072 155.576 5.688C155.202 5.304 154.653 5.112 153.928 5.112C153 5.112 152.301 5.384 151.832 5.928C151.362 6.472 151.128 7.28267 151.128 8.36V13H150.232V4.488H150.952L151.096 5.96H151.144C151.304 5.65067 151.517 5.37333 151.784 5.128C152.05 4.88267 152.37 4.69067 152.744 4.552C153.128 4.40267 153.56 4.328 154.04 4.328Z" fill="white"/>
</svg>
