<svg width="233" height="172" viewBox="0 0 233 172" fill="none" xmlns="http://www.w3.org/2000/svg">
<path d="M66.724 55.7813C64.0729 64.4635 55.3021 76.1875 48.5573 80.8542C46.3438 82.9896 42.3542 83.0521 43.25 81.0521C44.6094 77.8125 47.875 72.4063 50.7136 68.9375C55.6094 62.3698 61.349 56.7292 67.5781 52.026C67.4115 53.3177 67.1458 54.5833 66.724 55.7813ZM43.1302 75.4844C44.7136 71.6927 46.4896 68.4479 47.3073 67.2448C51.1406 61.4063 55.2813 56.7188 60.0938 51.7708C71.6927 41.6615 65.6146 48.1719 63.1198 50.5573C60.3021 53.2448 57.5677 56.1042 54.9271 59.1771C51.2396 63.7708 45.9896 70.0677 41.7708 79.6979C41.2448 80.9583 42.0573 78.0729 43.1302 75.4844ZM82.3594 15.6458C82.0834 15.7604 81.974 16.3281 81.7136 16.9219C81.0261 18.2188 81.3177 16.8906 80.25 12.6458C79.8698 11.1302 79.2031 8.04167 78.2761 6.94792C77.6875 5.86979 74.1198 5.99479 72.7656 4.41667C71.2604 2.32813 69.9011 1.26563 68.4427 0.875C63.0834 6.04687 59.5052 14.8906 56.8281 28.1146C62.599 29.8177 65.0521 36.4948 65.9583 38.9375C54.2552 49.6406 45.5313 61.401 43.0677 66.7448C41.4688 69.6719 39.9948 72.5729 38.4948 76.5677C37.8229 78.349 36.9844 80.9427 36.4844 83.9792C35.9167 87.3958 36.4636 90.7708 37.4636 92.0781C41.1823 95.5052 44.4844 92.9219 48.4219 91.0104C51.1406 89.3594 53.5729 88.0938 55.8229 85.5469C56.0313 85.0521 57.1771 83.7344 58.3386 82.2865C64.5729 75.9896 75.9636 63.9115 80.474 44.7292C83.0573 36.4167 83.3281 25.8073 83.3281 25.8073C84.1406 20.1771 83.1198 15.0729 82.3594 15.6458Z" fill="#F7931D"/>
<path d="M94.6301 25.0521C102.573 21.2969 110.182 18.8646 118.573 16.8281C122.75 16.0365 126.792 14.7813 133.484 14.6667C135.557 14.6354 137.724 14.9167 136.292 14.9688C121.786 15.5 105.74 20.6615 91.7916 27.4583C83.7447 31.3021 92.9114 25.7136 94.6301 25.0521ZM167.328 28.0417C163.141 22.5833 156.25 20.5365 145.495 19.4896C127.87 18.2917 104.995 23.9323 86.7447 33.1875C80.7291 36.0156 87.1562 31.474 89.427 30.3229C107.713 21.0365 131.187 14.0729 150.307 16.1563C157.26 16.8177 162.083 19.8958 161.443 19.2708C161.87 19.4948 159.838 15.75 156.922 14.0729C148.448 8.94272 125.13 5.78126 93.7968 20.3906C90.703 21.7448 86.5728 23.8854 83.328 25.8073C83.328 25.8073 74.2812 30.6302 65.9583 38.9375C65.9583 38.9375 68.0468 44.3438 67.578 52.0261C67.578 52.0261 73.5208 47.2396 80.453 43.9375C108.088 30.7761 145.896 24.625 156.344 44.0313C161.219 54.0833 151.427 70.9948 138.094 84.474C134.682 87.4219 130.099 91.6042 134.099 89.1354C142.318 84.0729 151.865 74.4948 160.708 59.0313C161.484 57.6875 161.073 59.6979 160.167 61.3854C157.182 66.9427 153.354 73.1927 147.443 79.599C146.422 80.7084 147.88 79.6927 149.557 78.0261C169.526 58.1667 174.958 37.2396 167.328 28.0417Z" fill="#024EA2"/>
<path d="M7.08331 55.7917C4.09894 64.25 1.74477 71.9792 0.515606 81.6771C-0.838561 92.3802 2.20311 94.5938 2.4479 100.604C2.72394 101.813 2.6354 102.885 2.95831 103.964C6.8854 119.286 19.0677 121.667 19.2396 122.245C24.7812 123.276 17.5208 116.281 19.8281 112.193C21.3698 108.661 13.1562 102.688 14.4166 97.5156C15.0937 93.7396 9.0104 91.3334 9.78123 79.3594C10.9219 75.0156 10.7135 66.2031 13.0208 61.3594C13.0208 61.3594 9.73436 59.0052 7.08331 55.7917Z" fill="#EF4023"/>
<path d="M57.8593 3.30732C47.5937 9.07815 46.0676 4.18232 37.5676 14.9688C37.2864 15.1875 36.1197 16.2292 34.6666 17.5521C34.6666 17.5521 33.6093 22.6823 37.5312 33.5209C44.526 28.2136 53.4374 27.2084 56.8281 28.1146C59.5051 14.8907 63.0833 6.0469 68.4427 0.875028C65.6718 0.109403 62.6302 1.77086 57.8593 3.30732Z" fill="#59AA46"/>
<path d="M34.6666 17.5521C31.4322 20.4948 26.901 24.6927 26.9114 24.8646C19.9739 33.2292 12.8749 42.2761 9.18221 49.9011C8.51033 51.7865 7.79679 53.7604 7.08325 55.7917C9.73429 59.0052 13.0208 61.3594 13.0208 61.3594C14.078 59.125 15.2343 56.9115 16.4635 54.8281C18.7812 50.6615 25.2135 45.4115 27.5103 42.8386C28.401 41.7969 29.2968 40.7813 30.203 39.9271C32.5728 37.5886 35.0312 35.4167 37.5312 33.5208C33.6093 22.6823 34.6666 17.5521 34.6666 17.5521Z" fill="#231F20"/>
<path d="M88.5781 123.599C87.7656 121.901 86.0989 121.714 84.776 120.656C83.7604 119.849 83 118.802 82.1927 117.776C81.5885 117.016 80.9687 116.271 80.2083 115.646C79.3906 114.833 77.3333 114.922 77.75 113.203C77.8177 112.911 78.5052 112.667 78.7395 112.583C79.9218 111.745 80.2031 109.87 80.3437 109.667C81.3489 108.172 82.2031 106.526 83.6302 105.375C85.1041 104.188 87.4062 103.979 88.026 101.953C88.9114 98.9792 87.3177 92.7552 83.3072 94.2292C81.7708 94.7865 80.3489 96.1146 78.8125 96.7917C77.3177 97.4479 75.7552 97.9531 74.151 98.2552C73.6145 98.3594 71.7239 98.5313 70.4947 98.5938C71.4583 97.6719 71.7968 96.1823 72.5781 94.4688C73.7447 91.9063 69.8229 89.724 68.1458 88.3542C66.4114 86.9323 64.2343 86.2552 62.7395 84.4896C61.4635 82.9896 61.0989 80.8177 59.1302 79.9583C55.4583 78.3594 54.7447 79.3854 52.6458 84.0261C51.5677 86.4063 53.5364 89.5 54.5312 91.5521C55.1927 92.9115 57.9687 95.2656 58.9375 95.1511C60.8489 94.8333 62.026 97.625 63.0989 99.599C59.3072 100 54.0104 99.9636 53.3125 100.531C53.2031 100.62 51.9114 101.917 51.4166 101.839C50.5208 101.698 48.1302 102.26 47.1718 102.161C45.1822 101.964 41.8645 99.3229 40.177 100.885C39.9427 101.286 39.3541 105.755 41.1406 107.25C42.8697 107.307 42.8229 116.172 45.5937 115.286L60.9218 113.474C62.6302 113.411 60.0937 116.87 58.9791 117.651C53.9635 120.401 53.3593 128.698 47.375 132.359C46.2604 133.047 45.1562 135.604 43.8802 136.615C42.1302 137.974 40.1145 139.948 37.9843 139.839C36.4635 139.766 36.0572 137.448 35.3593 140.458C34.7864 142.927 39.6614 146.49 41 148.802C42.0833 150.656 45.7864 150.807 47.6354 150.193C49.4218 149.583 49.7447 147.74 51.2708 146.818C55.5989 144.234 59.3541 140.609 62.4635 136.672C63.802 134.984 64.3229 132.786 65.5625 131.036C66.5937 129.589 65.901 130.214 66.8489 128.948C67.6927 127.818 72.2031 123.729 72.75 122.344C72.9375 121.859 73.1822 122.151 73.2291 122.307C74.0885 124.938 79.5677 127.974 78.8385 130.932C78.9427 134.036 84.7187 132.427 86.6458 131.948C88.8541 131.734 88.6718 126.693 88.5781 123.599Z" fill="#024EA2"/>
<path d="M170.818 90.0417C170.224 90.3021 168.708 90.9219 166.453 90.9219C164.083 90.9219 162.323 90.2552 161.156 88.9167C159.99 87.5782 159.406 85.8698 159.406 83.8021C159.406 81.7136 159.984 80.0105 161.151 78.6771C162.313 77.3438 164.281 76.599 166.766 76.599C168.24 76.599 169.234 76.8438 170.344 77.1875V79.1875C169.99 78.9532 168.062 78.5365 166.849 78.5365C165.297 78.5365 164.104 79.1771 163.401 80.1823C162.698 81.1875 162.422 82.2813 162.422 83.7552C162.422 85.3073 162.818 86.5625 163.609 87.5261C164.406 88.4844 165.583 88.9636 167.156 88.9636C168.469 88.9636 169.469 88.6198 170.818 87.948" fill="#231F20"/>
<path d="M172.786 90.5833V77.0156H175.599V82.5313H181.25V77.0156H184.057V90.5833H181.25V84.3906H175.599V90.5833" fill="#231F20"/>
<path d="M189.948 85.1719H194.167L192.052 79.75L189.948 85.1719ZM185.776 90.5833L191.052 77.0156H193.885L199.177 90.5833H196.271L194.859 86.9635H189.25L187.844 90.5833" fill="#231F20"/>
<path d="M203.583 83.1719H204.234C205.385 83.1719 206.182 82.9219 206.635 82.4115C207.083 81.9063 207.312 81.3333 207.312 80.6927C207.312 80.1406 207.13 79.6927 206.771 79.3646C206.406 79.0365 205.677 78.875 204.568 78.875H203.583V83.1719ZM200.917 90.5833V77.0156H205.99C207.026 77.0156 207.818 77.1406 208.359 77.4063C208.906 77.6667 209.333 78.0625 209.646 78.5885C209.958 79.1146 210.115 79.7135 210.115 80.3802C210.115 81.1719 209.891 81.9219 209.432 82.6302C208.974 83.3333 208.333 83.875 207.495 84.25L211.932 90.5833H208.49L205.109 85.0365H203.583V90.5833" fill="#231F20"/>
<path d="M213.693 90.5833V77.0156H217.448L220.708 86.5885L224.094 77.0156H227.359V90.5833H224.76V80.3333L221.437 89.7031H219.172L215.922 80.1979V90.5833" fill="#231F20"/>
<path d="M159.828 107.995L159.802 105.964C160.536 106.255 161.297 106.401 162.083 106.401C162.422 106.401 162.708 106.349 162.964 106.219C163.214 106.099 163.417 105.901 163.562 105.63C163.719 105.354 163.797 104.787 163.797 103.927V94.2396H166.599V103.63C166.599 104.901 166.458 105.828 166.161 106.406C165.875 106.984 165.417 107.453 164.786 107.807C164.156 108.156 163.312 108.328 162.271 108.328C161.5 108.328 160.687 108.219 159.828 107.995Z" fill="#231F20"/>
<path d="M169.536 107.807H172.339V94.2396H169.536V107.807Z" fill="#231F20"/>
<path d="M175.578 107.807V94.2396H178.078L183.844 103.51V94.2396H186.115V107.807H183.578L177.844 98.5365V107.807" fill="#231F20"/>
<path d="M187.755 107.995L187.724 105.964C188.458 106.255 189.224 106.401 190.016 106.401C190.349 106.401 190.635 106.349 190.885 106.219C191.135 106.099 191.344 105.901 191.49 105.63C191.641 105.354 191.714 104.787 191.714 103.927V94.2396H194.526V103.63C194.526 104.901 194.38 105.828 194.089 106.406C193.802 106.984 193.339 107.453 192.708 107.807C192.078 108.156 191.245 108.328 190.198 108.328C189.427 108.328 188.604 108.219 187.755 107.995Z" fill="#231F20"/>
<path d="M196.911 94.2396H199.719V102.563C199.719 104.068 199.974 105.063 200.484 105.552C200.995 106.037 201.656 106.286 202.474 106.286C203.271 106.286 203.911 106.036 204.385 105.557C204.859 105.078 205.094 104.141 205.094 102.766V94.2396H207.568V102.573C207.568 104.141 207.37 105.266 206.979 105.953C206.583 106.63 206.01 107.172 205.266 107.557C204.521 107.948 203.573 108.146 202.432 108.146C201.307 108.146 200.339 107.964 199.531 107.599C198.724 107.24 198.089 106.693 197.62 105.979C197.141 105.26 196.911 104.115 196.911 102.547" fill="#231F20"/>
<path d="M222.797 116.583C223.474 119.422 218.797 124.01 215.167 126.729C218.187 127.297 224.031 127.516 225.302 129.948C225.422 130.49 225.021 131.484 224.344 132.536C222.969 134.677 221.099 137.677 218.75 135.969C217.812 135.052 216.557 134.344 215.542 133.953C213.74 133.26 212.276 133.271 211.661 132.63C211.156 132.203 211.984 129.854 209.219 132.344C208.234 132.984 207.474 132.99 206.646 133.526C202.568 136.141 199.177 141.563 195.396 142.047C194.271 142.193 193.193 141.505 192.203 140.734C191.651 140.214 189.344 137.724 190.187 136.88C190.37 136.526 192.792 137.063 193.661 135.724C194.266 135.083 197.302 133.656 198.354 132.76C200.589 130.88 202.062 129.359 203.62 128.427C203.62 128.427 208.625 124.208 206.99 124.188C203.359 123.344 196.26 126.568 194.286 122.708C192.599 118.708 198.547 118.745 200.187 118.604C201.474 118.776 207.906 118.078 211.448 115.885C212.818 114.943 215.042 114.917 216.906 114.406C219.505 114.24 222.146 114.656 222.797 116.583Z" fill="#231F20"/>
<path d="M229.771 139.875C224.911 137.74 220 140.385 215.297 142.406C214.802 142.62 214.146 143.047 213.75 142.828C212.068 142.12 210.984 144.76 209.234 143.615C208.693 143.271 207.813 143.75 207.115 143.786C203.328 144.01 199.776 143.797 196.068 145.193C192.302 146.953 185.375 146.922 183.938 147.995C183.047 148.62 183.297 150.417 184.531 151.927C184.786 152.151 185.203 152.385 185.531 152.604C186.917 153.516 188.146 154.896 189.911 154.505C191.411 154.115 193.411 152.76 194.859 152.349C199.875 150.938 204.172 150.302 209.266 148.688C209.083 149.385 208.948 150.021 208.854 150.469C208.193 153.641 208.818 156.568 208.115 159.724C207.688 161.693 207.755 165.536 206.089 167.286C205.37 168.661 204.448 169.875 206.339 170.609C207 170.87 207.151 170.755 207.917 170.74C208.943 170.734 210.781 171.271 211.943 170.88C214.37 170.057 214.448 167.698 214.766 165.771C215.109 163.698 215.37 161.422 215.422 159.411C215.474 157.359 215.156 155.401 215.24 153.302C215.313 151.38 217.375 148.208 217.292 146.167C218.786 145.88 220.255 145.792 221.547 146.125C223.656 146.661 224.396 147.089 226.74 147.521C229.406 148.026 232.281 147.995 232.635 145.448C232.922 143.38 232.318 140.854 229.771 139.875Z" fill="#231F20"/>
<path d="M162.781 153.615C161.396 155.062 162.172 157.021 162.51 158.635C163.667 160.75 164.422 163.297 167.599 163.479C172.453 163.776 183.172 158.687 182.083 164.37C181.437 166.208 176.927 168.62 174.797 169.276C169.203 170 165.234 168.411 160.677 167.453C160.083 167.333 158.651 167.141 158.927 166.833C158.807 166.208 156.865 166.792 156.208 166.286C154.974 164.714 152.292 162.427 152.458 160.406C152.219 159.255 152.464 157.531 155.083 157.427C155.406 157.578 155.557 156.703 155.146 156.495C155.13 156.479 154.792 156.255 156.714 154.875C157.349 154.417 157.958 153.927 158.615 153.526C159.922 152.734 159.792 152.906 161.156 152.24C161.974 151.828 162.078 151.818 162.536 151.458C163.677 150.578 163.76 152.901 162.781 153.615Z" fill="#231F20"/>
<path d="M154.677 131.536C154.036 132.443 149.479 137.438 154.375 134.922C155.62 134.453 156.708 136.13 157.417 136.719C158.401 137.547 159.042 137.406 159.344 137.646C159.932 138.135 160.417 138.688 161.776 139.464C164.703 140.073 164.698 141.245 163.672 143.109C162.818 144.036 162.099 145.37 159.802 145.177C157.542 144.474 156.661 144.089 156.307 143.943C155.411 143.578 153.594 140.797 152.745 140.458C151.932 140.13 153.198 140.609 152.359 140.318C151.641 140.078 151.125 139.432 149.818 140.536C148.771 141.422 150.443 141.781 149.479 142.813C148.292 144.094 146.323 147.797 144.974 148.771C144.047 149.448 143.677 149.995 142.604 150.349C141.807 150.599 137.917 149.74 137.292 149.682C135.984 149.557 131.943 146.323 133.802 144.786C135.651 143.255 137.849 141.625 139.604 140.13C140.75 139.146 139.51 139.661 140.557 138.63C141.422 137.792 142.328 136.724 143.073 135.87C144.448 134.276 145.177 132.859 146.198 131.271C146.547 130.073 151.38 126.339 150.141 125.406C149.12 124.625 145.812 125.766 145.812 125.766C143.974 126.557 138.089 127.089 138.089 125.083C137.807 123.583 139.453 118.219 141.167 120.224C141.359 120.474 141.922 120.333 142.187 120.307C148.089 119.74 154.479 115.292 159.479 118.995L160.615 120.37C162.047 124.214 156.88 128.75 154.677 131.536Z" fill="#231F20"/>
<path d="M168.865 145.859C171.172 143.271 170.245 138.896 171.01 136.391C172.604 131.177 173.677 125.349 173.698 119.635C173.713 116.25 176.193 114.776 179.838 115.682C182.458 116.901 184.213 117.255 183.146 119.839C182.156 122.24 180.807 124.786 180.594 127.229C180.365 129.745 180.677 132.083 180.495 134.547C180.312 136.969 179.828 139.734 179.245 142.266C178.693 144.641 177.901 147.068 174.552 148.76C172.875 149.406 170.838 149.708 169.333 149.859C168.203 149.974 167.583 150.719 166.74 150.26C165.672 149.672 167.682 147.703 168.865 145.859Z" fill="#231F20"/>
<path d="M137.24 107.677C135.568 106.297 130.792 104.781 128.583 105.359C126.682 105.865 125.693 108.057 123.661 108.266C122.563 108.375 119.016 108.385 119.943 107.255C122.885 105.844 122.917 100.339 123.693 97.6875C124.193 95.974 125.151 95.7396 125.859 94.4896C126.828 92.8021 127.182 90.1302 127.854 88.3073C128.589 86.2969 128.969 85.8854 126.25 84.0365C124.245 82.6823 114.599 81.125 112.078 82.7344C110.464 83.7657 110.052 86.8802 109.443 88.5782C106.938 95.4844 104.354 100.297 100.74 107.172C99.7292 109.099 98.7552 111.042 97.8386 113.026C96.3959 116.13 94.25 119.047 93.5313 122.432C93.4115 123.021 93.2396 127.276 93.3594 130.026C93.4792 131.068 89.8229 135.411 89.5417 135.677C88.75 136.401 87.9219 136.844 87.3646 137.823C86.3594 139.651 86.4844 140.609 85.1563 142.391C83.8854 144.094 82.7396 145.724 81.7813 147.641C79.9688 151.255 77.6042 154.234 75.7917 157.839C72.6302 164.115 75.349 167.115 76.8229 169.563C78.0729 171.635 86.7865 171.214 87.4896 170.25C88.0313 169.505 88.2396 168.526 88.8334 167.802C90.3542 165.958 90.6354 164.479 91.8438 162.354C92.8542 160.583 93.1979 157.24 94.6667 155.828C96.1459 154.411 97.9115 152.328 99.5313 151.073C100.51 150.307 104.505 150.63 105.635 150.453C106.724 150.276 108.307 150.563 108.927 151.604C109.281 152.188 106.828 156.219 106.521 156.854C103.953 162.083 102.151 172.286 109.891 169.693C112.042 168.969 112.344 168.089 113.823 166.708C115.974 164.698 120.635 165.349 121.745 162.359C122.156 161.24 121.042 161.12 122.12 160.151C122.818 159.531 125.281 157.036 125.969 156.5C126.583 154.818 124.865 155.964 123.932 155.885C122.828 155.786 121.526 155.844 122.641 155.281C123.161 155.432 123.693 155.031 124.021 154.734C124.214 154.432 121.01 154.307 119.141 155.599C112.766 159.995 117.271 151.786 118.427 150.047C120.354 147.297 118.521 146.052 116.526 143.813C113.495 140.406 108.859 140.828 104.859 142.943C104.156 143.313 104.182 145.036 102.974 144.625C100.807 143.859 101.411 142.5 101.932 140.104C102.24 138.703 96.7969 137.188 96.1146 136.896C94.5469 136.25 93.0729 134.297 93.3542 133.385C93.3959 133.24 93.5313 132.49 93.7188 132.359C93.9323 131.984 99.8906 131.667 99.9948 131.667C101.76 131.667 109.797 127.427 110.469 126.182C111.979 123.385 114.182 118.484 115.823 115.76C116.266 115.089 118.349 114.635 119.083 114.458C121.214 113.938 121.932 115.849 124.047 115.776C127.208 115.661 136.266 120.323 137.49 110.885C137.714 109.167 138.26 108.516 137.24 107.677Z" fill="#024EA2"/>
</svg>
