<svg xmlns="http://www.w3.org/2000/svg" width="65" height="40">
    <path fill-rule="evenodd" fill="#1ECDC7" d="M50.593 24.772v-7.445h14.126v17.746c-2.652 2.55-7.343 4.641-12.647 4.641-10.556 0-18.817-6.63-18.817-19.48C33.255 7.587 41.771.346 51.919.346c5.559 0 9.536 2.346 12.137 4.946l-4.845 5.814c-1.835-1.683-3.824-2.958-6.986-2.958-5.609 0-9.638 4.386-9.638 11.78 0 7.547 3.366 11.933 10.403 11.933 1.377 0 2.805-.357 3.621-.969v-6.12h-6.018zm-34.169-9.23 4.742 1.887c4.691 1.887 7.496 5.049 7.496 10.403 0 6.323-5.303 11.882-14.482 11.882-4.947 0-10.25-1.836-14.177-5.457l5.151-6.272c2.702 2.295 6.221 3.876 9.23 3.876 3.365 0 4.946-1.275 4.946-3.315 0-2.193-2.091-2.907-5.354-4.284l-4.845-2.039c-3.977-1.581-7.7-4.896-7.7-10.403C1.431 5.445 7.142.346 15.2.346c4.385 0 9.026 1.683 12.34 4.997l-4.538 5.712c-2.499-1.887-4.845-2.907-7.802-2.907-2.805 0-4.539 1.122-4.539 3.162 0 2.09 2.397 2.906 5.763 4.232z"/>
</svg>
