<svg width="380" height="106" viewBox="0 0 380 106" fill="none" xmlns="http://www.w3.org/2000/svg">
<g clip-path="url(#clip0_1_1019)">
<path fill-rule="evenodd" clip-rule="evenodd" d="M252.678 27.0941L252.555 27.0261H252.624L252.678 27.0941Z" fill="#241500"/>
<path fill-rule="evenodd" clip-rule="evenodd" d="M250.549 36.5629V36.6036L250.468 36.5221C250.468 36.5221 250.536 36.5493 250.549 36.5629Z" fill="#241500"/>
<path fill-rule="evenodd" clip-rule="evenodd" d="M251.586 42.4518V42.4926L251.477 42.4382C251.477 42.4382 251.559 42.4382 251.586 42.4654V42.4518Z" fill="#241500"/>
<path fill-rule="evenodd" clip-rule="evenodd" d="M292.253 28.2011L292.308 28.1465C292.362 28.2695 292.499 28.2285 292.594 28.3241L292.785 28.2831C292.785 28.2831 292.813 28.3378 292.826 28.3378H292.908C292.949 28.4881 293.154 28.1601 293.195 28.3924C293.263 28.3104 293.304 28.4607 293.386 28.4607V28.5017C293.509 28.5974 293.659 28.5017 293.781 28.4744C293.945 28.5427 294 28.8843 294.204 28.7613C294.204 28.9663 294.436 29.0893 294.559 29.1712C294.559 29.2259 294.614 29.2395 294.641 29.2805H294.764C294.764 29.2805 294.737 29.4035 294.737 29.4582C295.01 29.4855 294.655 29.9364 294.928 30.032C294.86 30.155 294.887 30.3326 294.791 30.4692L294.887 30.5512C294.668 30.6469 294.709 30.9065 294.614 31.0841C294.778 31.1797 294.573 31.2481 294.532 31.33C294.641 31.412 294.45 31.5213 294.464 31.6306C294.628 31.8766 294.286 31.9995 294.382 32.2045V32.2865H294.355L294.327 32.5187C294.327 32.5187 294.191 32.5187 294.164 32.5871C294.204 32.7237 294.327 32.7647 294.177 32.874C294.136 32.8877 294.164 32.9423 294.164 32.956C294.245 33.0653 294.068 33.2292 294.123 33.3659C294.054 33.4069 294 33.5025 294.054 33.5708L294.095 33.5981C294.054 33.7758 293.945 33.6118 293.863 33.7484C293.986 33.7484 294 33.8987 294.054 33.9534C294.054 34.0217 293.822 34.0354 293.945 34.1583V34.2403C293.836 34.295 293.945 34.5409 293.768 34.5819C293.822 34.8005 293.618 34.9098 293.618 35.1148C293.618 35.3197 293.358 35.2787 293.386 35.4973C293.249 35.5383 293.249 35.6476 293.222 35.7433C293.263 35.9209 292.949 35.9209 293.099 36.1122C292.894 36.2215 293.181 36.3308 293.031 36.4538C293.208 36.6587 293.317 36.2898 293.468 36.4538C293.645 36.5358 293.59 36.1532 293.754 36.3718C293.863 36.2488 294.041 36.3035 294.177 36.3171C294.286 36.4265 294.45 36.3171 294.464 36.5221C294.709 36.3718 295.173 36.5494 295.419 36.3581C295.528 36.3855 295.787 36.2625 295.869 36.4674C295.979 36.4674 295.979 36.2898 296.088 36.3581C296.17 36.3855 296.211 36.4811 296.292 36.3855C296.443 36.6177 296.715 36.3308 296.866 36.5904C296.988 36.5084 297.152 36.5904 297.275 36.5358C297.425 36.6587 297.616 36.5358 297.794 36.5358V36.4811C297.794 36.4811 297.889 36.6587 297.957 36.5631C298.066 36.4674 298.203 36.6314 298.326 36.6587C298.503 36.4401 298.681 36.6997 298.872 36.6861C298.967 36.6314 299.104 36.8227 299.185 36.6861C299.39 36.7407 299.649 36.5631 299.759 36.8364C299.95 36.9047 300.304 36.809 300.427 37.0413C300.536 37.0823 300.728 36.932 300.796 37.1096H300.905C300.837 37.2189 301.028 37.3282 301.082 37.3965C301.219 37.3556 301.164 37.5742 301.314 37.5059C301.232 37.7381 301.628 37.8474 301.478 38.1207C301.41 38.271 301.655 38.6262 301.342 38.6399C301.423 38.8722 301.069 38.8722 301.11 39.0908C300.987 39.0908 300.864 39.2548 300.741 39.2001C300.741 39.2548 300.646 39.3094 300.577 39.3094H300.427C300.427 39.3094 300.4 39.2684 300.386 39.2548C300.332 39.3504 300.154 39.2821 300.168 39.4187C300.045 39.3641 299.922 39.4187 299.813 39.446C299.786 39.3641 299.704 39.3641 299.649 39.3367C299.581 39.4187 299.54 39.4187 299.472 39.3641C299.39 39.3367 299.349 39.4734 299.281 39.487C299.322 39.2821 299.076 39.3641 299.022 39.3641C298.926 39.3914 298.79 39.2411 298.681 39.3367C298.612 39.1045 298.421 39.2957 298.312 39.2548C298.312 39.2684 298.285 39.2821 298.257 39.2821L298.176 39.2001C298.176 39.2001 298.094 39.2274 298.053 39.2274C298.08 39.1864 298.012 39.1591 297.998 39.1455C297.903 39.2001 297.862 39.2274 297.766 39.1728L297.739 39.1455C297.643 39.1728 297.548 39.3777 297.452 39.2274C297.166 39.3914 296.893 38.8995 296.593 39.2001C296.456 39.2274 296.251 39.2411 296.142 39.4051C296.115 39.5963 296.183 39.692 296.17 39.9243C296.211 39.9653 296.292 39.9653 296.306 40.0336L296.251 40.0882C296.388 40.1429 296.333 40.3205 296.429 40.3751C296.347 40.5118 296.388 40.6211 296.197 40.7031C296.115 40.8124 296.074 40.9217 295.938 40.8944C295.91 41.0583 295.678 41.0993 295.733 41.2769C295.678 41.4819 295.392 41.4409 295.528 41.6732C295.364 41.5912 295.433 41.9054 295.324 41.8781C295.119 42.0147 295.269 42.2197 295.078 42.329C295.105 42.4656 295.078 42.5749 295.037 42.7389H294.887C295.078 43.0258 294.546 42.9985 294.723 43.2444C294.491 43.3538 294.6 43.504 294.409 43.668C294.409 43.8183 294.232 43.9139 294.286 44.0369C294.136 44.0779 294.218 44.2282 294.164 44.2965C294.095 44.5561 293.7 44.5288 293.768 44.8431C293.495 44.9524 293.604 45.3486 293.331 45.4169C293.29 45.4579 293.317 45.5399 293.304 45.6082C293.195 45.5809 293.222 45.7175 293.14 45.7585C293.167 45.8268 293.113 45.8951 293.058 45.8951C293.045 46.1001 292.84 46.2094 292.826 46.3187C292.731 46.4827 292.581 46.6466 292.649 46.8106C292.785 46.9335 292.608 47.1112 292.649 47.3025C292.581 47.3434 292.594 47.4118 292.594 47.4664C292.471 47.5347 292.403 47.6714 292.253 47.7533C292.226 47.7124 292.198 47.726 292.158 47.726C292.021 47.7943 292.117 48.0403 291.912 47.9993C291.734 47.9856 291.571 47.7397 291.339 47.726C291.148 47.4527 290.793 47.2478 290.875 46.9199C290.929 46.8926 290.929 46.8242 290.97 46.7832L290.847 46.6603L290.82 46.7013C290.766 46.6056 290.643 46.4963 290.725 46.3733C290.779 46.4007 290.807 46.346 290.834 46.3187C290.779 46.1274 290.834 46.0318 290.902 45.8678V45.3759L291.011 45.4442C291.093 45.3896 291.011 45.3486 290.998 45.2939H290.929V45.2393L290.998 45.2939C290.998 45.2939 291.011 45.1983 291.011 45.1436C290.793 45.048 291.066 44.925 291.011 44.8021C291.011 44.7884 291.12 44.7337 291.052 44.6928C291.107 44.6381 291.189 44.5561 291.161 44.4332L291.134 44.4058L291.052 44.5151C291.134 43.9549 291.23 43.3674 291.284 42.8209L291.352 42.7662C291.202 42.7116 291.38 42.6296 291.311 42.5476L291.407 42.452C291.407 42.452 291.311 42.3563 291.311 42.288C291.38 42.3153 291.448 42.2334 291.462 42.165C291.421 42.1104 291.352 42.0831 291.38 42.0011C291.543 41.9054 291.489 41.7005 291.462 41.5502C291.421 41.4546 291.612 41.3316 291.462 41.2223L291.612 41.0856C291.475 41.0583 291.352 40.867 291.175 40.8807C290.929 40.6484 290.725 40.9763 290.493 40.7167C290.37 40.7441 290.206 40.7714 290.083 40.7441C290.042 40.7031 290.083 40.6074 289.974 40.6348C289.947 40.8124 289.715 40.6757 289.701 40.8534H289.619C289.619 40.8534 289.592 40.7714 289.565 40.7304C289.346 40.785 289.128 40.785 288.964 40.9627L288.937 40.9353C288.855 41.031 288.555 40.9627 288.65 41.1676C288.596 41.2086 288.541 41.3043 288.446 41.3043L288.418 41.2769C288.268 41.3862 288.227 41.7142 287.968 41.5912C287.9 41.5365 287.832 41.5365 287.763 41.5912C287.477 41.6595 287.231 41.5092 287.108 41.2496C286.972 41.1813 287.122 41.072 287.04 40.99C286.917 41.0173 286.849 40.826 286.726 40.9217C286.603 40.7851 286.726 40.5528 286.549 40.4025C286.453 40.4981 286.399 40.3342 286.29 40.3478C286.29 40.2932 286.317 40.1155 286.18 40.0882C286.085 40.0062 286.235 39.9653 286.194 39.8833C286.262 39.5827 286.303 39.3094 286.276 39.0498C286.371 38.8722 286.344 38.4896 286.426 38.3393C286.453 38.1617 286.713 38.1207 286.672 37.9431L286.631 37.9158C286.917 37.7655 286.904 37.4102 287.19 37.2599C287.286 37.1233 287.327 36.9593 287.477 36.85C287.654 36.7407 287.982 36.8773 288.132 36.6177V36.5904C288.241 36.4674 288.446 36.3445 288.487 36.1532C288.623 36.1532 288.637 35.9209 288.828 35.9209C288.828 35.634 289.128 35.552 289.142 35.2514C289.305 35.1558 289.415 35.0328 289.51 34.9235C289.496 34.6502 289.769 34.4726 289.879 34.295C289.988 34.3223 290.029 34.2267 290.083 34.172L290.029 34.1174C290.233 33.9397 290.315 33.7075 290.465 33.5025C290.711 33.4342 290.465 33.1746 290.725 33.1199C290.697 33.1063 290.684 33.038 290.643 33.0653C290.547 32.71 291.039 33.0243 290.957 32.6827C291.039 32.4778 291.066 32.1362 291.325 32.0269C291.27 31.9722 291.325 31.8902 291.298 31.8219C291.339 31.8083 291.421 31.8219 291.421 31.7399V31.658C291.489 31.658 291.489 31.5623 291.53 31.5213C291.366 31.4257 291.393 31.1387 291.148 31.2071L290.984 31.3574C290.834 31.1797 290.588 31.1114 290.411 31.0704C290.261 31.2344 290.138 30.8518 290.001 31.0294L289.974 31.0021L289.865 31.1114C289.797 30.8928 289.674 31.1797 289.51 31.0841C289.387 30.7835 289.005 30.9748 288.8 30.7972C288.528 30.7562 288.487 30.4009 288.2 30.3463C288.05 30.2506 288.255 30.032 288.023 30.0184C288.05 29.9774 288.05 29.9364 288.118 29.9091C287.913 29.7314 288.296 29.5948 288.118 29.4445C288.2 29.2805 288.282 29.1986 288.405 29.0483C288.405 29.0209 288.405 28.9799 288.364 28.9526L288.405 28.9253L288.459 28.9936L288.514 28.939V28.9116C288.732 28.9526 288.637 28.5291 288.896 28.6384C288.992 28.6247 289.169 28.693 289.237 28.5564C289.237 28.3241 289.51 28.4198 289.701 28.3514L289.756 28.4061L289.933 28.2695C289.933 28.3378 290.042 28.3378 290.097 28.3788C290.165 28.2968 290.206 28.2421 290.302 28.1875C290.411 28.1875 290.506 28.1328 290.602 28.2421C290.847 28.2011 291.052 28.1875 291.27 28.2831C291.339 28.0508 291.571 28.3651 291.666 28.1465C291.844 28.1875 292.035 28.1875 292.212 28.2285L292.253 28.2011Z" fill="#241500"/>
<path fill-rule="evenodd" clip-rule="evenodd" d="M262.627 31.1388C262.736 31.2344 262.913 31.2208 262.981 31.3437H263.063C263.063 31.3437 263.022 31.3711 263.036 31.3984C263.063 31.453 263.118 31.453 263.172 31.453C263.172 31.5214 263.172 31.5623 263.227 31.6033C263.172 31.617 263.2 31.6716 263.186 31.7126C263.35 31.7673 263.459 31.9859 263.527 32.1362C263.391 32.3002 263.868 32.4095 263.527 32.5461C263.746 32.7374 263.595 32.997 263.759 33.1746C263.732 33.2019 263.636 33.2019 263.677 33.2839C263.773 33.2839 263.746 33.4069 263.759 33.4615C263.568 33.5572 263.773 33.9124 263.595 34.0627C263.636 34.2267 263.541 34.377 263.595 34.5273C263.623 34.6639 263.759 34.7459 263.868 34.8142C264.046 34.9645 264.523 34.7459 264.578 35.1011C264.66 35.1558 264.824 35.2514 264.865 35.0738C265.056 35.3061 265.356 35.0738 265.574 35.2788C265.683 35.1285 265.806 35.3198 265.915 35.3334C266.093 35.3607 266.42 35.2651 266.543 35.4291C266.598 35.4154 266.639 35.3471 266.72 35.3744C266.761 35.4154 266.734 35.5247 266.83 35.4974L266.884 35.3744C266.884 35.3744 267.157 35.5247 267.294 35.4154C267.416 35.3607 267.594 35.3744 267.662 35.4974C267.689 35.4974 267.744 35.4701 267.771 35.4427V35.5657C268.058 35.4564 268.317 35.4017 268.617 35.3881C268.781 35.3607 268.999 35.4291 269.163 35.4291C269.163 35.4427 269.163 35.4974 269.19 35.511C269.272 35.3881 269.382 35.4837 269.477 35.4837C269.477 35.552 269.682 35.4837 269.641 35.634L269.873 35.839L269.818 35.8936C270.037 35.9483 269.955 36.2352 270.118 36.3445C270.091 36.5221 270.146 36.5904 270.118 36.8091C270.091 37.0277 269.927 37.2053 269.982 37.3829C269.614 37.4102 269.614 37.9158 269.19 37.9568C269.109 37.9568 269.068 38.1344 268.945 38.0934C268.945 38.0388 268.972 37.9704 268.904 37.9568C268.767 37.9978 268.89 38.1207 268.713 38.1617C268.563 38.2164 268.385 38.2164 268.29 38.312C268.194 38.3803 268.112 38.394 268.003 38.353C267.935 38.23 267.826 38.353 267.744 38.353C267.648 38.4896 267.43 38.3667 267.294 38.4487C267.13 38.3803 266.939 38.599 266.802 38.4213C266.598 38.4213 266.434 38.6126 266.229 38.5306C266.243 38.4896 266.188 38.4487 266.175 38.4077C266.038 38.5443 265.833 38.3803 265.738 38.4487C265.683 38.2164 265.547 38.5443 265.451 38.353L265.424 38.394C265.369 38.271 265.274 38.4213 265.192 38.3393C265.015 38.3803 264.933 38.1891 264.742 38.2164C264.66 38.0661 264.605 38.2847 264.51 38.2437C264.373 38.1754 264.223 38.3803 264.169 38.1891C263.909 38.2437 263.746 37.9568 263.541 37.9841C263.568 37.7382 263.241 37.9158 263.186 37.6972C263.022 37.6015 263.104 37.3829 262.968 37.2736L262.94 37.3146C262.94 37.3146 262.913 37.178 262.818 37.219C262.681 37.3556 262.545 37.5332 262.558 37.7655C262.463 37.8748 262.504 38.0388 262.408 38.1344C262.381 38.476 262.176 38.7766 262.163 39.0772C261.999 39.3231 262.012 39.6237 261.931 39.897C261.89 39.897 261.849 39.9789 261.821 39.9243C261.794 39.938 261.753 39.9653 261.767 40.0063C261.78 40.0609 261.835 40.0336 261.862 40.0473C261.821 40.1702 261.808 40.2932 261.821 40.4435C261.78 40.4435 261.753 40.4435 261.726 40.4845C261.821 40.7168 261.63 40.9764 261.644 41.2223C261.48 41.8098 261.439 42.3974 261.248 42.9712C261.262 43.3674 261.112 43.8183 261.153 44.3102C261.084 44.4332 261.18 44.6518 261.18 44.8294C261.221 45.0754 261.385 45.2803 261.098 45.4579C261.044 45.5536 260.989 45.5126 260.921 45.6082C260.293 45.4579 260.416 44.7338 260.238 44.2556C260.32 43.9823 260.157 43.6271 260.389 43.3674C260.32 42.4383 260.566 41.4682 260.784 40.6348C260.962 40.1566 261.016 39.569 261.194 39.1591C261.289 38.8722 261.289 38.6536 261.371 38.353C261.439 38.0524 261.467 37.7792 261.576 37.4649C261.548 37.2463 261.726 37.014 261.685 36.7954C261.644 36.6861 261.767 36.5221 261.685 36.4265C261.794 36.2899 261.712 36.1532 261.78 35.9893H261.849C261.808 35.8253 261.985 35.716 261.849 35.552C262.081 35.4291 261.712 35.2378 261.958 35.1558C261.862 34.8552 262.122 34.8825 262.081 34.6093C262.149 34.4863 262.04 34.418 262.163 34.3223C262.053 34.2677 262.122 34.172 262.108 34.1037C262.135 34.0901 262.204 34.1174 262.231 34.0627C261.999 33.9398 262.285 33.7348 262.19 33.5845L262.285 33.4889C262.149 33.4069 262.367 33.2839 262.231 33.1746C262.326 33.12 262.258 33.038 262.258 32.9697C262.203 32.874 262.244 32.7374 262.244 32.6281L262.326 32.5461C262.272 32.4778 262.19 32.4914 262.163 32.3958C262.285 32.3548 262.163 32.2728 262.163 32.1909L262.067 32.1499C262.067 32.1499 262.176 32.0269 262.094 31.9586H262.067L262.122 31.8766C262.053 31.8493 262.053 31.7263 262.012 31.658C262.204 31.5487 261.972 31.3164 262.204 31.2208C262.108 31.1115 262.258 31.1251 262.299 31.0431C262.476 30.9748 262.476 31.2891 262.64 31.1934L262.627 31.1388Z" fill="#241500"/>
<path fill-rule="evenodd" clip-rule="evenodd" d="M279.562 31.9722C279.78 31.7946 279.739 32.2045 279.971 32.0678L280.094 32.1908L280.053 32.2181C280.135 32.3138 280.23 32.3411 280.258 32.4231C280.285 32.5051 280.312 32.628 280.422 32.71C280.476 32.71 280.435 32.8193 280.476 32.8467C280.449 33.0243 280.776 33.2429 280.558 33.4205C280.626 33.4478 280.599 33.4888 280.654 33.5435C280.654 33.6255 280.517 33.7211 280.654 33.8031H280.667C280.422 33.9397 280.804 34.1447 280.544 34.2676C280.599 34.3633 280.599 34.4043 280.503 34.4999C280.613 34.6366 280.381 34.8005 280.585 34.9098L280.381 35.1011C280.681 35.2377 280.176 35.4154 280.462 35.5793C280.271 35.7433 280.462 35.8936 280.408 36.0849C280.244 36.3855 280.271 36.727 280.258 37.0276C280.353 37.1096 280.435 37.0959 280.544 37.0686C280.544 37.1096 280.585 37.1233 280.613 37.1506C280.913 37.0686 281.104 37.4239 281.404 37.3282C281.541 37.3009 281.622 37.4922 281.745 37.3965C281.868 37.4922 282.045 37.4785 282.168 37.6015L282.209 37.6288C282.346 37.3829 282.468 37.7108 282.605 37.6835C282.864 37.5878 283.001 37.8611 283.233 37.7518C283.328 37.8064 283.328 37.9157 283.437 37.9704C283.56 37.8474 283.697 37.9704 283.806 37.8884C283.874 38.0387 284.065 37.9157 284.147 38.0387C284.283 37.9841 284.215 38.1344 284.256 38.1754C284.256 38.312 284.365 38.1344 284.379 38.23C284.693 38.353 284.939 38.8585 284.952 39.1454C284.979 39.2957 284.761 39.3094 284.843 39.487C284.584 39.3231 284.666 39.774 284.447 39.7466C284.338 39.9243 284.188 39.9379 283.983 39.9926C283.779 39.9516 283.628 40.1019 283.465 40.0882C283.451 40.0199 283.396 39.9789 283.315 39.9926C283.246 40.1429 283.164 39.9926 283.069 40.0336C282.455 39.9516 281.827 39.9516 281.227 40.0336C281.145 39.9652 280.954 40.0199 280.858 39.9926C280.804 39.9789 280.722 40.1975 280.681 39.9926H280.503C280.503 39.9926 280.558 39.9926 280.572 39.9789C280.326 39.7603 279.998 39.5417 279.944 39.2274C279.78 39.0908 279.698 39.0225 279.575 38.8449C279.48 38.8722 279.48 38.9678 279.453 39.0225C279.453 39.1181 279.33 39.2411 279.343 39.3641C279.166 39.6647 279.043 39.9926 278.852 40.2795C278.729 40.7167 278.402 41.0583 278.238 41.4272L278.184 41.3862C278.129 41.4682 278.047 41.5365 278.047 41.6458C278.061 41.7005 278.129 41.6732 278.184 41.6868C277.979 41.9054 278.184 42.0831 278.006 42.3017C278.061 42.6159 277.747 42.7936 277.801 43.0532C277.651 43.2171 277.638 43.4494 277.651 43.6543H277.624C277.665 43.7773 277.528 43.9959 277.679 44.0779C277.679 44.1599 277.61 44.2145 277.706 44.2692C277.842 44.2282 277.965 44.1189 278.102 44.0916C278.061 44.1599 277.924 44.4468 277.815 44.5834C277.842 44.7337 277.61 44.884 277.542 45.007C277.406 45.0617 277.31 45.1983 277.146 45.1436C277.051 44.843 276.655 45.171 276.682 44.7747C276.696 44.5561 276.396 44.4468 276.546 44.2145L276.437 44.1599C276.478 43.9139 276.505 43.6817 276.519 43.4221C276.519 43.2718 276.532 43.2581 276.601 43.1078C276.505 43.0122 276.546 42.8345 276.587 42.7252C276.819 42.4246 276.737 41.9601 276.846 41.6322C276.846 41.4682 276.996 41.2769 276.942 41.0993C277.119 40.99 276.942 40.8534 277.037 40.7167C277.187 40.7167 276.983 40.6074 277.092 40.5528C277.16 40.3205 277.187 40.1702 277.296 39.9516C277.337 39.7603 277.378 39.5144 277.474 39.3094L277.447 39.2684C277.706 39.2001 277.447 38.9678 277.651 38.8449C277.651 38.8039 277.679 38.7629 277.638 38.7355C277.72 38.6672 277.883 38.5989 277.733 38.4759C277.72 38.3803 278.033 38.3393 277.801 38.23C277.801 38.0934 278.006 38.1754 277.965 38.0251L277.883 37.9567C278.115 37.8201 277.924 37.6425 278.115 37.5058C278.006 37.3009 278.32 37.2462 278.17 37.0686C278.334 37.014 278.347 36.8363 278.375 36.686C278.47 36.6314 278.415 36.4401 278.579 36.3991C278.361 36.2078 278.716 36.0029 278.743 35.8799C278.811 35.7979 278.743 35.593 278.825 35.4837C278.716 35.4017 278.77 35.388 278.825 35.3334C279.071 35.3607 278.92 35.1558 279.084 35.0738C279.057 34.9371 278.893 34.7868 278.852 34.5819C278.92 34.5546 278.948 34.5136 279.002 34.4726L278.825 34.3496C278.825 34.3496 278.839 34.2676 278.866 34.2267C278.893 34.2267 278.893 34.2267 278.92 34.1993C278.866 34.1173 278.879 33.8714 278.716 33.8577C278.716 33.6528 278.484 33.5845 278.579 33.3659C278.511 33.3932 278.456 33.3112 278.443 33.2702C278.443 33.2019 278.579 33.1473 278.497 33.0653C278.416 33.0926 278.415 32.9833 278.388 32.9423L278.47 32.8603C278.32 32.792 278.47 32.7237 278.416 32.6144C278.566 32.5871 278.456 32.4777 278.456 32.4094C278.675 32.3411 278.552 32.0405 278.811 31.9859C278.948 32.0405 278.92 31.9039 279.002 31.8356C279.18 31.9312 279.494 31.7263 279.575 31.9995L279.562 31.9722Z" fill="#241500"/>
<path fill-rule="evenodd" clip-rule="evenodd" d="M275.154 39.3777C275.086 39.3094 275.086 39.1591 274.949 39.1181C274.554 39.2547 274.404 38.7629 274.24 38.5716C274.158 38.5169 273.994 38.5169 273.994 38.3666H273.926C273.803 38.189 273.448 38.148 273.271 38.3666C273.203 38.6536 272.93 38.4076 272.807 38.6262C272.848 38.6809 272.848 38.7355 272.78 38.7765C272.548 38.7355 272.548 38.9678 272.37 39.0635C272.357 39.0088 272.302 39.0635 272.261 39.0908C272.07 39.2411 271.974 39.5144 271.702 39.5827C271.729 39.8559 271.333 39.8696 271.278 40.1292C271.333 40.3478 270.992 40.3615 271.101 40.5801C271.06 40.5801 271.06 40.5801 271.046 40.5528C271.046 40.8124 270.692 40.7987 270.774 41.072C270.664 41.1676 270.61 41.3862 270.46 41.4819C270.555 41.5502 270.405 41.6048 270.378 41.6732L270.432 41.7278C270.432 41.7278 270.391 41.7961 270.337 41.7825C270.378 41.8371 270.378 41.8918 270.31 41.9328C270.364 41.9874 270.31 42.0831 270.364 42.1377C270.146 42.288 270.419 42.411 270.241 42.5749C270.391 42.6023 270.282 42.7252 270.296 42.8072C270.46 42.9029 270.228 43.0532 270.378 43.1488L270.405 43.1215L270.46 43.1761C270.446 43.4767 270.842 43.4221 270.774 43.668C270.869 43.7773 271.019 43.832 271.142 43.8183C271.306 43.8456 271.306 44.0232 271.401 44.1326C271.565 44.1872 271.51 43.9549 271.661 43.9823C271.77 43.9549 272.015 43.7363 272.138 43.6133L272.165 43.6407L272.288 43.5177C272.479 43.5724 272.548 43.3537 272.711 43.2308C272.93 43.1761 272.943 42.8619 273.162 42.8892C273.325 42.7935 273.626 42.7526 273.598 42.493C274.158 42.0011 274.786 41.5639 275.099 40.9217C275.127 40.7167 275.045 40.5118 275.168 40.3068C274.895 40.0199 275.304 39.733 275.127 39.3777H275.154ZM274.294 40.785C274.267 40.8807 273.83 41.2359 273.721 41.4136C273.667 41.4409 273.612 41.6458 273.612 41.6458C273.189 41.6185 272.821 42.124 272.397 42.0967C272.288 41.9874 272.561 41.8644 272.548 41.6595H272.629C272.766 41.5229 272.902 41.3179 272.998 41.1266C273.039 41.0446 273.175 41.072 273.134 40.949C273.298 40.908 273.94 40.1565 273.94 40.1565C274.049 40.0882 274.363 39.9106 274.349 40.1839C274.267 40.2795 274.24 40.4708 274.281 40.5528C274.322 40.5528 274.335 40.5118 274.363 40.4844C274.308 40.4435 274.363 40.3205 274.417 40.3205H274.472C274.472 40.3205 274.335 40.6211 274.267 40.785H274.294Z" fill="#241500"/>
<path fill-rule="evenodd" clip-rule="evenodd" d="M257.837 44.2418C257.782 44.1189 257.946 43.9549 257.809 43.8319C257.509 43.8729 257.686 43.545 257.55 43.4357C257.345 43.2991 257.4 42.9985 257.223 42.8618L257.182 42.8892C257.018 42.8072 257.141 42.6842 257.031 42.6022C257.154 42.37 256.813 42.2333 256.745 42.0284C256.54 42.0284 256.608 41.7415 256.431 41.6731C256.363 41.6868 256.308 41.7824 256.254 41.7141C256.267 41.4272 255.803 41.3589 255.885 41.0993C255.653 40.9626 255.872 40.6757 255.776 40.5254C255.926 40.3478 256.063 40.0745 256.104 39.8423C256.295 39.5007 256.049 39.0771 256.404 38.8038C256.417 38.7492 256.404 38.6945 256.363 38.6672C256.404 38.5989 256.595 38.4896 256.445 38.3803C256.445 38.2027 256.663 37.9977 256.458 37.8474L256.554 37.7518C256.608 37.6425 256.472 37.6834 256.472 37.5878C256.759 37.5058 256.363 37.3555 256.608 37.2462C256.581 37.0003 256.69 36.9183 256.69 36.6724C256.513 36.5221 256.69 36.3444 256.554 36.1805L256.595 36.1532C256.595 36.0165 256.472 36.0029 256.39 35.9209C256.486 35.7706 256.349 35.593 256.335 35.4973C256.226 35.3607 256.035 35.2377 256.022 35.0874C255.926 34.6775 255.38 34.8551 255.271 34.4862C255.162 34.4862 255.271 34.6092 255.162 34.6229L255.121 34.5955L255.066 34.6502C254.944 34.6502 255.066 34.5682 255.039 34.5136C254.944 34.3086 254.807 34.4316 254.643 34.4043C254.602 34.3633 254.561 34.3359 254.575 34.2813L254.452 34.3633C254.452 34.3633 254.398 34.254 254.37 34.1993C254.343 34.1993 254.302 34.1993 254.289 34.2266L254.207 34.1446C254.138 34.1446 254.043 34.1173 254.002 34.1583C253.893 34.1856 253.811 34.1993 253.77 34.0763C253.552 34.0763 253.265 34.1037 253.156 33.9124C253.074 33.9124 252.978 33.9124 252.951 33.9944C252.883 33.9534 252.733 34.09 252.665 33.967C252.692 33.9397 252.692 33.8987 252.692 33.8714C252.542 33.8441 252.446 33.8987 252.282 33.967C252.146 33.885 252.051 33.7894 251.928 33.6801C251.996 33.6391 252.01 33.5571 252.078 33.5845C252.119 33.2702 252.474 33.1199 252.692 32.9286L252.719 32.9559L253.074 32.6963C253.265 32.4504 253.579 32.3821 253.811 32.1908C254.138 32.0132 254.493 31.8629 254.78 31.6443C254.957 31.6443 255.121 31.4257 255.312 31.3573C255.53 31.412 255.599 31.3983 255.749 31.2207C255.912 31.1797 256.185 31.2207 256.322 31.0841C256.404 30.8655 256.704 30.9201 256.895 30.8381C256.922 30.7015 257.072 30.6468 257.1 30.4829C257.236 30.4146 257.182 30.2096 257.373 30.1686C257.345 30.0866 257.523 30.0047 257.4 29.9363C257.441 29.909 257.468 29.8544 257.523 29.8544C257.55 29.7861 257.468 29.7587 257.427 29.7041L257.632 29.5811C257.55 29.5128 257.468 29.4035 257.468 29.3352C257.386 29.2532 257.482 29.1029 257.386 29.0482C257.495 28.8706 257.182 28.7476 257.332 28.5564C257.25 28.57 257.182 28.5427 257.127 28.4744C257.373 28.2968 257.004 28.1055 257.072 27.9278C256.936 27.8732 256.991 27.7502 256.84 27.6682L256.868 27.6272C256.868 27.6272 256.786 27.5043 256.731 27.4223L256.772 27.395C256.731 27.2993 256.595 27.272 256.649 27.1627C256.69 26.9851 256.472 27.0534 256.513 26.8758C256.336 26.8348 256.417 26.6025 256.267 26.5478C256.24 26.4932 256.226 26.3976 256.226 26.3566C256.049 26.2746 256.117 25.974 255.94 25.9467C255.885 25.974 255.831 25.9193 255.858 25.8647C255.844 25.81 255.776 25.7144 255.721 25.728C255.571 25.7007 255.653 25.5504 255.571 25.4958C255.776 25.2635 255.271 25.3318 255.408 25.0722C255.244 25.1542 255.257 24.9219 255.176 24.8263C254.944 24.8263 255.176 24.6077 254.985 24.5667C254.985 24.2797 254.589 24.5393 254.602 24.2387C254.521 24.2114 254.452 24.1841 254.384 24.1841C254.138 24.1841 253.852 24.1294 253.633 24.0065L253.579 24.0884L253.524 24.0475V24.0884C253.456 24.1431 253.374 24.2114 253.265 24.1841C253.129 24.2251 253.047 24.3071 253.006 24.43C252.978 24.43 252.965 24.43 252.951 24.4027C252.897 24.4574 252.842 24.5393 252.897 24.635C252.842 24.676 252.815 24.758 252.733 24.717C252.706 24.7989 252.787 24.8399 252.787 24.8946C252.706 24.9492 252.446 25.0039 252.583 25.1815C252.337 25.2772 252.542 25.5094 252.514 25.6324C252.351 25.9193 252.61 26.2199 252.487 26.4932C252.869 26.5615 252.514 26.9851 252.828 27.0124C252.897 27.0944 252.924 27.231 252.91 27.2993C253.047 27.3403 253.088 27.5589 253.197 27.5863L253.156 27.6272C253.183 27.7775 253.32 27.9962 253.47 28.0781C253.388 28.2148 253.715 28.2694 253.633 28.447C253.879 28.4607 253.743 28.775 253.961 28.816C253.975 29.0209 254.111 29.2668 254.329 29.3762C254.357 29.5401 254.466 29.6221 254.548 29.7451L254.575 29.7177L254.63 29.7724L254.602 29.7997H254.684C254.684 29.7997 254.766 29.868 254.739 29.9227C254.793 30.0457 254.916 30.1413 255.053 30.155C255.053 30.196 255.066 30.2643 255.025 30.2916L255.189 30.3736C255.08 30.4419 255.162 30.5649 255.23 30.6332C255.121 30.6605 255.025 30.7288 255.025 30.8655C254.971 31.0158 254.807 30.9884 254.821 31.1524C254.016 31.9175 253.033 32.4231 252.091 32.9286C251.969 32.874 251.819 33.0516 251.723 32.9559C251.464 33.1199 251.163 32.9559 250.863 33.0106C250.713 32.8876 250.618 33.0106 250.454 32.9286C250.304 33.0106 250.099 32.9696 249.949 33.0652L250.004 33.1199C249.744 33.3385 249.553 33.6118 249.444 33.926C249.389 34.09 249.458 34.2266 249.308 34.2949C249.253 34.4316 249.403 34.3359 249.43 34.4452C249.403 34.4589 249.362 34.5272 249.308 34.5272C249.198 34.6502 249.389 34.6365 249.362 34.7595C249.335 34.8688 249.253 34.9918 249.417 35.0328C249.253 35.1831 249.594 35.3334 249.362 35.4563C249.362 35.5246 249.458 35.5246 249.499 35.5656C249.499 35.6203 249.512 35.6886 249.471 35.7023C249.69 35.7023 249.635 35.9482 249.703 36.0438C249.471 36.3308 250.017 36.1805 249.84 36.4538C249.881 36.5221 249.949 36.5221 250.004 36.5631C250.208 36.5631 250.29 36.932 250.618 36.809C250.795 36.8773 250.836 37.0276 251.013 37.0686C251.191 37.1916 251.477 36.932 251.559 37.1916H251.641C251.709 37.1779 251.832 37.1916 251.778 37.3009H251.832C251.832 37.3009 251.859 37.2189 251.9 37.1916C251.928 37.2189 251.969 37.2462 251.941 37.3009H252.146C252.146 37.3009 252.146 37.1642 252.228 37.1642C252.187 37.4375 252.555 37.2735 252.569 37.4102L253.088 37.4512C253.17 37.4785 253.251 37.5878 253.183 37.6561C253.388 37.7791 253.129 37.8474 253.265 38.025C253.006 38.1343 253.429 38.2846 253.224 38.3666L253.197 38.5989H253.183C253.292 38.7902 253.101 38.8038 252.992 38.9131C252.992 39.0225 252.992 39.1591 253.033 39.2684C252.787 39.3914 252.869 39.7329 252.828 39.9516C252.528 40.1702 252.733 40.5391 252.46 40.7304C252.501 40.7577 252.46 40.8123 252.474 40.8533C252.433 40.8807 252.419 40.9217 252.351 40.908C252.296 41.0036 252.214 41.1266 252.201 41.1676L252.173 41.6868H252.091C252.269 41.8644 251.982 41.9191 252.01 42.083C251.969 42.1514 251.914 42.1514 251.873 42.165C251.846 42.247 251.914 42.3016 251.887 42.37C251.682 42.3563 251.791 42.5339 251.805 42.6569C251.737 42.6979 251.682 42.7935 251.75 42.8618C251.3 42.9985 251.805 43.4084 251.436 43.545L251.587 43.6133C251.436 43.7363 251.518 43.9003 251.491 44.0369H251.436C251.477 44.1325 251.477 44.2418 251.546 44.3238C251.436 44.5971 251.737 44.6927 251.696 44.925C251.887 44.8704 251.764 45.089 251.832 45.1709L251.914 45.13C251.914 45.13 252.05 45.1709 252.05 45.2393C251.9 45.3622 252.146 45.4579 252.201 45.5535L252.173 45.5945C252.242 45.8131 252.624 46.346 252.678 46.51C252.76 46.5646 252.842 46.4006 252.883 46.5509C253.115 46.5236 253.333 46.6193 253.579 46.5509C253.661 46.6329 253.756 46.6739 253.852 46.7012C253.988 46.7286 254.521 46.9608 254.439 46.8242C254.439 46.8242 254.712 46.8515 254.889 46.6466C255.107 46.6739 255.23 46.6739 255.517 46.5646L255.872 46.387C255.885 46.469 256.09 46.387 256.24 46.2777C256.322 46.223 256.404 46.1684 256.431 46.1137C256.554 46.1 256.677 45.9224 256.854 45.7448C256.936 45.6492 257.113 45.6218 257.195 45.5262C257.304 45.3896 257.373 45.2119 257.427 45.1709C257.427 44.9797 257.646 45.1163 257.605 44.9113C257.646 44.8567 257.714 44.8294 257.768 44.7884C257.714 44.5834 257.85 44.4331 257.796 44.2555L257.837 44.2418ZM255.135 44.843C254.985 44.9387 254.807 44.7474 254.643 44.4468C254.589 44.3648 254.466 44.4468 254.411 44.3648C254.37 44.2692 254.384 44.1735 254.357 43.8866C254.329 43.8456 254.357 43.75 254.193 43.3537V43.1214C254.084 42.5066 254.152 41.8371 254.807 41.7278C255.462 41.6185 255.844 42.7252 255.435 43.75C255.735 43.8866 255.462 44.5971 255.121 44.8567L255.135 44.843Z" fill="#241500"/>
<path fill-rule="evenodd" clip-rule="evenodd" d="M259.133 45.1983C259.351 45.1983 259.474 45.1163 259.652 45.2119C259.761 45.4852 260.088 45.6765 260.088 45.9907C260.129 45.9907 260.17 45.9771 260.197 46.0317C260.102 46.182 260.252 46.182 260.17 46.346C260.197 46.4006 260.252 46.4143 260.32 46.4143C260.32 46.4416 260.32 46.4416 260.279 46.4689C260.348 46.5509 260.389 46.7012 260.375 46.7832C260.429 46.8105 260.443 46.9062 260.525 46.8652C260.689 46.6876 260.839 46.5373 261.044 46.5236C260.948 46.305 261.316 46.4963 261.33 46.2777C261.494 46.264 261.535 46.1274 261.699 46.141L261.753 46.0864C261.794 46.1684 261.835 46.0454 261.89 46.059C261.999 45.8404 262.34 45.9088 262.49 45.6491C262.627 45.7311 262.886 45.6491 263.009 45.5672C263.131 45.4442 263.418 45.4579 263.623 45.3895C263.705 45.3622 263.95 45.3622 263.991 45.2802C264.264 45.2529 264.442 45.1983 264.701 45.2256C264.824 45.1163 265.042 45.1983 265.151 45.1436C265.247 45.2666 265.683 45.1436 265.724 45.2529C265.929 45.3895 265.943 45.1163 266.106 45.2256C266.12 45.3486 266.338 45.4579 266.502 45.3759C266.611 45.3759 266.802 45.4305 266.939 45.4988C267.075 45.4442 267.28 45.4715 267.376 45.5808C267.471 45.7038 267.621 45.7994 267.785 45.8268L267.812 45.7994C267.921 45.9361 268.263 46.0317 268.153 46.2503C268.249 46.3186 268.344 46.4963 268.372 46.6329L268.235 46.7969C268.235 46.7969 268.263 46.8652 268.235 46.8788C268.194 47.0291 267.962 46.9472 268.031 47.1384C267.785 47.2478 267.471 47.3434 267.43 47.6303C267.348 47.8489 266.898 47.9173 267.062 48.2452C266.871 48.2998 266.925 48.5594 266.707 48.5321C266.734 48.8054 266.297 48.6961 266.407 48.9693C266.229 49.0923 266.147 49.2836 266.106 49.4066C266.052 49.5432 265.724 49.4885 265.82 49.6935C265.738 49.7345 265.67 49.8301 265.615 49.8711L265.697 49.9531L265.67 49.9804C265.765 50.1717 265.902 49.9804 266.011 49.9531C267.212 49.9394 268.617 49.5159 269.777 49.7618L269.832 49.8165L269.777 49.8711C269.927 49.8711 270.159 49.9804 270.35 49.8984L270.405 49.8438V49.9394C270.596 49.9121 270.801 50.0624 270.951 50.1717C270.951 50.2127 270.842 50.2674 270.924 50.322C270.992 50.281 271.005 50.3903 271.033 50.4313C270.801 50.6089 270.61 50.4996 270.31 50.486C268.658 50.1307 267.089 50.486 265.574 50.8959L265.615 50.9368C265.424 51.1555 265.11 50.9369 265.001 51.2238C264.837 51.2511 264.742 51.2784 264.564 51.3058C264.551 51.3741 264.537 51.4424 264.428 51.4151C264.428 51.3877 264.428 51.3877 264.401 51.3741C264.36 51.3741 264.373 51.4151 264.373 51.4561C264.237 51.5927 264.21 51.5107 264.059 51.5654C263.978 51.62 264.005 51.8523 263.855 51.743C263.691 51.7976 263.595 52.1256 263.391 51.9889C263.268 52.0299 263.227 52.2759 263.077 52.1939L262.954 52.3305C262.954 52.3305 262.899 52.3032 262.872 52.3032L262.831 52.4398C262.831 52.4398 262.763 52.3988 262.749 52.4398C262.681 52.6038 262.572 52.4398 262.572 52.6448C262.463 52.6174 262.367 52.7404 262.285 52.6994C262.094 52.9044 261.794 52.9317 261.671 53.1913C261.548 53.1776 261.562 53.3416 261.439 53.3689C261.18 53.3962 261.016 53.5192 260.798 53.6695C260.32 53.9291 259.938 53.5192 259.461 53.6968C259.379 53.6968 259.283 53.6422 259.256 53.5465C259.324 53.4372 259.119 53.2596 259.324 53.2186C259.365 53.164 259.324 53.0957 259.351 53.041C259.488 52.9727 259.433 52.7541 259.611 52.7267V52.6584C259.802 52.6584 259.693 52.4535 259.843 52.3715C260.088 52.2075 260.266 52.0163 260.525 51.825L260.552 51.866C260.634 51.3741 261.194 51.5107 261.33 51.1145C261.412 50.8139 261.699 51.1555 261.726 50.8275C261.835 50.8275 261.931 50.8002 261.985 50.7182L262.012 50.7456C262.012 50.7456 262.163 50.6499 262.135 50.5406C262.354 50.5406 262.422 50.1717 262.681 50.2537C262.613 50.1307 262.831 50.1171 262.859 50.0214C262.886 50.0214 262.94 49.9941 262.995 49.9941C263.213 49.6798 263.554 49.4885 263.773 49.2016C263.773 49.2563 263.841 49.2016 263.882 49.2289C263.868 49.0103 264.155 49.0376 264.114 48.86C264.196 48.778 264.36 48.7917 264.442 48.778C264.496 48.6551 264.551 48.5458 264.701 48.5458C264.796 48.3545 264.987 48.0949 265.219 47.9719C265.11 47.7396 265.479 47.8626 265.479 47.644C265.588 47.5347 265.67 47.4527 265.697 47.2887C265.561 47.1384 265.424 47.2614 265.301 47.2068C265.288 47.2068 265.26 47.2478 265.247 47.2341L265.178 47.1794C264.837 47.2341 264.564 47.1794 264.21 47.1794C264.005 47.2204 263.814 47.2068 263.568 47.2068C263.445 47.3571 263.213 47.2341 263.104 47.398C262.777 47.2751 262.64 47.603 262.367 47.685C262.408 47.8626 262.094 47.9036 262.163 48.1495C262.163 48.2042 262.135 48.2588 262.19 48.2862C262.122 48.3408 262.04 48.3818 261.985 48.4501L261.903 48.3681C261.78 48.6278 261.48 48.3955 261.344 48.6004C261.139 48.6414 261.18 48.86 260.975 48.942L260.934 48.9147C260.743 49.106 260.416 49.0923 260.307 49.3656H260.211C260.17 49.5569 259.774 49.6935 259.583 49.8848L259.556 49.8575C259.488 50.1034 259.27 50.2947 259.16 50.486C258.942 50.6363 258.792 50.9369 258.614 51.1691C258.546 51.4561 258.478 51.6747 258.41 51.9206C258.464 52.0436 258.328 52.0982 258.273 52.1802C258.219 52.4671 258.041 52.6448 258.069 52.9317C257.919 53.082 257.837 53.3962 257.782 53.6149C257.823 53.8335 257.85 53.9974 257.755 54.1887C257.809 54.2707 257.755 54.3663 257.7 54.421C257.837 54.6806 257.536 54.8582 257.591 55.0905C257.414 55.1861 257.591 55.3228 257.414 55.4184V55.596C257.318 55.5824 257.414 55.719 257.318 55.7327L257.359 55.7873C257.182 55.8556 257.291 56.0879 257.045 56.0333C256.936 55.9786 257.045 55.8283 256.909 55.7873C256.759 56.0196 256.458 55.7873 256.254 55.9786C256.104 55.9786 255.885 56.1289 255.79 55.9513L255.708 55.9786C255.708 55.842 255.571 55.7327 255.626 55.6097C255.571 55.5277 255.503 55.4321 255.394 55.4321C255.367 55.2408 255.435 54.9949 255.462 54.8172C255.298 54.6806 255.503 54.3937 255.394 54.216C255.64 54.0931 255.421 53.7925 255.558 53.5875C255.394 53.4782 255.64 53.4099 255.64 53.3006L255.53 53.2323C255.558 53.0137 255.694 52.7404 255.53 52.4945C255.53 52.3715 255.585 52.1939 255.68 52.1256C255.558 52.0982 255.708 51.9889 255.694 51.9206C255.749 51.8386 255.762 51.6883 255.844 51.579C255.694 51.2921 256.131 51.4287 256.022 51.1828C256.104 51.1145 256.063 50.9915 256.076 50.8959C256.417 50.6499 256.322 50.1717 256.69 49.9394C256.54 49.7891 256.84 49.7891 256.745 49.5978C256.936 49.5295 256.813 49.3109 256.977 49.2153C256.827 49.0377 257.182 49.0786 257.031 48.8874C257.1 48.86 257.141 48.7917 257.195 48.7507C257.113 48.6414 257.359 48.4911 257.195 48.4228C257.427 48.2862 257.414 47.8899 257.659 47.7123L257.577 47.6577C257.659 47.5893 257.809 47.562 257.809 47.4254C257.632 47.3161 257.973 47.2751 257.878 47.1111C258.096 47.1111 258.028 46.8515 258.082 46.7012C258.15 46.6466 258.11 46.4963 258.205 46.4143C258.041 46.2913 258.287 46.0864 258.055 46.0181C258.096 45.8814 257.823 45.7858 258.028 45.6355L257.973 45.5945C257.973 45.4305 258.246 45.4579 258.15 45.2529C258.301 45.2119 258.355 45.0889 258.492 45.1299C258.614 45.0343 258.778 45.1846 258.942 45.1163C259.024 45.0753 259.065 45.1573 259.106 45.1983H259.133Z" fill="#241500"/>
<path fill-rule="evenodd" clip-rule="evenodd" d="M275.741 45.4716C275.741 45.5809 275.877 45.6492 275.782 45.7585L275.741 45.8132C275.713 46.0181 275.85 46.2504 275.673 46.4417L275.7 46.469C275.659 46.551 275.522 46.592 275.563 46.7013L275.604 46.7423C275.563 46.8106 275.441 46.7833 275.481 46.8926C275.386 46.9199 275.331 47.0292 275.318 47.1522C275.577 47.1385 275.891 47.2888 276.177 47.2478C276.437 47.3025 276.805 47.2478 277.092 47.3025C277.31 47.1932 277.542 47.3025 277.733 47.2205C278.033 47.0839 278.443 47.0975 278.798 47.0019C279.152 46.9746 279.507 46.7149 279.862 46.7149C279.944 46.674 280.121 46.674 280.23 46.592C280.381 46.4417 280.735 46.6193 280.926 46.4007C280.995 46.3734 281.104 46.4553 281.158 46.346C281.718 46.4007 282.155 46.2094 282.66 46.2367C282.523 46.3187 282.373 46.305 282.223 46.346C282.318 46.4417 282.537 46.3734 282.55 46.51C281.882 46.8243 281.349 46.9472 280.64 47.1385C280.435 47.2615 280.19 47.2888 279.971 47.3981C279.466 47.6031 279.016 47.685 278.525 47.972C278.224 48.0266 277.883 48.0813 277.638 48.2042C277.378 48.1906 277.146 48.3272 276.914 48.3136L276.833 48.4092C276.805 48.2452 276.628 48.3409 276.546 48.2862C276.519 48.2999 276.519 48.3409 276.519 48.3682C276.478 48.3819 276.464 48.3272 276.437 48.3136L276.369 48.3682C276.205 48.3272 276.096 48.5048 275.891 48.3955C275.754 48.4775 275.618 48.3955 275.468 48.4502C275.359 48.4502 275.195 48.4092 275.113 48.5048C274.977 48.3819 274.772 48.4775 274.649 48.3409H274.54C274.431 48.1906 274.24 48.2042 274.131 48.1086C273.885 48.0813 274.008 47.8627 273.735 47.7807C273.803 47.5757 273.503 47.5347 273.598 47.2888C273.544 47.1385 273.639 46.9472 273.653 46.7833C273.721 46.428 274.13 46.1138 274.417 45.8542C274.594 45.9225 274.676 45.6629 274.813 45.6629C274.772 45.5536 274.908 45.5946 274.936 45.5672C275.209 45.5262 275.345 45.1573 275.632 45.3486L275.768 45.4852L275.741 45.4716Z" fill="#241500"/>
<path fill-rule="evenodd" clip-rule="evenodd" d="M286.986 45.8404L287.081 45.9224C287.832 45.9224 288.5 46.0454 289.237 46.1547L289.346 46.2777C289.032 46.1274 288.569 46.1957 288.2 46.0864L288.173 46.059C288.173 46.059 288.118 46.1274 288.091 46.1137L288.036 46.059C287.982 46.1547 287.777 46.0864 287.75 46.223C287.49 46.2503 287.218 46.1684 287.026 46.346C287.04 46.3733 287.095 46.3733 287.108 46.3733C287.067 46.3733 287.054 46.4143 286.999 46.4143C286.917 46.5646 287.081 46.7559 287.204 46.8105C287.258 46.8105 287.272 46.8379 287.286 46.8652C287.231 47.0565 287.477 47.0701 287.518 47.1794C287.627 47.2751 287.75 47.3571 287.859 47.439C288.023 47.4117 288.159 47.6167 288.323 47.6713C288.432 47.6303 288.5 47.7806 288.582 47.726C288.678 47.9173 288.964 47.8489 289.101 47.8899C289.251 47.9856 289.456 47.9446 289.619 48.0402C290.206 48.1495 291.011 48.0402 291.584 48.3682C291.939 48.5321 292.349 48.4775 292.717 48.4638C292.717 48.3682 292.649 48.4638 292.662 48.4091L292.744 48.3818C292.717 48.4638 292.799 48.4911 292.84 48.5321C293.072 48.3681 293.413 48.6414 293.536 48.3135C293.563 48.2452 293.618 48.3135 293.645 48.3408C293.686 48.3272 293.577 48.3408 293.563 48.3955V48.4638C294.245 48.3682 294.941 48.4091 295.665 48.3272C295.733 48.4501 295.869 48.3272 295.951 48.3272C295.951 48.2725 295.924 48.3955 295.979 48.4091C296.251 48.2315 296.524 48.4228 296.879 48.3272C296.934 48.2315 296.988 48.2998 297.016 48.2998L296.975 48.3272C297.016 48.4091 297.057 48.2998 297.111 48.2998C297.33 48.3545 297.48 48.1905 297.725 48.2998C297.875 48.3408 297.916 48.2452 298.066 48.2452C298.08 48.2315 298.094 48.2179 298.094 48.1905L298.066 48.1632C298.066 48.1632 298.339 48.2179 298.408 48.1085C298.558 48.1085 298.353 48.2042 298.462 48.2452C298.599 48.2862 298.776 48.1905 298.872 48.1085C298.844 48.3135 299.049 48.1769 299.158 48.1769C299.595 48.2042 299.991 48.0129 300.455 48.0949C300.536 48.0129 300.687 48.1222 300.768 48.0129C301 48.1222 301.205 47.9036 301.423 48.0949C301.615 47.9173 301.819 48.2588 301.942 47.9719C302.392 47.9719 302.884 47.7806 303.348 47.808L303.43 47.726L303.375 47.808C303.689 47.9309 303.962 47.5893 304.235 47.726C304.276 47.685 304.371 47.6986 304.33 47.603H304.658C304.617 47.48 304.753 47.5347 304.808 47.4937C304.931 47.5347 305.04 47.644 305.149 47.603L305.408 47.8353C305.504 47.8763 305.695 47.9446 305.859 47.9582C305.927 48.2725 306.159 47.8899 306.295 48.1905C306.35 48.1905 306.418 48.1632 306.473 48.2315C306.473 48.3545 306.309 48.3408 306.404 48.4501C306.268 48.5184 306.432 48.6551 306.377 48.7371C306.432 48.7644 306.486 48.8054 306.514 48.8464C306.486 48.8737 306.486 48.9147 306.486 48.942L306.514 48.9693C306.514 48.9693 306.418 48.9557 306.404 49.024C306.486 49.1743 306.377 49.2973 306.323 49.4202C306.104 49.4202 305.79 49.5022 305.599 49.4202C305.053 49.5159 304.426 49.3656 303.921 49.5159C303.307 49.7072 302.543 49.7208 301.915 49.8165C301.301 49.8301 300.796 49.8984 300.223 49.7891C299.458 49.8848 298.612 49.9531 297.985 49.9258C297.821 49.8301 297.548 49.9258 297.343 49.8711C296.415 49.7755 295.433 49.8984 294.477 49.9258C294.368 49.8575 294.218 49.7891 294.068 49.8575C293.631 49.9668 293.031 49.7618 292.635 49.9121C292.321 49.8301 291.953 50.0897 291.748 49.7891C291.489 49.8848 291.216 49.7208 291.025 49.7072C291.68 49.7345 292.39 49.7481 293.004 49.8165C293.045 49.7618 293.154 49.8165 293.181 49.7345C293.017 49.6935 293.058 49.5022 292.84 49.5295C292.662 49.5978 292.512 49.5022 292.349 49.6252C292.035 49.5842 291.775 49.3656 291.489 49.6252H291.257L291.366 49.5705C291.284 49.4339 291.161 49.5978 291.079 49.5295C291.079 49.5705 291.052 49.5842 291.039 49.5842C290.998 49.5842 290.984 49.5569 290.957 49.5295C290.943 49.5705 290.902 49.5705 290.875 49.5705C290.861 49.5295 290.929 49.4885 290.875 49.4475L290.725 49.5022C290.725 49.5022 290.725 49.4339 290.697 49.4202L290.643 49.4749C290.397 49.4202 290.083 49.5705 289.892 49.3519L289.933 49.3246C289.551 48.9557 288.964 49.1196 288.528 48.8327C288.064 48.8874 287.763 48.4501 287.381 48.3408L287.149 48.1905L287.177 48.1632C286.917 47.9036 286.549 47.6303 286.235 47.4664C286.071 47.2068 285.703 47.1248 285.689 46.7695C285.457 46.6329 285.635 46.3596 285.58 46.1684C285.607 46.1 285.635 45.9907 285.716 45.9634C285.894 45.9088 286.112 45.8678 286.262 45.7721C286.535 45.7175 286.726 45.8541 286.986 45.8678V45.8404Z" fill="#241500"/>
<path fill-rule="evenodd" clip-rule="evenodd" d="M283.082 46.3047L282.851 46.2504L283.055 46.2775L283.082 46.3047Z" fill="#241500"/>
<path fill-rule="evenodd" clip-rule="evenodd" d="M303.893 47.4113C303.893 47.4113 303.798 47.4385 303.784 47.3706L303.893 47.3434V47.4113Z" fill="#241500"/>
<path fill-rule="evenodd" clip-rule="evenodd" d="M303.552 47.5612L303.525 47.5204C303.525 47.5204 303.607 47.3845 303.688 47.4117L303.539 47.5476L303.552 47.5612Z" fill="#241500"/>
<path fill-rule="evenodd" clip-rule="evenodd" d="M304.494 47.4388V47.4932H304.385C304.344 47.4117 304.453 47.3709 304.494 47.4388Z" fill="#241500"/>
<path fill-rule="evenodd" clip-rule="evenodd" d="M297.179 48.0539C297.179 48.0539 297.166 48.0947 297.152 48.1083H297.098C297.098 48.1083 297.152 48.0403 297.179 48.0539Z" fill="#241500"/>
<path fill-rule="evenodd" clip-rule="evenodd" d="M297.93 48.1359C297.93 48.1359 297.739 48.163 297.698 48.163C297.78 48.163 297.848 48.1359 297.93 48.1359Z" fill="#241500"/>
<path fill-rule="evenodd" clip-rule="evenodd" d="M293.153 48.354L293.099 48.2996C293.099 48.2996 293.031 48.3812 292.99 48.3812C293.017 48.3132 293.14 48.2725 293.249 48.2725L293.153 48.354Z" fill="#241500"/>
<path d="M259.024 83.2232C259.024 84.2753 258.492 84.7945 257.427 84.7945C257.154 84.7945 256.936 84.7672 256.786 84.7262C254.944 81.7749 253.756 80.2993 253.224 80.3129C252.637 80.3129 251.164 80.8458 248.83 81.8979C246.483 82.9499 245.05 83.4691 244.545 83.4691C244.04 83.4691 243.276 83.5375 242.252 83.6468C241.229 83.7561 240.478 83.8107 240.001 83.8244C236.043 83.8517 233.464 82.6084 232.277 80.0806C231.786 79.0696 231.554 78.4684 231.54 78.3044C231.54 77.1157 231.745 76.1456 232.154 75.3805C232.209 75.3258 233.369 73.8912 235.647 71.0765C236.33 70.2157 237.053 69.3413 237.79 68.4805C238.527 67.606 239.25 66.9912 239.933 66.6086C241.584 65.6795 243.017 65.215 244.245 65.2013C246.101 65.2013 247.042 65.6932 247.056 66.6906C247.056 67.4284 246.728 68.0979 246.032 68.6854C245.35 69.273 244.627 69.5736 243.876 69.5736C243.713 69.5736 243.535 69.5462 243.317 69.4642C243.098 69.3823 242.921 69.3549 242.757 69.3549C241.529 69.3549 239.946 70.1747 237.995 71.7597C236.043 73.3583 235.074 74.7383 235.074 75.9133C235.088 78.7007 236.466 80.0943 239.182 80.067C241.161 80.067 243.276 79.5614 245.568 78.6187C247.861 77.6759 249.744 76.4872 251.218 75.0799C250.618 72.7844 249.567 69.3413 248.052 64.7914C247.343 63.9716 246.592 63.1108 245.773 62.2227C244.968 61.3209 244.095 60.7061 243.18 60.3508C241.884 59.8453 240.055 59.5993 237.694 59.613C237.476 59.613 237.121 59.613 236.603 59.613C236.098 59.613 235.729 59.613 235.511 59.613C234.065 59.613 232.686 59.449 231.403 59.0801C230.967 58.6019 230.748 58.0144 230.748 57.3176C230.748 55.2271 232.441 54.1613 235.88 54.134C237.749 54.1203 240.137 54.5166 243.03 55.2954C243.794 55.8283 244.627 56.3611 245.541 56.8803C248.448 58.5199 250.413 60.7607 251.45 63.5754C251.996 64.969 252.828 67.6334 253.92 71.5821C254.302 72.9621 254.657 74.3284 254.998 75.6401C255.489 77.225 256.063 78.523 256.704 79.5341C258.164 81.8159 258.928 83.0319 258.983 83.1959L259.024 83.2232Z" fill="#241500"/>
<path d="M306.909 81.6109C306.909 82.5947 306.65 83.4691 306.132 84.2206C305.599 84.9584 304.958 85.341 304.207 85.341C303.402 85.341 302.843 85.1771 302.529 84.8218C301.546 83.7834 300.823 82.0345 300.318 79.5751C299.704 76.5692 299.267 74.7383 298.994 74.1098C298.067 72.1422 297.002 69.9151 295.815 67.3874C294.286 64.5864 292.894 62.9468 291.598 62.4686C291.12 63.5207 290.534 65.2013 289.851 67.524C289.456 71.1721 288.814 76.3915 287.954 83.1822C287.531 83.6741 287.177 83.92 286.917 83.92C287.245 83.92 286.89 83.8107 285.867 83.6058C284.079 80.0533 280.012 73.3173 273.68 63.425C273.148 63.8486 272.698 64.9417 272.329 66.6906C271.811 69.2866 271.524 70.7623 271.469 71.1038C271.374 72.0193 271.265 72.8527 271.169 73.6315C270.542 77.7032 270.091 80.2583 269.777 81.3103C268.836 84.8218 267.594 86.5844 266.038 86.5844C264.701 86.5844 263.555 84.8901 262.627 81.447C262.408 80.6818 261.985 78.8919 261.385 76.0909C260.675 74.2054 259.788 71.2268 258.751 67.1688C258.956 66.8819 259.502 66.513 260.389 66.0484C261.262 65.5839 261.835 65.3516 262.108 65.3516C262.749 65.3516 263.35 66.226 263.896 67.9613C264.059 69.15 264.414 71.0765 264.974 73.7272C265.765 71.4864 266.966 68.1936 268.604 63.835C270.555 58.9981 272.343 56.5661 273.94 56.5524C275.495 56.5524 277.187 58.315 279.043 61.8674C279.644 63.0561 280.776 65.5019 282.469 69.191C282.851 70.0927 283.56 71.705 284.597 74.0005C285.075 72.3745 286.276 69.068 288.227 64.0946C288.596 63.0425 289.196 61.4849 290.042 59.4627C290.888 57.4405 291.898 56.4294 293.086 56.4158C294.205 56.4158 296.306 59.1211 299.404 64.5318C304.385 73.2626 306.896 78.9329 306.909 81.5426V81.6109Z" fill="#241500"/>
<path d="M380 79.2609C380 80.3676 379.536 81.3241 378.581 82.1302C377.612 82.95 376.711 83.3462 375.852 83.3599C374.992 83.3599 374.446 83.2642 374.2 83.0456C373.968 82.827 373.586 82.1985 373.109 81.1328C372.617 80.0807 371.99 78.4821 371.225 76.3506C371.062 75.4078 370.734 74.1235 370.243 72.5112C370.011 71.7051 369.206 70.0245 367.786 67.4695C365.999 64.1766 364.62 62.537 363.652 62.537C363.01 62.537 361.209 65.2423 358.234 70.612C357.593 71.7187 356.678 73.29 355.491 75.3122C354.304 77.3344 353.621 78.9056 353.471 79.9987C353.58 80.6546 353.458 81.611 353.089 82.868C352.229 82.868 351.602 82.6084 351.233 82.1029C349.664 80.067 348.449 75.9817 347.603 69.8469C347.262 67.2918 347.098 65.7205 347.098 65.1194C347.098 63.2202 347.262 61.5806 347.631 60.1869C347.794 59.5994 348.217 58.9435 348.941 58.2057C349.664 57.4679 350.237 57.099 350.674 57.099C351.315 57.099 351.861 57.7138 352.339 58.9572C352.803 60.2006 353.035 61.3073 353.035 62.2501C353.035 62.4687 352.939 63.8213 352.748 66.3217L352.448 70.3934C352.448 71.3635 352.543 72.3063 352.707 73.249C353.444 71.4865 354.631 68.7948 356.269 65.1877C358.48 60.4738 360.472 58.1101 362.246 58.0964C363.474 58.0964 365.357 59.1758 367.896 61.3483C375.947 71.3225 379.986 77.2934 379.986 79.2746L380 79.2609Z" fill="#241500"/>
<path d="M229.316 33.3658L227.91 55.5824C227.814 57.4132 227.432 60.5148 226.777 64.9281C226.477 66.9092 225.958 70.2977 225.249 75.0799C225.208 77.2797 225.099 79.7528 224.908 82.4854C224.853 82.9773 224.444 83.7151 223.652 84.7125C222.861 85.71 222.26 86.2155 221.837 86.2155C221.933 86.2155 221.278 85.9696 219.845 85.505C219.859 84.4803 219.872 78.2771 219.872 66.8956L219.708 66.5813C219.872 66.2124 219.913 65.7205 219.859 65.133C219.859 64.969 219.777 64.7914 219.599 64.5728C216.897 64.969 212.694 65.5839 207.004 66.431C206.894 66.4857 206.84 66.595 206.84 66.7589C206.949 67.0732 207.208 68.0433 207.618 69.6419C208.491 73.0714 209.746 78.4137 209.76 79.3155C209.76 81.2967 209.146 82.9363 207.877 84.2207C206.621 85.5187 205.025 86.1745 203.114 86.1882C202.951 86.1882 202.691 86.2155 202.323 86.2702C201.941 86.3248 201.681 86.3521 201.518 86.3521C201.204 86.3521 200.985 86.2292 200.89 85.9559C200.071 83.6605 199.744 81.652 199.894 79.9304C199.73 79.7801 199.553 79.5341 199.334 79.2199C199.061 77.4027 197.779 71.4728 197.11 67.77C196.851 67.77 196.468 67.8383 195.964 67.9477C195.459 68.057 195.104 68.1116 194.885 68.1116C194.667 68.1116 194.381 68.1389 194.012 68.1936C193.644 68.2619 193.343 68.2756 193.139 68.2756C192.77 68.2756 192.211 68.1799 191.46 67.975C191.624 67.3875 191.16 66.8273 190.096 66.2944C190.573 64.9007 191.501 64.0126 192.879 63.63L196.168 63.1245C196.168 63.1245 196.196 62.9879 196.236 62.8512C196.291 62.7283 196.318 62.6053 196.318 62.4823C196.318 63.0698 196.045 61.9768 195.486 59.2031C195.54 58.9299 195.568 58.4926 195.568 57.9188C195.24 57.222 194.831 56.1835 194.34 54.7899C194.203 54.3117 194.149 53.4235 194.135 52.1392C194.08 51.9342 193.971 51.2921 193.807 50.2127C193.644 49.1469 192.374 42.2606 190 29.5947C191.037 28.7886 191.679 28.3924 191.951 28.3787C192.879 28.3787 194.367 31.248 196.428 36.9866C197.028 38.6398 197.724 40.5527 198.502 42.7388C200.999 49.0513 203.251 55.2134 205.243 61.2116C205.407 61.2116 206.84 61.0613 209.569 60.7881C211.234 60.6241 212.994 60.5285 214.864 60.5148C215.178 60.5148 215.655 60.5695 216.269 60.6651C216.884 60.7744 217.32 60.8154 217.593 60.8154H219.845C219.818 56.4021 219.763 53.5875 219.708 52.3578L218.699 32.0951C218.699 31.0294 218.78 30.2096 218.972 29.6767C218.972 29.6221 218.917 29.4991 218.821 29.3215C218.726 29.1302 218.685 28.9935 218.685 28.8706C218.685 28.7613 218.726 28.5563 218.808 28.2694C218.876 27.9688 218.931 27.7775 218.931 27.6682C219.026 26.6435 219.572 25.687 220.582 24.7579C221.578 23.8425 222.588 23.3779 223.625 23.3643C224.266 23.3643 225.249 23.9654 226.559 25.1951C227.869 26.4248 228.592 27.3813 228.77 28.0781C229.275 30.3872 229.466 32.1498 229.384 33.3795L229.316 33.3658Z" fill="#241500"/>
<path d="M213.922 51.0051C213.922 51.1691 213.69 51.8932 213.226 53.1776C213.117 53.5465 212.776 53.9291 212.203 54.3116C211.63 54.6942 211.152 54.8855 210.784 54.8855H210.074C209.337 54.8855 208.395 54.4346 207.249 53.5055C206.103 52.5764 205.543 51.7703 205.53 51.0734C205.53 51.4423 205.693 50.9915 205.994 49.7071C206.089 48.8053 206.485 47.9445 207.167 47.1384C207.85 46.3323 208.614 45.9224 209.46 45.9224C210.62 45.9224 211.657 46.4689 212.558 47.5483C213.472 48.6414 213.922 49.8027 213.936 51.0324L213.922 51.0051Z" fill="#241500"/>
<path d="M344.983 81.0098C344.997 83.9065 344.273 85.3684 342.8 85.3684C342.049 85.3684 341.067 84.0977 339.838 81.5154C339.142 79.7938 338.446 78.3591 337.75 76.6922L335.362 70.3661C335.199 69.5053 334.926 68.5899 334.53 67.6198C333.697 65.6386 333.042 63.7804 332.537 62.0725C331.596 59.0119 331.009 57.1264 330.791 56.4295L328.403 49.7618C327.488 47.0565 326.424 44.7337 325.237 42.7935C324.5 43.8183 323.872 45.7448 323.353 48.5458C323.353 48.6551 323.203 49.6525 322.903 51.5517C320.979 59.2168 317.24 72.6615 314.77 78.2362C314.51 79.056 314.142 80.2583 313.678 81.8843C313.105 83.6605 312.368 84.5623 311.454 84.5623C310.921 84.5623 310.444 84.3847 310.021 84.0021C310.266 80.6546 312.491 69.0544 313.637 62.824L316.339 47.8216C316.708 46.6329 317.021 45.3896 317.281 44.0915C317.431 43.2171 318.045 41.1129 319.082 37.7654C319.56 36.1395 320.256 33.7074 321.197 30.4556C322.671 25.9057 323.981 23.6376 325.168 23.6239C326.342 23.6239 327.529 24.9083 328.716 27.5043C329.208 28.529 330.327 32.0405 332.087 38.0524C332.633 39.8832 333.697 43.0805 335.28 47.6577L342.881 69.437C343.1 70.0382 344.001 73.8639 344.396 76.0364C344.778 78.2088 344.983 79.8621 344.983 80.9962V81.0098Z" fill="#241500"/>
<path d="M334.107 75.7631C334.121 77.635 333.547 79.1516 332.36 80.272C331.187 81.4061 329.658 81.9799 327.789 81.9799C323.968 82.0073 321.525 80.477 320.42 77.3754C320.201 76.7879 320.092 76.255 320.078 75.7768C320.078 74.1235 320.652 72.5113 321.825 70.9536C322.999 69.396 324.363 68.5762 325.919 68.5216C326.192 68.3576 326.397 68.2756 326.56 68.2756C326.779 68.2756 327.024 68.3576 327.297 68.5079C329.126 68.7129 330.709 69.519 332.06 70.9263C333.411 72.3473 334.093 73.9596 334.107 75.7768V75.7631Z" fill="#241500"/>
<path d="M40.1616 76.8698C40.1616 76.8698 54.5859 95.6842 79.8046 100.097C105.023 104.511 127.349 106.656 139.29 94.5501C151.217 82.4444 159.759 75.5035 160.892 73.7819C162.025 72.0603 167.702 66.2807 167.702 66.2807C167.702 66.2807 170.499 55.9513 160.182 53.7241C149.866 51.497 133.886 57.3313 127.021 59.6814C120.171 62.0178 73.3362 77.2251 67.6183 77.266C61.9004 77.307 40.1479 76.8698 40.1479 76.8698H40.1616Z" fill="#56AB2D"/>
<path d="M151.121 68.1116C151.135 70.7486 149.101 72.9074 146.577 72.9211C144.052 72.9347 141.992 70.8169 141.978 68.1662C141.964 65.5292 143.998 63.3704 146.522 63.3568C149.047 63.3431 151.107 65.4746 151.135 68.1116H151.121Z" fill="white"/>
<path d="M172.955 54.6533C168.043 52.6038 161.711 51.62 154.151 51.7567C152.486 51.784 150.807 51.8933 149.129 52.0573C146.29 34.8961 138.348 22.5308 127.417 20.9049C125.029 20.5497 122.627 20.7273 120.253 21.3831C114.781 10.0426 106.552 2.33645 96.3441 0.437254C72.7494 -3.93501 47.5852 24.471 40.1479 63.8897C39.5065 67.2919 39.0289 70.6667 38.6741 74.0005C38.524 73.9732 38.3739 73.9459 38.2238 73.9186C35.6446 70.899 33.5294 67.9887 31.8235 65.379C27.8797 59.3808 23.0898 47.3981 22.5576 33.3658C22.5166 32.4094 21.7252 31.6716 20.7699 31.7126C19.8146 31.7399 19.0914 32.546 19.1187 33.5025C19.6782 48.2452 24.7683 60.9111 28.9578 67.2782C30.1041 69.0271 31.4278 70.9126 32.9426 72.8665C21.3021 70.1475 10.303 64.8871 3.07041 55.965C2.46996 55.2271 1.39189 55.1178 0.654978 55.719C-0.0819317 56.3202 -0.191104 57.3996 0.409342 58.1374C9.03392 68.7812 22.5712 74.5471 36.4088 77.0885C48.7861 91.2163 70.6751 107.134 105.951 105.945C140.613 104.784 159.746 79.7665 165.9 70.0245C165.928 69.9835 165.955 69.9425 165.982 69.9016C167.388 67.6608 168.097 66.2671 168.125 66.1988C168.548 65.3517 168.193 64.3133 167.347 63.9034C166.501 63.4798 165.464 63.835 165.041 64.6822C165.013 64.7368 163.13 67.7428 163.007 67.8794C143.111 91.0524 123.159 80.0944 122.313 79.6162C121.44 79.1243 120.348 79.4249 119.843 80.2857C119.352 81.1465 119.639 82.2532 120.512 82.7587C120.744 82.8954 126.462 86.1336 134.936 86.1882C139.644 86.2156 145.785 85.2318 152.431 81.488C142.81 91.2573 127.513 101.792 105.842 102.53C74.4825 103.582 54.1492 90.6151 41.8537 77.9356C49.9597 78.933 57.9702 78.9057 64.9709 78.1542C82.1791 76.3096 97.7497 70.8307 112.802 65.5293C127.499 60.3372 141.391 55.4458 154.246 55.2271C161.329 55.1042 167.197 55.9923 171.673 57.8642C172.546 58.2331 173.556 57.8095 173.911 56.9351C174.279 56.0606 173.856 55.0495 172.983 54.6943L172.955 54.6533Z" fill="#241500"/>
<path d="M64.5752 74.711C61.6139 75.0252 58.4479 75.2165 55.1864 75.2438C55.2546 74.7929 55.2956 74.3421 55.3638 73.8912C61.0135 35.183 81.0328 6.01182 100.083 8.73082C106.948 9.71458 112.761 14.7153 117.114 22.5308C112.038 24.8535 107.166 29.2941 102.881 35.347C92.8371 38.8584 83.1753 53.2186 77.7986 72.5522C73.4863 73.4813 69.0922 74.2327 64.5752 74.711Z" fill="white"/>
<path d="M89.4254 69.6146C87.5832 70.1474 85.7272 70.653 83.8577 71.1312C88.0198 57.1946 93.6968 46.2366 99.4147 40.8669C96.4124 46.1956 93.8332 52.3715 91.8682 59.1621C90.8993 62.496 90.0805 65.9938 89.4254 69.6009V69.6146Z" fill="#EA571E"/>
<path d="M97.4496 67.1278C99.8104 56.894 102.362 50.6362 105.283 51.0461C107.616 51.374 109.186 55.7599 109.936 62.8512C105.815 64.2995 101.666 65.7478 97.4496 67.1278Z" fill="#F9B80E"/>
<path d="M112.665 61.8948C111.055 53.3143 108.135 47.8353 104.177 47.2614C102.035 46.9608 99.7831 48.1359 97.545 50.4996C99.9741 45.4032 102.703 40.9626 105.583 37.3555C106.388 37.2189 107.179 37.2189 107.957 37.3555C113.689 38.4076 117.387 47.1111 118.492 59.859C116.568 60.5285 114.617 61.2117 112.665 61.8948Z" fill="#0093D9"/>
<path d="M125.398 53.0137C122.109 42.6159 116.568 35.7159 109.472 34.6502C108.994 34.5819 108.517 34.5409 108.039 34.5135C111.71 30.6468 115.586 28.1328 119.434 27.2856C122.477 34.4042 124.524 43.1897 125.384 53" fill="#56AB2D"/>
<path d="M127.663 56.8257C127.554 45.7994 125.793 35.6065 122.614 26.9987C123.214 27.0123 123.815 27.067 124.415 27.1763C132.808 28.6929 138.662 38.8584 140.873 53.3415C136.547 54.2296 132.153 55.432 127.663 56.8257Z" fill="#56AB2D"/>
</g>
<defs>
<clipPath id="clip0_1_1019">
<rect width="380" height="106" fill="white"/>
</clipPath>
</defs>
</svg>
