<svg width="210" height="80" viewBox="0 0 210 80" fill="none" xmlns="http://www.w3.org/2000/svg">
<g clip-path="url(#clip0_547_766)">
<path d="M53.6596 2.48021C66.1896 12.4102 71.7496 27.6502 67.5596 43.5902C64.4696 55.3502 56.5296 63.2902 48.3096 67.7302C38.9896 72.7702 29.8196 73.6402 21.3396 71.6702C17.1696 70.7002 16.2096 70.1602 13.8496 69.2102C17.7796 71.7802 21.9496 74.0002 27.6096 75.3502C38.4196 77.9202 49.6996 76.0202 58.6896 70.2002C66.7796 64.9702 73.5196 55.8002 75.4796 46.0302C78.9596 28.6802 70.6196 9.65021 53.6596 2.47021V2.48021Z" fill="#00908D"/>
<path d="M64.6704 35.9601C64.6704 35.9601 55.5504 33.3801 45.6404 40.1201C45.6404 40.1201 42.4704 41.9101 35.7304 50.0401C35.7304 50.0401 28.0804 61.1701 16.0904 55.8201C16.0904 55.8201 9.10041 53.2101 5.41041 45.4601C3.06041 40.5301 0.980407 33.1301 4.41041 23.7701C4.41041 23.7701 6.53041 17.2501 12.6804 12.2701C17.4704 8.40006 25.6504 4.61006 35.6404 6.75006C35.6404 6.75006 46.3904 8.60006 52.5704 18.1201C52.5704 18.1201 40.6304 7.68006 24.8204 13.7601C24.8204 13.7601 6.49041 19.9601 8.09041 41.9501C8.09041 41.9501 8.71041 54.8001 18.6204 54.1901C18.6204 54.1901 23.4004 54.6301 28.8904 46.5901C28.8904 46.5901 33.7404 39.5301 42.6604 36.3601C42.6604 36.3601 48.4104 34.7701 50.0004 34.7701C50.0004 34.7701 43.1604 34.2501 35.9304 38.1401C35.9304 38.1401 30.5304 40.3901 25.5504 47.4001C25.5504 47.4001 21.4104 53.8701 15.9504 52.0501C15.9504 52.0501 18.7504 40.4001 30.1804 34.7701C30.1804 34.7701 46.0604 26.0201 64.6704 35.9601Z" fill="#00908D"/>
<path d="M101.371 15.99C101.991 14.75 103.001 14.13 104.401 14.13C105.801 14.13 106.821 14.75 107.431 15.99C108.041 17.22 108.351 18.57 108.351 20.03C108.351 21.49 108.031 22.85 107.421 24.07C106.781 25.29 105.781 25.91 104.401 25.91C103.021 25.91 102.021 25.29 101.391 24.07C100.771 22.85 100.461 21.5 100.461 20.03C100.461 18.56 100.771 17.23 101.381 15.99H101.371ZM97.8109 13.8C95.9509 15.48 95.0109 17.56 95.0109 20.03C95.0109 22.5 95.9509 24.64 97.8109 26.33C99.6809 28 101.881 28.85 104.401 28.85C106.921 28.85 109.171 28.01 111.011 26.33C112.871 24.65 113.791 22.54 113.791 20.03C113.791 17.52 112.871 15.48 111.011 13.8C109.171 12.12 106.961 11.28 104.401 11.28C101.841 11.28 99.6809 12.12 97.8109 13.8ZM116.921 44.33C116.921 44.44 116.961 44.53 117.041 44.61C117.111 44.69 117.211 44.72 117.311 44.72H119.191C119.971 44.72 120.621 44.47 121.151 43.96C121.681 43.44 121.931 42.39 121.931 40.8V9.11998C121.931 8.98998 121.901 8.89998 121.831 8.81998C121.771 8.74998 121.671 8.72998 121.541 8.72998H114.891C114.551 8.72998 114.261 8.77998 114.011 8.87998C113.761 8.96998 113.641 9.13998 113.641 9.42998C113.641 10.08 114.191 10.57 115.281 10.92C116.371 11.26 116.921 12.09 116.921 13.43V30.03L93.4109 31.24C93.0909 31.24 92.8609 31.28 92.7009 31.37C92.5409 31.47 92.4609 31.66 92.4609 31.95C92.4609 32.44 92.9609 33.03 93.9309 33.68C94.9109 34.34 95.6709 34.66 96.2109 34.6L116.901 32.45V44.34L116.921 44.33Z" fill="black"/>
<path d="M147.422 33.15C148.152 32.17 149.132 31.66 150.352 31.66C151.572 31.66 152.592 32.17 153.312 33.15C154.032 34.14 154.382 35.36 154.382 36.83C154.382 38.3 154.032 39.48 153.312 40.47C152.592 41.45 151.612 41.95 150.352 41.95C149.092 41.95 148.182 41.45 147.432 40.47C146.702 39.47 146.322 38.26 146.322 36.83C146.322 35.4 146.692 34.14 147.422 33.15ZM144.122 30.96C142.182 32.5 141.212 34.46 141.212 36.83C141.212 39.2 142.182 41.16 144.122 42.71C146.072 44.24 148.152 45.01 150.402 45.01C152.652 45.01 154.712 44.24 156.652 42.71C158.592 41.16 159.542 39.2 159.542 36.83C159.542 34.46 158.592 32.5 156.652 30.96C154.712 29.43 152.632 28.65 150.402 28.65C148.172 28.65 146.072 29.43 144.122 30.96ZM151.102 20.24H150.792C150.682 20.24 150.572 20.27 150.472 20.31C150.572 20.02 150.532 19.7 150.332 19.34C150.132 18.97 149.732 18.62 149.142 18.27L150.592 13.27C150.722 12.81 150.632 12.42 150.322 12.03C150.012 11.66 149.592 11.47 149.062 11.47H133.542C133.352 11.47 133.162 11.5 132.952 11.54C132.752 11.6 132.642 11.77 132.642 12.05C132.642 12.48 133.072 12.98 133.952 13.59C134.822 14.21 135.682 14.51 136.552 14.51H144.542V18.26H133.192C132.932 18.26 132.722 18.29 132.532 18.35C132.352 18.4 132.262 18.57 132.262 18.85C132.262 19.43 132.712 19.87 133.592 20.17C134.482 20.47 134.922 21.11 134.922 22.07V25.83C134.922 26.74 135.262 27.49 135.912 28.08C136.582 28.67 137.302 29.02 138.092 29.15C139.292 29.33 141.472 29.02 144.642 28.21C147.822 27.4 150.282 26.64 152.062 25.95C153.102 25.52 153.542 25.03 153.362 24.42C153.192 23.83 152.602 23.62 151.592 23.84C150.342 24.08 148.452 24.35 145.912 24.66C143.382 24.97 141.562 25.12 140.442 25.1C140.182 25.01 140.052 24.89 140.052 24.74V21.14H149.082C149.352 21.14 149.562 21.12 149.752 21.06C149.932 21.01 150.092 20.9 150.252 20.75C150.252 21.17 150.602 21.66 151.292 22.18C151.972 22.71 152.552 22.98 153.002 22.98H155.852V29.01C155.852 29.11 155.892 29.21 155.972 29.29C156.052 29.35 156.142 29.41 156.242 29.41H158.122C158.912 29.41 159.552 29.29 160.072 29.06C160.602 28.83 160.862 28.02 160.862 26.66V9.11998C160.862 8.98998 160.832 8.89998 160.762 8.81998C160.692 8.74998 160.602 8.72998 160.472 8.72998H154.022C153.672 8.72998 153.382 8.74998 153.132 8.81998C152.882 8.89998 152.752 9.07998 152.752 9.35998C152.752 10.04 153.272 10.49 154.302 10.69C155.332 10.89 155.852 11.65 155.852 12.96V15.03H151.122C150.942 15.03 150.752 15.05 150.552 15.1C150.352 15.14 150.262 15.3 150.262 15.58C150.262 15.97 150.612 16.44 151.322 16.98C152.022 17.51 152.582 17.78 153.012 17.78H155.862V20.24H151.132H151.102Z" fill="black"/>
<path d="M181.831 39.86C181.831 40.05 181.871 40.17 181.931 40.21C182.001 40.25 182.101 40.26 182.221 40.26H197.491C198.631 40.26 199.201 40.81 199.201 41.91C199.201 43.01 198.631 43.57 197.491 43.57H180.511C179.701 43.57 178.851 43.32 177.951 42.85C177.041 42.37 176.601 41.49 176.601 40.25V35.08C176.601 33.95 176.141 33.29 175.231 33.09C174.321 32.88 173.861 32.46 173.861 31.83C173.861 31.59 173.951 31.46 174.121 31.4C174.291 31.34 174.471 31.32 174.681 31.32H181.451C181.581 31.32 181.681 31.34 181.741 31.41C181.811 31.49 181.841 31.58 181.841 31.71V39.85L181.831 39.86ZM192.671 23.08L193.411 14.17C193.411 14.09 193.411 14.03 193.391 13.99C193.381 13.95 193.311 13.92 193.181 13.92H178.271C177.771 13.92 176.991 13.59 175.871 12.96C174.761 12.31 174.211 11.78 174.211 11.38C174.211 11.09 174.321 10.91 174.541 10.83C174.761 10.75 174.961 10.71 175.161 10.71H197.381C198.031 10.71 198.561 10.96 198.981 11.47C199.401 11.97 199.581 12.51 199.531 13.06C199.431 13.95 199.031 15.44 198.381 17.55C197.721 19.66 197.001 21.51 196.211 23.07H201.731C202.891 23.07 203.491 23.59 203.491 24.63C203.491 25.67 202.891 26.19 201.731 26.19H190.541V33.27C190.541 34.32 190.321 35 189.891 35.29C189.461 35.59 188.921 35.74 188.311 35.74H185.651C185.541 35.74 185.451 35.71 185.381 35.63C185.291 35.55 185.251 35.46 185.251 35.35V26.19H174.381C173.851 26.19 173.101 25.91 172.111 25.31C171.131 24.73 170.641 24.24 170.641 23.84C170.641 23.53 170.681 23.33 170.791 23.22C170.901 23.13 171.091 23.06 171.371 23.06H192.691L192.671 23.08Z" fill="black"/>
<path d="M103.36 55.1899C103.25 55.7999 103.18 56.6899 103.16 57.8699V65.3299C103.16 65.9999 103.03 66.6299 102.76 67.2299C102.49 67.8299 102.12 68.3499 101.67 68.7999C101.19 69.2599 100.64 69.5999 100 69.8599C99.3605 70.1099 98.6805 70.2299 97.9705 70.2299C97.2605 70.2299 96.5905 70.1099 95.9705 69.8599C95.3405 69.5999 94.7905 69.2699 94.3205 68.8399C93.8405 68.3999 93.4605 67.8799 93.1905 67.2899C92.9105 66.6899 92.7705 66.0499 92.7705 65.3599V57.9499C92.7405 56.6599 92.6505 55.7499 92.4805 55.1899H94.9805V65.5799C95.0105 65.9399 95.1105 66.2699 95.2705 66.5699C95.4305 66.8699 95.6405 67.1499 95.8805 67.3899C96.1605 67.6499 96.4705 67.8599 96.8305 67.9999C97.1905 68.1499 97.5605 68.2199 97.9705 68.2199C98.3805 68.2199 98.7305 68.1499 99.0805 68.0099C99.4305 67.8799 99.7305 67.6799 100 67.4299C100.26 67.1899 100.48 66.8999 100.65 66.5699C100.82 66.2399 100.94 65.8999 100.98 65.5399V55.1699H103.36V55.1899Z" fill="black"/>
<path d="M108.791 69.52V55.29H111.051V69.52H108.791Z" fill="black"/>
<path d="M123.43 69.5402L119.18 64.3402H118.93V69.5402H116.72V58.4502C116.72 57.8302 116.72 57.3402 116.7 56.9802C116.68 56.6202 116.64 56.0402 116.58 55.2402H120.9C121.37 55.2402 121.89 55.3202 122.46 55.4502C123.03 55.5802 123.56 55.8502 124.03 56.2202C124.5 56.5802 124.9 57.0602 125.21 57.6602C125.52 58.2502 125.68 59.0002 125.68 59.9002C125.68 60.6202 125.57 61.2302 125.34 61.7302C125.11 62.2302 124.82 62.6502 124.49 63.0002C124.1 63.3602 123.66 63.6302 123.2 63.8202C122.73 64.0102 122.28 64.1502 121.86 64.2202L126.25 69.5402H123.43ZM123.57 59.9202C123.57 59.5002 123.49 59.1202 123.34 58.8102C123.19 58.4802 122.98 58.2202 122.72 57.9802C122.49 57.7602 122.23 57.5902 121.93 57.4802C121.64 57.3702 121.35 57.3202 121.07 57.3202H118.94V62.2502H120.66C121.07 62.2502 121.43 62.2002 121.76 62.1002C122.09 62.0002 122.37 61.8802 122.6 61.7102C122.92 61.4902 123.17 61.2102 123.33 60.9002C123.5 60.5902 123.57 60.2702 123.57 59.9202Z" fill="black"/>
<path d="M140.871 55.1899C140.291 55.7399 139.671 56.4499 139.031 57.3399L135.851 62.6899V69.5499H133.661V62.6399L130.441 57.2199C129.871 56.4099 129.351 55.7399 128.871 55.1899H131.671L134.811 60.3999L137.951 55.1899H140.861H140.871Z" fill="black"/>
<path d="M153.76 69.8101C153.22 69.6601 152.36 69.5801 151.18 69.5301H145.15V55.2001H150.47C152.01 55.1101 153.05 55.0001 153.59 54.8301V57.2601H147.4V60.7001H152.96V62.8601H147.4V67.3801H153.75V69.8101H153.76Z" fill="black"/>
<path d="M172.741 62.3401C172.741 63.3901 172.541 64.3701 172.141 65.2901C171.741 66.2101 171.191 67.0101 170.501 67.6901C169.831 68.3501 169.041 68.8701 168.131 69.2601C167.211 69.6601 166.251 69.8501 165.221 69.8501C164.191 69.8501 163.241 69.6601 162.341 69.2801C161.431 68.9001 160.651 68.3701 159.981 67.6901C159.271 67.0101 158.721 66.2101 158.321 65.2901C157.921 64.3701 157.721 63.3901 157.721 62.3401C157.721 61.2901 157.931 60.2801 158.341 59.3601C158.751 58.4301 159.301 57.6301 160.001 56.9401C160.671 56.2801 161.451 55.7701 162.361 55.4001C163.261 55.0201 164.211 54.8301 165.231 54.8301C166.251 54.8301 167.251 55.0301 168.151 55.4201C169.051 55.8101 169.851 56.3601 170.531 57.0401C171.201 57.7101 171.741 58.5001 172.141 59.4201C172.531 60.3401 172.741 61.3001 172.741 62.3401ZM170.561 62.4201C170.561 61.7001 170.421 61.0201 170.161 60.3801C169.891 59.7301 169.521 59.1801 169.041 58.7101C168.571 58.2201 168.001 57.8301 167.371 57.5601C166.721 57.2801 166.031 57.1401 165.291 57.1401C164.551 57.1401 163.891 57.2801 163.251 57.5401C162.601 57.8101 162.041 58.1901 161.571 58.6601C161.101 59.1301 160.731 59.6901 160.451 60.3401C160.171 60.9801 160.031 61.6701 160.031 62.4201C160.031 63.1201 160.161 63.7901 160.421 64.4301C160.691 65.0601 161.041 65.6201 161.501 66.1001C161.981 66.5901 162.541 66.9701 163.191 67.2501C163.841 67.5401 164.541 67.6801 165.291 67.6801C166.041 67.6801 166.731 67.5401 167.381 67.2501C168.041 66.9601 168.601 66.5901 169.071 66.1201C169.551 65.6501 169.911 65.0901 170.181 64.4501C170.441 63.8101 170.571 63.1301 170.571 62.4201H170.561Z" fill="black"/>
<path d="M178.981 60.0301V69.5501H176.461C176.621 69.0701 176.731 68.1701 176.771 66.8501V54.8701L186.491 64.7401V57.9401C186.411 56.6701 186.261 55.7601 186.081 55.2101H188.701V69.9401L178.981 60.0201V60.0301Z" fill="black"/>
<path d="M207.571 64.81C207.311 65.52 206.961 66.19 206.521 66.8C206.081 67.4 205.561 67.93 204.971 68.37C204.351 68.84 203.651 69.21 202.871 69.49C202.101 69.76 201.271 69.9 200.401 69.9C199.311 69.9 198.291 69.69 197.341 69.29C196.401 68.89 195.581 68.35 194.881 67.66C194.211 66.99 193.671 66.2 193.281 65.3C192.891 64.4 192.691 63.44 192.691 62.4C192.691 61.36 192.901 60.36 193.301 59.45C193.711 58.53 194.271 57.74 194.971 57.08C195.671 56.41 196.481 55.9 197.411 55.53C198.331 55.16 199.331 54.98 200.391 54.98C200.821 54.98 201.231 55.01 201.661 55.07C202.091 55.13 202.501 55.24 202.891 55.37C203.321 55.51 203.731 55.69 204.141 55.91C204.551 56.12 204.931 56.37 205.301 56.65V59.67C204.841 59.16 204.381 58.74 203.921 58.4C203.461 58.06 203.011 57.79 202.571 57.58C202.211 57.39 201.851 57.27 201.491 57.2C201.131 57.12 200.761 57.08 200.391 57.08C199.631 57.08 198.931 57.22 198.281 57.48C197.621 57.74 197.041 58.1 196.541 58.59C196.021 59.08 195.601 59.66 195.301 60.32C195.001 60.98 194.841 61.69 194.841 62.44C194.841 63.19 194.991 63.84 195.271 64.49C195.561 65.15 195.951 65.71 196.441 66.2C196.951 66.7 197.541 67.09 198.211 67.38C198.891 67.67 199.621 67.81 200.381 67.81C201.001 67.81 201.591 67.71 202.151 67.49C202.711 67.28 203.211 66.99 203.671 66.64C204.011 66.36 204.321 66.05 204.601 65.73C204.871 65.4 205.081 65.06 205.251 64.69V64.16H200.371V61.76C200.841 61.89 201.681 61.98 202.881 62.05H207.591L207.571 64.83V64.81Z" fill="black"/>
</g>
<defs>
<clipPath id="clip0_547_766">
<rect width="210" height="80" fill="white"/>
</clipPath>
</defs>
</svg>
