<svg xmlns="http://www.w3.org/2000/svg" width="121" height="121">
    <path fill-rule="evenodd" stroke-width="8" stroke="#00B4BF" fill="#20292B" d="M60.1 9.1c29.066 0 51 23.733 51 51 0 29.067-21.934 51-51 51-27.267 0-51-21.933-51-51 0-27.267 23.733-51 51-51z"/>
    <path fill-rule="evenodd" fill="#00B4BF" d="M78.593 65.772v-7.445h14.126v17.746c-2.652 2.55-7.343 4.641-12.647 4.641-10.556 0-18.817-6.63-18.817-19.48 0-12.647 8.516-19.888 18.664-19.888 5.558 0 9.536 2.345 12.137 4.946l-4.845 5.814c-1.835-1.683-3.824-2.958-6.986-2.958-5.609 0-9.638 4.385-9.638 11.78 0 7.547 3.366 11.933 10.403 11.933 1.377 0 2.805-.358 3.621-.969v-6.12h-6.018zm-34.17-9.23 4.743 1.887c4.691 1.887 7.496 5.049 7.496 10.403 0 6.323-5.303 11.882-14.482 11.882-4.947 0-10.25-1.836-14.177-5.457l5.15-6.272c2.703 2.295 6.222 3.876 9.23 3.876 3.366 0 4.947-1.275 4.947-3.315 0-2.193-2.091-2.907-5.354-4.284l-4.845-2.04c-3.978-1.58-7.7-4.895-7.7-10.402 0-6.375 5.711-11.474 13.768-11.474 4.386 0 9.027 1.683 12.341 4.997l-4.538 5.712c-2.499-1.887-4.845-2.907-7.803-2.907-2.804 0-4.538 1.122-4.538 3.162 0 2.09 2.397 2.906 5.762 4.232z"/>
</svg>
