<svg xmlns="http://www.w3.org/2000/svg" width="40" height="40">
    <path fill-rule="evenodd" fill="#221E1F" d="M31.1 17.1v4h-2.331c-.228 1.903-.624 2.84-1.156 3.685l2.286 2.286-2.828 2.828-2.286-2.286c-.845.532-1.782.928-3.685 1.156V31.1h-4v-2.331c-.103-.228-1.04-.624-1.885-1.156l-2.286 2.286-2.829-2.828 2.287-2.286c-.532-.845-.928-1.782-1.156-3.685H7.1v-4h4.131c.228-.103.624-1.04 1.156-1.885L10.1 12.929l2.829-2.829 2.286 2.287c.845-.532 1.782-.928 1.885-1.156V7.1h4v4.131c1.903.228 2.84.624 3.685 1.156l2.286-2.287 2.828 2.829-2.286 2.286c.532.845.928 1.782 1.156 1.885H31.1zm-12-4c-2.414 0-6 3.586-6 6 0 4.214 3.586 6 6 6 4.214 0 6-1.786 6-6 0-2.414-1.786-6-6-6zm0 10c-1.309 0-4-.891-4-4 0-1.309 2.691-4 4-4 3.109 0 4 2.691 4 4 0 3.109-.891 4-4 4z"/>
</svg>
