<svg width="37" height="36" viewBox="0 0 37 36" fill="none" xmlns="http://www.w3.org/2000/svg">
<g clip-path="url(#clip0_21_66)">
<path d="M31.154 24.604H31.0985C30.784 24.604 30.5435 24.345 30.5435 24.0305C30.5435 23.716 30.8025 23.4755 31.0985 23.4755C31.0985 23.4755 31.0615 23.4755 31.1355 23.4755C31.339 23.4755 33.448 23.4385 34.7615 22.1435C35.5015 21.422 35.8715 20.423 35.8715 19.165C35.8715 18.203 35.5755 17.4445 34.965 16.834C33.5035 15.3725 30.7285 15.354 30.6915 15.354C30.525 15.354 30.377 15.28 30.266 15.169C30.155 15.0395 30.0995 14.8915 30.1365 14.725C30.1365 14.688 30.5065 11.58 28.6565 9.48952C27.491 8.17602 25.6965 7.51002 23.31 7.51002C21.1085 7.51002 19.3695 7.91702 18.1485 8.74952C17.8895 8.91602 17.538 8.86052 17.3715 8.60152C17.205 8.34252 17.2605 7.99102 17.5195 7.82452C18.9255 6.88102 20.868 6.40002 23.31 6.40002C26.048 6.40002 28.1385 7.19552 29.5075 8.76802C31.1725 10.6735 31.3205 13.1525 31.2835 14.281C32.301 14.3735 34.3915 14.7065 35.742 16.057C36.556 16.871 36.9815 17.9255 36.9815 19.1835C36.9815 20.756 36.5005 22.0325 35.5385 22.976C33.929 24.5485 31.5425 24.6225 31.1355 24.6225L31.154 24.604Z" fill="white"/>
<path d="M5.994 27.823C5.106 27.823 3.1635 27.6565 1.7205 26.343C0.5735 25.307 0 23.79 0 21.866C0 20.2195 0.555 18.8875 1.628 17.9255C3.4965 16.2605 6.4195 16.1495 7.7515 16.205C7.7145 15.28 7.844 13.5965 9.0465 12.135C10.434 10.4515 12.7835 9.60052 16.058 9.60052C18.796 9.60052 20.8865 10.396 22.2555 11.9685C23.9205 13.874 24.0685 16.353 24.0315 17.4815C25.049 17.574 27.1395 17.907 28.49 19.2575C29.304 20.0715 29.7295 21.126 29.7295 22.384C29.7295 23.9565 29.2485 25.233 28.2865 26.1765C26.566 27.86 23.9575 27.823 23.828 27.823H6.4565C6.4565 27.823 6.2345 27.823 5.994 27.823ZM7.326 17.315C6.031 17.315 3.774 17.5185 2.3865 18.758C1.554 19.498 1.1285 20.5525 1.1285 21.866C1.1285 23.4755 1.591 24.6965 2.479 25.5105C3.996 26.898 6.3455 26.676 6.3825 26.676C6.3825 26.676 6.4195 26.676 6.438 26.676H23.865C23.865 26.676 26.1405 26.713 27.528 25.344C28.268 24.6225 28.638 23.6235 28.638 22.3655C28.638 21.4035 28.342 20.645 27.7315 20.0345C26.2515 18.573 23.5135 18.5545 23.458 18.5545C23.2915 18.5545 23.1435 18.4805 23.0325 18.3695C22.9215 18.24 22.866 18.092 22.903 17.9255C22.903 17.8885 23.273 14.7805 21.423 12.69C20.2575 11.3765 18.463 10.7105 16.0765 10.7105C13.1535 10.7105 11.1 11.432 9.9345 12.838C8.547 14.5215 8.954 16.6675 8.954 16.686C8.991 16.8525 8.954 17.0375 8.806 17.167C8.6765 17.2965 8.51 17.352 8.325 17.352C8.325 17.352 7.918 17.315 7.326 17.315Z" fill="white"/>
</g>
<defs>
<clipPath id="clip0_21_66">
<rect width="37" height="37" fill="white" transform="translate(0 -1)"/>
</clipPath>
</defs>
</svg>
