<svg width="37" height="37" viewBox="0 0 37 37" fill="none" xmlns="http://www.w3.org/2000/svg">
<g clip-path="url(#clip0_21_115)">
<path d="M8.9357 30.2845C8.9357 30.2845 8.8802 30.2845 8.8617 30.2845C7.7147 30.2475 6.6972 29.3225 6.5492 28.157C6.4567 27.4355 6.6972 26.788 6.9747 26.1775C7.2337 25.604 8.2327 24.2535 8.3807 24.0685C8.5102 23.9205 8.6952 23.828 8.8987 23.828C9.1022 23.828 9.2872 23.9205 9.3982 24.087C9.3982 24.087 9.9347 24.79 10.1937 25.16L10.2677 25.271C10.8597 26.1405 11.5442 27.1025 11.3037 28.2865C11.1002 29.3965 10.0642 30.2475 8.9357 30.2475V30.2845ZM8.8802 25.5855C8.5842 26.011 8.2512 26.492 8.1587 26.714C7.9737 27.1395 7.7887 27.602 7.8442 28.009C7.8997 28.5085 8.3992 28.971 8.9172 28.9895C9.4167 29.008 9.9532 28.5825 10.0457 28.083C10.1752 27.4355 9.6942 26.7695 9.2132 26.048L9.1392 25.9185C9.0652 25.826 8.9912 25.715 8.8987 25.5855H8.8802Z" fill="white"/>
<path d="M15.651 37C15.651 37 15.5955 37 15.577 37C14.4115 36.963 13.4125 36.0195 13.2645 34.8725C13.172 34.151 13.4125 33.5035 13.69 32.893C13.949 32.3195 14.948 30.9875 15.096 30.784C15.2255 30.636 15.4105 30.562 15.614 30.5435C15.8175 30.5435 16.0025 30.636 16.1135 30.8025C16.1135 30.8025 16.65 31.5055 16.909 31.8755L16.983 31.9865C17.575 32.856 18.2595 33.818 18.0375 35.002C17.834 36.112 16.798 36.963 15.6695 36.963L15.651 37ZM14.874 33.4295C14.689 33.855 14.504 34.3175 14.5595 34.7245C14.615 35.224 15.1145 35.6865 15.6325 35.705C15.6325 35.705 15.651 35.705 15.6695 35.705C16.169 35.705 16.6685 35.298 16.761 34.7985C16.8905 34.151 16.4095 33.4665 15.9285 32.7635L15.8545 32.6525C15.7805 32.56 15.7065 32.449 15.614 32.3195C15.318 32.745 14.985 33.226 14.8925 33.448L14.874 33.4295Z" fill="white"/>
<path d="M22.5517 30.2845C22.5517 30.2845 22.4962 30.2845 22.4777 30.2845C21.3122 30.2475 20.3132 29.3225 20.1652 28.157C20.0727 27.4355 20.3132 26.788 20.5907 26.1775C20.8497 25.604 21.8487 24.272 21.9967 24.0685C22.1262 23.9205 22.3112 23.828 22.5147 23.828C22.7182 23.828 22.9032 23.9205 23.0142 24.087C23.0142 24.087 23.5507 24.79 23.8097 25.16L23.8837 25.271C24.4757 26.1405 25.1602 27.1025 24.9197 28.2865C24.7162 29.3965 23.6802 30.2475 22.5517 30.2475V30.2845ZM21.7747 26.714C21.5897 27.1395 21.4047 27.602 21.4602 28.009C21.5157 28.5085 22.0152 28.971 22.5332 28.9895C22.5332 28.9895 22.5517 28.9895 22.5702 28.9895C23.0697 28.9895 23.5692 28.5825 23.6617 28.083C23.7912 27.4355 23.3102 26.751 22.8292 26.048L22.7552 25.9185C22.6812 25.826 22.6072 25.715 22.5147 25.5855C22.2187 26.011 21.8857 26.492 21.7932 26.714H21.7747Z" fill="white"/>
<path d="M29.267 37C29.267 37 29.2115 37 29.193 37C28.0275 36.963 27.0285 36.0195 26.8805 34.8725C26.788 34.151 27.0285 33.5035 27.306 32.893C27.565 32.3195 28.564 30.969 28.712 30.784C28.8415 30.636 29.0265 30.562 29.23 30.5435C29.4335 30.5435 29.6185 30.636 29.7295 30.8025C29.7295 30.8025 30.266 31.5055 30.525 31.8755L30.599 31.9865C31.191 32.856 31.8755 33.818 31.6535 35.002C31.45 36.112 30.414 36.963 29.2855 36.963L29.267 37ZM29.2115 32.301C28.9155 32.7265 28.5825 33.2075 28.49 33.4295C28.305 33.855 28.12 34.3175 28.1755 34.7245C28.231 35.224 28.7305 35.6865 29.2485 35.705C29.2485 35.705 29.267 35.705 29.2855 35.705C29.785 35.705 30.2845 35.298 30.377 34.7985C30.5065 34.151 30.0255 33.4665 29.5445 32.7635L29.4705 32.6525C29.3965 32.56 29.3225 32.449 29.23 32.3195L29.2115 32.301Z" fill="white"/>
<path d="M8.7691 21.0345C7.7331 21.0345 5.5131 20.8495 3.8481 19.3325C2.5346 18.13 1.8501 16.391 1.8501 14.1525C1.8501 12.247 2.4791 10.7115 3.7371 9.60151C5.8831 7.67751 9.2686 7.54801 10.8041 7.60351C10.7671 6.53051 10.9151 4.58801 12.3026 2.90451C13.8936 0.962006 16.6131 -0.0184937 20.3871 -0.0184937C23.5506 -0.0184937 25.9556 0.906506 27.5466 2.71951C29.4706 4.90251 29.6371 7.77001 29.6001 9.08351C30.7841 9.17601 33.1891 9.58301 34.7431 11.137C35.6866 12.0805 36.1676 13.3015 36.1676 14.7445C36.1676 16.5575 35.6126 18.0375 34.5026 19.1105C32.5046 21.053 29.4891 21.016 29.3596 20.9975H9.2871C9.2871 20.9975 9.0281 21.016 8.7506 21.016L8.7691 21.0345ZM10.3046 8.91701C8.8061 8.91701 6.2161 9.13901 4.6066 10.582C3.6446 11.433 3.1636 12.654 3.1636 14.171C3.1636 16.021 3.6816 17.4455 4.7361 18.389C6.5121 19.9985 9.1946 19.7395 9.2316 19.7395C9.2501 19.7395 9.2686 19.7395 9.3056 19.7395H29.4151C29.4151 19.7395 32.0421 19.7765 33.6331 18.204C34.4841 17.3715 34.9096 16.2245 34.9096 14.763C34.9096 13.653 34.5581 12.7835 33.8551 12.0805C32.1531 10.3785 28.9711 10.36 28.9341 10.36C28.7491 10.36 28.5641 10.286 28.4531 10.138C28.3236 9.99001 28.2681 9.80501 28.2866 9.62001C28.2866 9.58301 28.7121 5.99401 26.5846 3.57051C25.2526 2.05351 23.1806 1.29501 20.4056 1.29501C17.0386 1.29501 14.6706 2.10901 13.3201 3.73701C11.7106 5.67951 12.1731 8.17701 12.1731 8.19551C12.2101 8.39901 12.1546 8.60251 12.0066 8.75051C11.8586 8.89851 11.6551 8.97251 11.4516 8.95401C11.4516 8.95401 10.9891 8.89851 10.3046 8.89851V8.91701Z" fill="white"/>
<path d="M15.1146 7.78853C14.7816 7.78853 14.5041 7.52953 14.4671 7.19653C14.3746 6.25303 14.7076 5.27253 15.3921 4.51403C16.0766 3.75553 17.0016 3.31153 17.9451 3.29303C18.2966 3.29303 18.5926 3.57053 18.5926 3.94053C18.5926 4.29203 18.3151 4.58803 17.9451 4.58803C17.3716 4.58803 16.7796 4.88403 16.3356 5.36503C15.8916 5.86453 15.6696 6.47503 15.7251 7.04853C15.7621 7.40003 15.5031 7.71453 15.1516 7.75153C15.1331 7.75153 15.1146 7.75153 15.0961 7.75153L15.1146 7.78853Z" fill="white"/>
</g>
<defs>
<clipPath id="clip0_21_115">
<rect width="37" height="37" fill="white"/>
</clipPath>
</defs>
</svg>
