<svg width="36" height="37" viewBox="0 0 36 37" fill="none" xmlns="http://www.w3.org/2000/svg">
<g clip-path="url(#clip0_21_71)">
<path d="M35.6855 23.976H31.2825C31.0975 23.976 30.968 23.828 30.968 23.6615C30.968 23.495 31.116 23.347 31.2825 23.347H35.6855C35.8705 23.347 36 23.495 36 23.6615C36 23.828 35.852 23.976 35.6855 23.976Z" fill="white"/>
<path d="M33.4839 26.1775C33.2989 26.1775 33.1694 26.0295 33.1694 25.863V21.46C33.1694 21.275 33.3174 21.1455 33.4839 21.1455C33.6504 21.1455 33.7984 21.2935 33.7984 21.46V25.863C33.7984 26.048 33.6504 26.1775 33.4839 26.1775Z" fill="white"/>
<path d="M31.93 25.53C31.93 25.53 31.7635 25.493 31.708 25.4375C31.5785 25.308 31.5785 25.1045 31.708 24.9935L34.816 21.8855C34.9455 21.756 35.149 21.756 35.26 21.8855C35.371 22.015 35.3895 22.2185 35.26 22.3295L32.152 25.4375C32.152 25.4375 32.004 25.53 31.93 25.53Z" fill="white"/>
<path d="M35.038 25.53C35.038 25.53 34.8715 25.493 34.816 25.4375L31.708 22.3295C31.5785 22.2 31.5785 21.9965 31.708 21.8855C31.8375 21.7745 32.041 21.756 32.152 21.8855L35.26 24.9935C35.3895 25.123 35.3895 25.3265 35.26 25.4375C35.2045 25.493 35.112 25.53 35.038 25.53Z" fill="white"/>
<path d="M26.3801 32.3935H21.9771C21.7921 32.3935 21.6626 32.2455 21.6626 32.079C21.6626 31.9125 21.8106 31.7645 21.9771 31.7645H26.3801C26.5651 31.7645 26.6946 31.9125 26.6946 32.079C26.6946 32.2455 26.5466 32.3935 26.3801 32.3935Z" fill="white"/>
<path d="M24.1785 34.595C23.9935 34.595 23.864 34.447 23.864 34.2805V29.8775C23.864 29.6925 24.012 29.563 24.1785 29.563C24.345 29.563 24.493 29.711 24.493 29.8775V34.2805C24.493 34.4655 24.345 34.595 24.1785 34.595Z" fill="white"/>
<path d="M22.6245 33.966C22.6245 33.966 22.458 33.929 22.4025 33.8735C22.273 33.744 22.273 33.5405 22.4025 33.4295L25.5105 30.3215C25.64 30.192 25.8435 30.192 25.9545 30.3215C26.0655 30.451 26.084 30.6545 25.9545 30.7655L22.8465 33.8735C22.8465 33.8735 22.6985 33.966 22.6245 33.966Z" fill="white"/>
<path d="M25.7325 33.966C25.7325 33.966 25.566 33.929 25.5105 33.8735L22.4025 30.7655C22.273 30.636 22.273 30.4325 22.4025 30.3215C22.532 30.2105 22.7355 30.192 22.8465 30.3215L25.9545 33.4295C26.084 33.559 26.084 33.7625 25.9545 33.8735C25.899 33.929 25.8065 33.966 25.7325 33.966Z" fill="white"/>
<path d="M3.7175 22.8845H-0.6855C-0.8705 22.8845 -1 22.7365 -1 22.57C-1 22.4035 -0.852 22.2555 -0.6855 22.2555H3.7175C3.9025 22.2555 4.032 22.4035 4.032 22.57C4.032 22.7365 3.884 22.8845 3.7175 22.8845Z" fill="white"/>
<path d="M1.51592 25.086C1.33092 25.086 1.20142 24.938 1.20142 24.7715V20.3685C1.20142 20.1835 1.34942 20.054 1.51592 20.054C1.68242 20.054 1.83042 20.202 1.83042 20.3685V24.7715C1.83042 24.9565 1.68242 25.086 1.51592 25.086Z" fill="white"/>
<path d="M-0.0380528 24.4385C-0.0380528 24.4385 -0.204553 24.4015 -0.260053 24.346C-0.389553 24.2165 -0.389553 24.013 -0.260053 23.902L2.84795 20.794C2.97745 20.6645 3.18095 20.6645 3.29195 20.794C3.40295 20.9235 3.42145 21.127 3.29195 21.238L0.183947 24.346C0.183947 24.346 0.0359472 24.4385 -0.0380528 24.4385Z" fill="white"/>
<path d="M3.0885 24.4385C3.0885 24.4385 2.922 24.4015 2.8665 24.346L-0.241498 21.238C-0.370998 21.1085 -0.370998 20.905 -0.241498 20.794C-0.111998 20.683 0.091502 20.6645 0.202502 20.794L3.3105 23.902C3.44 24.0315 3.44 24.235 3.3105 24.346C3.255 24.4015 3.1625 24.4385 3.0885 24.4385Z" fill="white"/>
<path d="M30.635 17.39H30.598C30.339 17.39 30.117 17.168 30.1355 16.909C30.1355 16.65 30.376 16.4095 30.6165 16.4465C30.635 16.4465 32.559 16.465 33.7245 15.318C34.3535 14.7075 34.668 13.8565 34.668 12.7835C34.668 11.9695 34.409 11.322 33.891 10.804C32.633 9.54602 30.2835 9.54602 30.2465 9.54602C30.117 9.54602 29.969 9.49052 29.895 9.37952C29.8025 9.26852 29.7655 9.13902 29.784 9.00952C29.784 8.99102 30.0985 6.32702 28.526 4.53252C27.5455 3.40402 26.01 2.84902 23.9565 2.84902C22.0695 2.84902 20.5895 3.20052 19.5535 3.90352C19.3315 4.05152 19.0355 3.99602 18.8875 3.77402C18.7395 3.55202 18.795 3.25602 19.017 3.10802C20.2195 2.29402 21.866 1.88702 23.9565 1.88702C26.2875 1.88702 28.0635 2.57152 29.2475 3.90352C30.672 5.53152 30.8015 7.64052 30.7645 8.60252C31.634 8.67652 33.4285 8.97252 34.5755 10.1195C35.2785 10.8225 35.63 11.7105 35.63 12.7835C35.63 14.134 35.223 15.207 34.3905 16.021C33.0215 17.3715 30.968 17.427 30.635 17.427V17.39Z" fill="white"/>
<path d="M9.15648 20.128C8.39798 20.128 6.75148 19.98 5.51198 18.87C4.53148 17.982 4.03198 16.7055 4.03198 15.0405C4.03198 13.6345 4.49448 12.506 5.41948 11.6735C7.01048 10.249 9.50798 10.1565 10.655 10.1935C10.618 9.39803 10.7475 7.95503 11.765 6.71553C12.949 5.27253 14.9655 4.55103 17.7405 4.55103C20.0715 4.55103 21.8475 5.23553 23.0315 6.56753C24.456 8.19552 24.5855 10.3045 24.5485 11.2665C25.418 11.3405 27.2125 11.6365 28.3595 12.7835C29.0625 13.4865 29.414 14.3745 29.414 15.4475C29.414 19.0735 26.4355 19.8505 25.159 20.0355C24.9 20.0725 24.6595 19.8875 24.6225 19.6285C24.5855 19.3695 24.7705 19.129 25.0295 19.092C26.306 18.9255 28.452 18.2225 28.452 15.466C28.452 14.652 28.193 14.0045 27.675 13.4865C26.417 12.2285 24.0675 12.2285 24.0305 12.2285C23.901 12.2285 23.753 12.173 23.679 12.062C23.5865 11.951 23.5495 11.8215 23.568 11.692C23.568 11.6735 23.8825 9.00953 22.31 7.21503C21.3295 6.08653 19.794 5.53153 17.7405 5.53153C15.2615 5.53153 13.504 6.14203 12.505 7.32603C11.321 8.75052 11.654 10.6005 11.654 10.619C11.691 10.767 11.654 10.915 11.543 11.0445C11.432 11.1555 11.284 11.211 11.136 11.1925C11.099 11.1925 7.80598 10.841 6.06698 12.395C5.36398 13.024 4.99398 13.912 4.99398 15.0405C4.99398 16.4095 5.38248 17.464 6.14098 18.1485C7.43598 19.3325 9.45248 19.1475 9.47098 19.1475C9.72998 19.129 9.97048 19.314 9.98898 19.573C10.0075 19.832 9.82248 20.0725 9.56348 20.091C9.54498 20.091 9.37848 20.091 9.13798 20.091L9.15648 20.128Z" fill="white"/>
<path d="M8.37945 26.196C8.37945 26.196 8.24995 26.196 8.19445 26.159C7.95395 26.0665 7.82445 25.7705 7.93545 25.53L9.54495 21.645C9.63745 21.4045 9.93345 21.2935 10.1739 21.386C10.4144 21.4785 10.5439 21.7745 10.4329 22.015L8.82345 25.9C8.74945 26.085 8.56445 26.196 8.37945 26.196Z" fill="white"/>
<path d="M23.6976 26.196C23.6976 26.196 23.5681 26.196 23.5126 26.159C23.2721 26.0665 23.1426 25.7705 23.2536 25.53L24.8631 21.645C24.9556 21.4045 25.2516 21.2935 25.4921 21.386C25.7326 21.4785 25.8621 21.7745 25.7511 22.015L24.1416 25.9C24.0676 26.085 23.8826 26.196 23.6976 26.196Z" fill="white"/>
<path d="M10.1924 31.561C10.1924 31.561 10.0629 31.561 10.0074 31.524C9.76694 31.4315 9.63744 31.1355 9.74844 30.895L15.1874 17.686C15.2799 17.4455 15.5759 17.316 15.8164 17.427C16.0569 17.5195 16.1864 17.8155 16.0754 18.056L10.6364 31.265C10.5624 31.45 10.3774 31.561 10.1924 31.561Z" fill="white"/>
<path d="M15.021 29.6185C15.021 29.6185 14.8916 29.6185 14.8361 29.5815C14.5956 29.489 14.466 29.193 14.577 28.9525L17.5925 21.645C17.685 21.4045 17.9811 21.2935 18.2215 21.386C18.462 21.4785 18.5915 21.7745 18.4805 22.015L15.465 29.3225C15.391 29.5075 15.206 29.6185 15.021 29.6185Z" fill="white"/>
<path d="M18.0364 32.079C18.0364 32.079 17.9069 32.079 17.8514 32.042C17.6109 31.9495 17.4814 31.6535 17.5924 31.413L23.2534 17.7045C23.3459 17.464 23.6419 17.3345 23.8824 17.4455C24.1229 17.538 24.2524 17.834 24.1414 18.0745L18.4804 31.783C18.4064 31.968 18.2214 32.079 18.0364 32.079Z" fill="white"/>
</g>
<defs>
<clipPath id="clip0_21_71">
<rect width="37" height="37" fill="white" transform="translate(-1)"/>
</clipPath>
</defs>
</svg>
