<svg width="37" height="37" viewBox="0 0 37 37" fill="none" xmlns="http://www.w3.org/2000/svg">
<g clip-path="url(#clip0_21_104)">
<path d="M31.154 18.204H31.0985C30.784 18.204 30.5435 17.945 30.5435 17.6305C30.5435 17.316 30.821 17.057 31.117 17.0755C31.1355 17.0755 33.3925 17.1125 34.7615 15.7435C35.5015 15.022 35.8715 14.023 35.8715 12.765C35.8715 11.803 35.5755 11.0445 34.965 10.434C33.5035 8.9725 30.7285 8.954 30.6915 8.954C30.525 8.954 30.377 8.88 30.266 8.769C30.155 8.6395 30.118 8.4915 30.1365 8.325C30.1365 8.288 30.5065 5.18 28.6565 3.0895C27.491 1.776 25.6965 1.11 23.31 1.11C21.1085 1.11 19.3695 1.517 18.1485 2.3495C17.8895 2.516 17.538 2.4605 17.3715 2.2015C17.205 1.9425 17.2605 1.591 17.5195 1.4245C18.9255 0.481 20.868 0 23.31 0C26.048 0 28.1385 0.7955 29.5075 2.368C31.1725 4.2735 31.3205 6.7525 31.2835 7.881C32.301 7.9735 34.3915 8.3065 35.742 9.657C36.556 10.471 36.9815 11.5255 36.9815 12.7835C36.9815 14.356 36.5005 15.6325 35.5385 16.576C33.929 18.1485 31.5425 18.2225 31.1355 18.2225L31.154 18.204Z" fill="white"/>
<path d="M5.99405 21.423C5.10605 21.423 3.18205 21.2565 1.73905 19.943C0.592055 18.907 0.0185547 17.39 0.0185547 15.466C0.0185547 13.8195 0.573555 12.4875 1.64655 11.5255C3.51505 9.8605 6.43805 9.7495 7.77005 9.805C7.73305 8.88 7.86255 7.1965 9.06505 5.735C10.4526 4.0515 12.8021 3.2005 16.0766 3.2005C18.8146 3.2005 20.9051 3.996 22.2741 5.5685C23.9391 7.474 24.0871 9.953 24.0501 11.0815C25.0676 11.174 27.1581 11.507 28.5086 12.8575C29.3226 13.6715 29.7481 14.726 29.7481 15.984C29.7481 20.239 26.2701 21.1455 24.7531 21.349C24.4386 21.4045 24.1611 21.1825 24.1241 20.868C24.0871 20.5535 24.2906 20.276 24.6051 20.239C26.1036 20.0355 28.6196 19.2215 28.6196 15.984C28.6196 15.022 28.3236 14.2635 27.7131 13.653C26.2516 12.1915 23.4766 12.173 23.4396 12.173C23.2731 12.173 23.1251 12.099 23.0141 11.988C22.9031 11.8585 22.8661 11.7105 22.8846 11.544C22.8846 11.507 23.2546 8.399 21.4046 6.3085C20.2391 4.995 18.4446 4.329 16.0581 4.329C13.1536 4.329 11.0816 5.032 9.93455 6.438C8.54705 8.1215 8.93555 10.286 8.93555 10.3045C8.97255 10.471 8.91705 10.656 8.78755 10.7855C8.65805 10.915 8.49155 10.9705 8.30655 10.9705C8.26955 10.9705 4.40305 10.545 2.36805 12.3765C1.53555 13.1165 1.11005 14.171 1.11005 15.4845C1.11005 17.094 1.57255 18.315 2.46055 19.129C3.97755 20.5165 6.32705 20.2945 6.36405 20.2945C6.67856 20.2575 6.95605 20.498 6.97455 20.794C7.01155 21.1085 6.78955 21.386 6.47505 21.4045C6.43805 21.4045 6.27155 21.423 5.97555 21.423H5.99405Z" fill="white"/>
<path d="M5.0876 28.527C5.0876 28.527 4.9396 28.527 4.8656 28.49C4.5696 28.379 4.4401 28.046 4.5511 27.75L6.4381 23.199C6.5491 22.9215 6.8821 22.7735 7.1781 22.8845C7.4741 22.9955 7.6036 23.3285 7.4926 23.6245L5.6056 28.1755C5.5131 28.3975 5.3096 28.527 5.0876 28.527Z" fill="white"/>
<path d="M23.0327 28.527C23.0327 28.527 22.8847 28.527 22.8107 28.49C22.5147 28.379 22.3852 28.046 22.4962 27.75L24.3832 23.199C24.4942 22.9215 24.8272 22.7735 25.1232 22.8845C25.4192 22.9955 25.5487 23.3285 25.4377 23.6245L23.5507 28.1755C23.4582 28.3975 23.2547 28.527 23.0327 28.527Z" fill="white"/>
<path d="M7.21505 34.817C7.21505 34.817 7.06704 34.817 6.99304 34.78C6.69704 34.669 6.56754 34.336 6.67854 34.04L13.061 18.574C13.172 18.2965 13.505 18.1485 13.801 18.2595C14.097 18.3705 14.2265 18.7035 14.1155 18.9995L7.73304 34.4655C7.64054 34.6875 7.43705 34.817 7.21505 34.817Z" fill="white"/>
<path d="M12.8759 32.5415C12.8759 32.5415 12.7279 32.5415 12.6539 32.5045C12.3579 32.3935 12.2284 32.0605 12.3394 31.7645L15.8729 23.199C15.9839 22.9215 16.3169 22.7735 16.6129 22.8845C16.9089 22.9955 17.0384 23.3285 16.9274 23.6245L13.3939 32.19C13.3014 32.412 13.0979 32.5415 12.8759 32.5415Z" fill="white"/>
<path d="M16.4096 35.409C16.4096 35.409 16.2616 35.409 16.1876 35.372C15.8916 35.261 15.7621 34.928 15.8731 34.632L22.4961 18.5555C22.6071 18.278 22.9401 18.13 23.2361 18.241C23.5321 18.352 23.6616 18.685 23.5506 18.981L16.9276 35.0575C16.8351 35.2795 16.6316 35.409 16.4096 35.409Z" fill="white"/>
</g>
<defs>
<clipPath id="clip0_21_104">
<rect width="37" height="37" fill="white"/>
</clipPath>
</defs>
</svg>
