<svg width="37" height="37" viewBox="0 0 37 37" fill="none" xmlns="http://www.w3.org/2000/svg">
<path d="M18.5 26.011C14.356 26.011 10.989 22.644 10.989 18.5C10.989 14.356 14.356 10.989 18.5 10.989C22.644 10.989 26.011 14.356 26.011 18.5C26.011 22.644 22.644 26.011 18.5 26.011ZM18.5 12.432C15.1515 12.432 12.432 15.1515 12.432 18.5C12.432 21.8485 15.1515 24.568 18.5 24.568C21.8485 24.568 24.568 21.8485 24.568 18.5C24.568 15.1515 21.8485 12.432 18.5 12.432Z" fill="white"/>
<path d="M18.4998 6.734C18.0928 6.734 17.7783 6.401 17.7783 6.0125V0.7215C17.7783 0.3145 18.1113 0 18.4998 0C18.8883 0 19.2213 0.333 19.2213 0.7215V6.0125C19.2213 6.4195 18.8883 6.734 18.4998 6.734Z" fill="white"/>
<path d="M9.67553 10.397C9.49053 10.397 9.30553 10.323 9.15753 10.1935L5.42053 6.45652C5.14303 6.17902 5.14303 5.71652 5.42053 5.43902C5.69803 5.16152 6.16053 5.16152 6.43803 5.43902L10.175 9.17602C10.4525 9.45352 10.4525 9.91602 10.175 10.1935C10.027 10.3415 9.84203 10.397 9.65703 10.397H9.67553Z" fill="white"/>
<path d="M6.0125 19.2215H0.7215C0.3145 19.2215 0 18.8885 0 18.5C0 18.1115 0.333 17.7785 0.7215 17.7785H6.0125C6.4195 17.7785 6.734 18.1115 6.734 18.5C6.734 18.8885 6.401 19.2215 6.0125 19.2215Z" fill="white"/>
<path d="M5.93853 31.8015C5.75353 31.8015 5.56853 31.7275 5.42053 31.598C5.14303 31.3205 5.14303 30.858 5.42053 30.5805L9.15753 26.8435C9.43503 26.566 9.89753 26.566 10.175 26.8435C10.4525 27.121 10.4525 27.5835 10.175 27.861L6.43803 31.598C6.29003 31.746 6.10503 31.8015 5.92003 31.8015H5.93853Z" fill="white"/>
<path d="M18.4998 37C18.0928 37 17.7783 36.667 17.7783 36.2785V30.9875C17.7783 30.5805 18.1113 30.266 18.4998 30.266C18.8883 30.266 19.2213 30.599 19.2213 30.9875V36.2785C19.2213 36.6855 18.8883 37 18.4998 37Z" fill="white"/>
<path d="M31.0615 31.8015C30.8765 31.8015 30.6915 31.7275 30.5435 31.598L26.8065 27.861C26.529 27.5835 26.529 27.121 26.8065 26.8435C27.084 26.566 27.5465 26.566 27.824 26.8435L31.561 30.5805C31.8385 30.858 31.8385 31.3205 31.561 31.598C31.413 31.746 31.228 31.8015 31.043 31.8015H31.0615Z" fill="white"/>
<path d="M36.2786 19.2215H30.9876C30.5806 19.2215 30.2661 18.8885 30.2661 18.5C30.2661 18.1115 30.5991 17.7785 30.9876 17.7785H36.2786C36.6856 17.7785 37.0001 18.1115 37.0001 18.5C37.0001 18.8885 36.6671 19.2215 36.2786 19.2215Z" fill="white"/>
<path d="M27.3245 10.397C27.1395 10.397 26.9545 10.323 26.8065 10.1935C26.529 9.91602 26.529 9.45352 26.8065 9.17602L30.5435 5.43902C30.821 5.16152 31.2835 5.16152 31.561 5.43902C31.8385 5.71652 31.8385 6.17902 31.561 6.45652L27.824 10.1935C27.676 10.3415 27.491 10.397 27.306 10.397H27.3245Z" fill="white"/>
</svg>
