<svg width="235" height="90" viewBox="0 0 235 90" fill="none" xmlns="http://www.w3.org/2000/svg">
<g clip-path="url(#clip0_871_228)">
<path d="M98.0522 50.9625H91.2484V36.27H76.3203V31.4325H98.0522V50.9625Z" fill="white"/>
<path d="M96.7876 61.245C96.7876 58.725 98.8242 56.6775 101.331 56.6775C103.838 56.6775 105.874 58.725 105.874 61.245C105.874 63.765 103.838 65.8125 101.331 65.8125C98.8242 65.8125 96.7876 63.765 96.7876 61.245ZM101.331 72C107.239 72 112.029 67.185 112.029 61.245C112.029 55.305 107.239 50.49 101.331 50.49C95.4223 50.49 90.6328 55.305 90.6328 61.245C90.6328 67.185 95.4223 72 101.331 72Z" fill="white"/>
<path d="M146.248 39.8362L155.704 54.7537H163.19L146.259 29.025L128.902 54.6525H136.389L146.248 39.8362Z" fill="white"/>
<path d="M102.694 29.7225V30.735H102.94C103.858 30.735 104.608 31.4888 104.608 32.4113V32.3438V50.9738H111.412V39.2288H118.316V34.155H111.412V29.7225H102.672H102.694Z" fill="white"/>
<path d="M163.157 39.2175H156.23V34.155H163.157V32.3438V32.4113C163.157 31.4888 162.419 30.735 161.49 30.735H161.255L161.244 29.7338H169.984V69.6825H163.157V39.2288V39.2175Z" fill="white"/>
<path d="M225.669 31.4325V48.3525H218.641L218.652 36.2812L195.32 36.27V31.4325H225.669Z" fill="white"/>
<path d="M216.403 55.0575L216.414 69.6712H209.386V55.0575H191.09V50.1525H231.465V55.0575H216.403Z" fill="white"/>
<path d="M36.5734 18.3038C36.5734 18.5175 36.372 18.495 36.2489 18.5625C36.3049 18.5513 36.3273 18.585 36.2937 18.6075C36.2154 18.6413 36.0923 18.585 36.0475 18.675C36.0139 18.7538 35.9804 18.8325 35.9244 18.8663C35.7006 18.9788 35.5215 19.1363 35.3313 19.2825C35.1299 19.4288 34.9732 19.6538 34.8501 19.89C34.8501 19.9125 34.8949 19.9575 34.8837 19.98C34.8277 20.1038 34.6375 20.1038 34.6039 20.205C34.5592 20.3513 34.4249 20.3625 34.3801 20.4638C34.3577 20.5088 34.4025 20.5875 34.4025 20.6213C34.4025 20.8463 34.0892 20.835 33.9661 21.0038C33.9101 21.0713 34.0332 21.0938 34.0556 21.15C33.8765 21.1838 33.8206 21.3638 33.7087 21.4763C33.6639 21.5213 33.7199 21.6563 33.6751 21.7125C33.3842 22.095 33.2163 22.455 33.2387 22.9388C33.2387 23.0963 33.0261 23.1975 32.8582 23.31C32.7687 23.3663 32.7687 23.49 32.8134 23.5575C32.9477 23.7488 33.0149 23.94 32.9365 24.1425C32.8806 24.2888 32.7239 24.3338 32.5561 24.4463C32.4889 24.4913 32.3882 24.6488 32.433 24.7838C32.5113 25.0088 32.8023 25.0875 32.8582 25.2675C32.9701 25.5825 32.8023 25.9988 32.9365 26.28C33.2387 26.8988 33.4401 27.5513 33.4289 28.2488C33.4289 28.3163 33.5296 28.395 33.6192 28.395C33.9549 28.4063 34.1787 28.845 34.5592 28.6088C34.4473 28.5975 34.492 28.6763 34.5144 28.71C34.6599 28.9575 34.7942 29.205 35.0068 29.3625C35.3425 29.6213 35.7677 29.7788 35.9915 30.1388C36.2825 30.6 36.9315 30.735 37.4575 30.915C37.9163 31.0725 38.4646 30.87 38.9458 31.0163C39.1584 31.0838 39.3487 31.32 39.5949 31.365C39.9642 31.4213 40.3223 31.3875 40.6915 31.365C41.0161 31.3425 41.2734 31.1063 41.6315 31.095C41.833 31.095 42.0008 30.8813 42.2135 30.825C42.5044 30.7463 42.8625 30.9375 43.0639 30.8475C43.5339 30.6225 43.9368 30.06 44.1942 29.5763C44.362 29.2725 44.8544 29.25 45.0558 28.9013C45.1901 28.6763 45.1565 28.3725 45.2684 28.1363C45.4027 27.8438 45.7832 27.675 45.8839 27.3713C46.0854 26.73 46.2756 26.1338 46.4658 25.4813C46.533 25.2675 46.6113 24.9188 46.4658 24.6713C46.2532 24.3113 46.477 23.7938 46.3763 23.355C46.2868 22.995 45.9399 22.77 45.8504 22.3988C45.7608 22.0275 45.9846 21.6563 45.8615 21.3075C45.7384 20.9588 45.6601 20.5763 45.358 20.3063C45.2908 20.25 45.2013 20.2275 45.1006 20.25C45.123 20.0475 44.9327 19.9575 44.832 19.9125C44.5746 19.8113 44.4963 19.53 44.2949 19.3838C43.948 19.1363 43.5004 19.2038 43.1087 18.99C42.9408 18.9 43.008 18.6525 42.8401 18.5738C42.5604 18.45 42.2918 18.2813 42.0344 18.1238C41.5532 17.8313 40.9825 17.8875 40.4342 17.7975C39.8523 17.7075 39.2927 17.865 38.7108 17.8088C38.543 17.7975 38.4311 17.595 38.2408 17.6288C37.8715 17.6963 37.5358 17.775 37.2337 18.0225C37.0434 18.18 36.7637 18.0225 36.5623 18.1913C36.5846 18.2138 36.607 18.225 36.607 18.2475C36.607 18.27 36.5623 18.2813 36.5623 18.3038H36.5734Z" fill="#E60012"/>
<path d="M43.4089 35.4037C29.9803 40.86 20.5691 52.0312 16.8203 65.0138H28.3801C29.4656 54 34.5236 43.335 43.4089 35.4037Z" fill="#004098"/>
<path d="M43.4091 35.4037C29.9918 38.8125 19.5063 47.8125 13.8215 59.3775H3.50391C11.1918 45.1575 26.1758 35.4037 43.4091 35.4037Z" fill="#004098"/>
<path d="M49.7988 30.3975C40.0967 38.7675 33.9531 51.165 33.9531 65.025H45.3226C42.0886 52.9875 43.9798 40.59 49.7988 30.3975Z" fill="#004098"/>
<path d="M49.7969 30.3975C46.4285 39.51 45.9585 49.7363 48.8233 59.3775H59.1857C52.8631 50.85 49.6961 40.6688 49.7969 30.3975Z" fill="#004098"/>
<path d="M60.922 76.32C52.4508 71.0888 42.4689 68.175 31.782 68.175C21.0951 68.175 11.5273 71.2125 3.16797 76.32H60.922Z" fill="#008842"/>
</g>
<defs>
<clipPath id="clip0_871_228">
<rect width="235" height="90" fill="white"/>
</clipPath>
</defs>
</svg>
