<svg width="400" height="277" viewBox="0 0 400 277" fill="none" xmlns="http://www.w3.org/2000/svg">
<path d="M114.487 89.2679C109.926 103.334 94.8388 122.329 83.2364 129.89C79.4287 133.349 72.5658 133.45 74.1068 130.21C76.4452 124.962 82.0628 116.203 86.9456 110.583C95.3674 99.9423 105.241 90.8036 115.956 83.1839C115.669 85.2766 115.212 87.3271 114.487 89.2679ZM73.9008 121.19C76.6244 115.047 79.6796 109.79 81.0862 107.84C87.6803 98.3812 94.803 90.7868 103.081 82.7705C123.034 66.3918 112.578 76.9396 108.287 80.8043C103.44 85.1585 98.7362 89.7911 94.1938 94.7696C87.8505 102.212 78.8195 112.414 71.5624 128.016C70.6575 130.058 72.0551 125.384 73.9008 121.19ZM141.383 24.2429C140.908 24.4285 140.72 25.3483 140.272 26.3103C139.089 28.4114 139.591 26.2596 137.754 19.3825C137.1 16.9269 135.953 11.9231 134.359 10.151C133.346 8.40433 127.209 8.60685 124.88 6.05007C122.29 2.66634 119.952 0.944941 117.443 0.312073C108.224 8.69123 102.069 23.0193 97.4639 44.444C107.391 47.2033 111.611 58.0211 113.17 61.9787C93.038 79.3192 78.031 98.3727 73.7933 107.03C71.0427 111.773 68.5072 116.473 65.9269 122.945C64.7712 125.831 63.3287 130.033 62.4686 134.952C61.492 140.488 62.4328 145.956 64.153 148.074C70.55 153.626 76.2302 149.441 83.0035 146.344C87.6803 143.669 91.8643 141.619 95.7348 137.492C96.0931 136.691 98.0642 134.556 100.062 132.21C110.787 122.008 130.381 102.44 138.14 71.362C142.583 57.8946 143.049 40.7059 143.049 40.7059C144.447 31.5842 142.691 23.3147 141.383 24.2429Z" fill="#F7931D"/>
<path d="M162.491 39.4824C176.154 33.3984 189.244 29.4577 203.677 26.1584C210.863 24.8758 217.815 22.8422 229.328 22.6565C232.894 22.6059 236.621 23.0616 234.157 23.1459C209.205 24.0066 181.601 32.3689 157.608 43.3808C143.766 49.6082 159.534 40.554 162.491 39.4824ZM287.546 44.3259C280.343 35.4826 268.489 32.1664 249.988 30.4703C219.67 28.5295 180.32 37.6681 148.926 52.6629C138.578 57.2448 149.634 49.8867 153.541 48.0218C184.997 32.9765 225.377 21.6946 258.267 25.0699C270.227 26.1415 278.524 31.1285 277.422 30.1159C278.157 30.4788 274.662 24.4117 269.645 21.6946C255.068 13.3829 214.957 8.26091 161.057 31.9301C155.736 34.1241 148.631 37.5922 143.049 40.7059C143.049 40.7059 127.487 48.5197 113.17 61.9787C113.17 61.9787 116.762 70.7376 115.956 83.1839C115.956 83.1839 126.179 75.4292 138.104 70.0794C185.642 48.756 250.678 38.7904 268.651 70.2313C277.037 86.517 260.193 113.916 237.257 135.754C231.389 140.53 223.504 147.306 230.385 143.306C244.523 135.104 260.946 119.586 276.159 94.5334C277.494 92.3563 276.786 95.6135 275.227 98.3475C270.093 107.351 263.508 117.477 253.339 127.856C251.583 129.653 254.092 128.008 256.977 125.308C291.327 93.1326 300.671 59.2278 287.546 44.3259Z" fill="#024EA2"/>
<path d="M11.8928 89.2848C6.75912 102.988 2.70948 115.511 0.595066 131.223C-1.73437 148.563 3.4979 152.15 3.919 161.887C4.39384 163.845 4.24153 165.583 4.79702 167.33C11.5524 192.155 32.5084 196.012 32.804 196.948C42.3368 198.619 29.8474 187.286 33.8164 180.662C36.4684 174.941 22.3395 165.263 24.5077 156.883C25.6724 150.766 15.2078 146.867 16.5338 127.468C18.4959 120.43 18.1375 106.153 22.1065 98.3053C22.1065 98.3053 16.4532 94.4912 11.8928 89.2848Z" fill="#EF4023"/>
<path d="M99.2378 4.25278C81.5788 13.6023 78.9537 5.67041 64.332 23.146C63.8482 23.5004 61.8413 25.188 59.3417 27.3313C59.3417 27.3313 57.5229 35.643 64.2693 53.2029C76.3018 44.6044 91.6313 42.9758 97.4638 44.4441C102.069 23.0194 108.224 8.69129 117.443 0.312128C112.677 -0.928292 107.445 1.7635 99.2378 4.25278Z" fill="#59AA46"/>
<path d="M59.3416 27.3313C53.7778 32.0989 45.9832 38.9001 46.0011 39.1786C34.0672 52.7304 21.8556 67.3876 15.5034 79.7412C14.3476 82.7958 13.1202 85.9939 11.8927 89.2848C16.4531 94.4912 22.1064 98.3053 22.1064 98.3053C23.9252 94.6853 25.9142 91.099 28.0286 87.7237C32.0155 80.9731 43.0803 72.4674 47.0314 68.2989C48.5635 66.6113 50.1045 64.9658 51.6634 63.5819C55.7399 59.7932 59.9688 56.2744 64.2693 53.2029C57.5229 35.643 59.3416 27.3313 59.3416 27.3313Z" fill="#231F20"/>
<path d="M152.08 199.142C150.683 196.391 147.816 196.087 145.54 194.374C143.793 193.067 142.485 191.37 141.096 189.708C140.057 188.476 138.991 187.27 137.682 186.257C136.276 184.941 132.737 185.084 133.454 182.299C133.57 181.827 134.753 181.43 135.156 181.295C137.19 179.937 137.674 176.899 137.915 176.57C139.645 174.148 141.114 171.482 143.569 169.617C146.104 167.693 150.064 167.355 151.131 164.073C152.654 159.255 149.912 149.171 143.013 151.559C140.37 152.462 137.924 154.614 135.281 155.711C132.71 156.774 130.022 157.592 127.263 158.082C126.34 158.25 123.088 158.529 120.973 158.63C122.631 157.137 123.213 154.723 124.557 151.947C126.564 147.795 119.817 144.26 116.933 142.041C113.949 139.737 110.204 138.64 107.633 135.779C105.438 133.349 104.811 129.83 101.424 128.438C95.1075 125.848 93.8801 127.51 90.2694 135.028C88.4149 138.885 91.8015 143.897 93.5127 147.222C94.6506 149.424 99.4259 153.238 101.092 153.052C104.38 152.538 106.405 157.061 108.251 160.259C101.728 160.908 92.6168 160.849 91.4162 161.769C91.2281 161.913 89.0062 164.014 88.155 163.887C86.614 163.659 82.5017 164.571 80.8531 164.41C77.4307 164.09 71.7235 159.812 68.8207 162.343C68.4175 162.993 67.4051 170.233 70.4782 172.654C73.4527 172.747 73.3721 187.109 78.1384 185.675L104.506 182.738C107.445 182.637 103.081 188.24 101.164 189.506C92.5362 193.961 91.4969 207.403 81.2026 213.335C79.2852 214.449 77.3859 218.592 75.1908 220.229C72.1805 222.432 68.7132 225.63 65.0488 225.452C62.4327 225.334 61.7338 221.579 60.5333 226.457C59.5477 230.456 67.9337 236.228 70.2363 239.975C72.0998 242.979 78.4699 243.223 81.6505 242.228C84.7236 241.24 85.2791 238.253 87.9042 236.76C95.3494 232.574 101.809 226.701 107.158 220.322C109.46 217.588 110.356 214.027 112.489 211.192C114.263 208.846 113.071 209.859 114.702 207.808C116.153 205.977 123.912 199.353 124.853 197.108C125.175 196.324 125.596 196.796 125.677 197.049C127.155 201.311 136.58 206.23 135.326 211.023C135.505 216.052 145.441 213.445 148.756 212.669C152.555 212.323 152.241 204.154 152.08 199.142Z" fill="#024EA2"/>
<path d="M293.549 144.775C292.528 145.197 289.92 146.201 286.041 146.201C281.964 146.201 278.936 145.121 276.929 142.952C274.922 140.783 273.919 138.016 273.919 134.666C273.919 131.282 274.913 128.523 276.92 126.362C278.918 124.202 282.305 122.996 286.579 122.996C289.114 122.996 290.825 123.392 292.734 123.949V127.189C292.124 126.81 288.809 126.135 286.722 126.135C284.052 126.135 282 127.172 280.791 128.801C279.581 130.43 279.106 132.202 279.106 134.59C279.106 137.104 279.787 139.138 281.149 140.699C282.52 142.252 284.545 143.028 287.25 143.028C289.508 143.028 291.228 142.471 293.549 141.382" fill="white"/>
<path d="M296.936 145.652V123.671H301.774V132.607H311.495V123.671H316.324V145.652H311.495V135.619H301.774V145.652" fill="white"/>
<path d="M326.457 136.885H333.714L330.076 128.101L326.457 136.885ZM319.28 145.652L328.356 123.671H333.23L342.333 145.652H337.333L334.905 139.788H325.256L322.837 145.652" fill="white"/>
<path d="M349.912 133.645H351.032C353.012 133.645 354.383 133.24 355.162 132.413C355.933 131.594 356.327 130.666 356.327 129.628C356.327 128.734 356.014 128.008 355.395 127.476C354.768 126.945 353.514 126.683 351.606 126.683H349.912V133.645ZM345.325 145.652V123.671H354.052C355.834 123.671 357.196 123.873 358.128 124.303C359.069 124.725 359.803 125.367 360.341 126.219C360.879 127.071 361.147 128.042 361.147 129.122C361.147 130.404 360.762 131.619 359.974 132.767C359.185 133.906 358.083 134.784 356.641 135.391L364.274 145.652H358.352L352.537 136.665H349.912V145.652" fill="white"/>
<path d="M367.302 145.652V123.671H373.762L379.371 139.18L385.194 123.671H390.812V145.652H386.341V129.046L380.625 144.226H376.728L371.137 128.826V145.652" fill="white"/>
<path d="M274.645 173.861L274.6 170.57C275.863 171.043 277.171 171.279 278.524 171.279C279.106 171.279 279.599 171.195 280.038 170.984C280.468 170.79 280.818 170.469 281.068 170.03C281.337 169.583 281.472 168.663 281.472 167.271V151.576H286.292V166.79C286.292 168.849 286.05 170.351 285.539 171.288C285.046 172.224 284.258 172.984 283.174 173.557C282.09 174.123 280.638 174.401 278.847 174.401C277.521 174.401 276.123 174.224 274.645 173.861Z" fill="white"/>
<path d="M291.345 173.557H296.165V151.576H291.345V173.557Z" fill="white"/>
<path d="M301.738 173.557V151.576H306.038L315.956 166.596V151.576H319.863V173.557H315.499L305.635 158.537V173.557" fill="white"/>
<path d="M322.685 173.861L322.631 170.57C323.894 171.043 325.211 171.279 326.573 171.279C327.147 171.279 327.639 171.195 328.069 170.984C328.499 170.79 328.858 170.469 329.109 170.03C329.368 169.583 329.494 168.663 329.494 167.271V151.576H334.332V166.79C334.332 168.849 334.081 170.351 333.579 171.288C333.087 172.224 332.289 172.984 331.205 173.557C330.121 174.123 328.688 174.401 326.887 174.401C325.561 174.401 324.145 174.224 322.685 173.861Z" fill="white"/>
<path d="M338.435 151.576H343.264V165.06C343.264 167.499 343.703 169.11 344.581 169.904C345.46 170.688 346.597 171.093 348.004 171.093C349.375 171.093 350.477 170.688 351.292 169.912C352.107 169.136 352.511 167.617 352.511 165.389V151.576H356.766V165.077C356.766 167.617 356.426 169.44 355.754 170.553C355.073 171.65 354.087 172.528 352.806 173.152C351.525 173.785 349.894 174.106 347.932 174.106C345.997 174.106 344.331 173.811 342.942 173.22C341.553 172.638 340.46 171.752 339.654 170.596C338.83 169.431 338.435 167.575 338.435 165.035" fill="white"/>
<path d="M382.963 187.776C384.128 192.375 376.083 199.809 369.838 204.213C375.034 205.133 385.087 205.488 387.273 209.428C387.479 210.306 386.789 211.918 385.624 213.622C383.259 217.09 380.043 221.951 376.002 219.183C374.389 217.698 372.23 216.55 370.483 215.917C367.383 214.795 364.866 214.812 363.808 213.774C362.939 213.082 364.364 209.276 359.606 213.31C357.913 214.348 356.605 214.356 355.18 215.225C348.165 219.461 342.333 228.246 335.828 229.03C333.893 229.267 332.038 228.153 330.336 226.904C329.386 226.06 325.417 222.027 326.869 220.66C327.182 220.086 331.348 220.955 332.845 218.786C333.884 217.748 339.107 215.436 340.917 213.985C344.761 210.939 347.296 208.475 349.975 206.964C349.975 206.964 358.585 200.129 355.772 200.096C349.527 198.729 337.315 203.952 333.92 197.699C331.017 191.219 341.249 191.278 344.071 191.05C346.284 191.328 357.349 190.198 363.441 186.645C365.797 185.118 369.623 185.076 372.83 184.249C377.301 183.979 381.844 184.654 382.963 187.776Z" fill="white"/>
<path d="M394.96 225.512C386.601 222.052 378.152 226.339 370.062 229.613C369.211 229.959 368.082 230.65 367.401 230.296C364.507 229.148 362.644 233.427 359.633 231.57C358.702 231.013 357.187 231.79 355.987 231.849C349.473 232.212 343.363 231.866 336.984 234.127C330.506 236.979 318.59 236.929 316.118 238.667C314.586 239.679 315.016 242.591 317.139 245.038C317.578 245.401 318.295 245.78 318.859 246.135C321.242 247.611 323.357 249.847 326.394 249.215C328.974 248.582 332.415 246.388 334.905 245.721C343.533 243.434 350.925 242.405 359.687 239.789C359.373 240.92 359.141 241.949 358.979 242.675C357.841 247.814 358.917 252.556 357.707 257.67C356.972 260.859 357.089 267.087 354.222 269.922C352.985 272.15 351.4 274.116 354.652 275.306C355.79 275.728 356.05 275.542 357.367 275.517C359.132 275.508 362.294 276.377 364.292 275.744C368.467 274.411 368.602 270.589 369.148 267.466C369.739 264.108 370.187 260.421 370.277 257.163C370.367 253.839 369.82 250.666 369.963 247.265C370.089 244.152 373.637 239.013 373.493 235.705C376.065 235.241 378.591 235.097 380.813 235.637C384.442 236.507 385.714 237.199 389.746 237.899C394.333 238.717 399.279 238.667 399.888 234.541C400.381 231.191 399.341 227.098 394.96 225.512Z" fill="white"/>
<path d="M279.724 247.772C277.341 250.117 278.676 253.29 279.259 255.906C281.248 259.332 282.547 263.458 288.012 263.754C296.362 264.235 314.8 255.99 312.928 265.197C311.817 268.175 304.058 272.082 300.394 273.145C290.771 274.318 283.944 271.745 276.105 270.192C275.083 269.998 272.62 269.686 273.094 269.188C272.888 268.175 269.547 269.12 268.418 268.302C266.294 265.753 261.68 262.049 261.967 258.775C261.555 256.91 261.976 254.117 266.482 253.948C267.038 254.193 267.298 252.775 266.59 252.438C266.563 252.413 265.981 252.05 269.287 249.814C270.38 249.071 271.428 248.278 272.557 247.628C274.806 246.345 274.582 246.624 276.929 245.544C278.336 244.877 278.515 244.86 279.303 244.278C281.265 242.852 281.409 246.616 279.724 247.772Z" fill="white"/>
<path d="M265.784 212.002C264.682 213.47 256.842 221.562 265.264 217.487C267.405 216.727 269.278 219.444 270.496 220.398C272.19 221.74 273.292 221.512 273.811 221.9C274.824 222.693 275.657 223.588 277.995 224.845C283.031 225.832 283.022 227.731 281.257 230.752C279.787 232.254 278.551 234.414 274.6 234.102C270.711 232.963 269.197 232.338 268.588 232.102C267.047 231.511 263.92 227.005 262.46 226.457C261.062 225.925 263.239 226.701 261.797 226.229C260.56 225.841 259.673 224.794 257.425 226.583C255.624 228.018 258.5 228.6 256.842 230.271C254.8 232.347 251.413 238.346 249.092 239.924C247.498 241.021 246.862 241.907 245.016 242.481C243.645 242.886 236.952 241.494 235.877 241.401C233.629 241.198 226.676 235.958 229.875 233.469C233.055 230.988 236.836 228.347 239.855 225.925C241.826 224.33 239.694 225.166 241.495 223.495C242.982 222.136 244.541 220.406 245.822 219.023C248.188 216.44 249.442 214.145 251.198 211.572C251.798 209.631 260.112 203.581 257.98 202.07C256.224 200.804 250.535 202.652 250.535 202.652C247.372 203.935 237.248 204.796 237.248 201.547C236.764 199.117 239.595 190.425 242.543 193.674C242.875 194.079 243.842 193.851 244.299 193.809C254.45 192.889 265.443 185.683 274.044 191.683L275.997 193.91C278.461 200.138 269.574 207.487 265.784 212.002Z" fill="white"/>
<path d="M290.189 235.207C294.158 231.013 292.563 223.925 293.88 219.866C296.622 211.42 298.468 201.977 298.503 192.721C298.53 187.236 302.795 184.848 309.066 186.316C313.573 188.29 316.592 188.864 314.756 193.05C313.053 196.94 310.733 201.066 310.366 205.024C309.971 209.099 310.509 212.888 310.195 216.879C309.882 220.803 309.049 225.284 308.045 229.385C307.095 233.233 305.734 237.165 299.973 239.907C297.088 240.953 293.585 241.443 290.995 241.688C289.051 241.873 287.985 243.08 286.534 242.337C284.697 241.384 288.155 238.194 290.189 235.207Z" fill="white"/>
<path d="M235.788 173.346C232.912 171.11 224.696 168.655 220.897 169.591C217.627 170.41 215.925 173.962 212.431 174.3C210.54 174.477 204.439 174.494 206.034 172.663C211.096 170.376 211.15 161.457 212.484 157.162C213.345 154.386 214.993 154.006 216.212 151.981C217.878 149.247 218.487 144.918 219.643 141.965C220.906 138.708 221.56 138.041 216.884 135.045C213.434 132.851 196.841 130.328 192.505 132.936C189.728 134.607 189.02 139.653 187.972 142.403C183.662 153.593 179.218 161.389 173 172.528C171.262 175.65 169.587 178.798 168.01 182.013C165.528 187.042 161.837 191.767 160.601 197.252C160.395 198.205 160.099 205.1 160.305 209.555C160.511 211.243 154.222 218.28 153.738 218.71C152.376 219.883 150.951 220.601 149.993 222.187C148.264 225.149 148.479 226.701 146.194 229.587C144.008 232.347 142.037 234.988 140.388 238.093C137.27 243.949 133.203 248.776 130.085 254.615C124.647 264.783 129.324 269.644 131.859 273.609C134.009 276.968 148.998 276.284 150.208 274.723C151.14 273.517 151.498 271.93 152.519 270.757C155.135 267.77 155.619 265.374 157.698 261.931C159.436 259.062 160.027 253.645 162.554 251.358C165.098 249.063 168.136 245.687 170.922 243.654C172.606 242.413 179.478 242.937 181.422 242.65C183.295 242.363 186.018 242.827 187.085 244.514C187.694 245.46 183.474 251.991 182.945 253.02C178.528 261.492 175.428 278.023 188.742 273.82C192.442 272.648 192.962 271.221 195.506 268.985C199.207 265.728 207.225 266.783 209.134 261.939C209.841 260.125 207.924 259.931 209.779 258.362C210.979 257.357 215.217 253.316 216.4 252.446C217.457 249.721 214.5 251.577 212.897 251.451C210.997 251.29 208.757 251.383 210.675 250.472C211.571 250.717 212.484 250.067 213.049 249.586C213.38 249.096 207.87 248.894 204.654 250.987C193.688 258.108 201.438 244.81 203.427 241.991C206.742 237.536 203.588 235.519 200.156 231.891C194.942 226.372 186.968 227.056 180.087 230.482C178.878 231.081 178.923 233.874 176.844 233.207C173.117 231.967 174.156 229.764 175.052 225.883C175.581 223.613 166.218 221.157 165.045 220.685C162.348 219.639 159.812 216.474 160.296 214.998C160.368 214.761 160.601 213.546 160.923 213.335C161.291 212.728 171.54 212.213 171.719 212.213C174.757 212.213 188.581 205.344 189.737 203.327C192.335 198.796 196.125 190.856 198.947 186.443C199.708 185.354 203.292 184.62 204.555 184.333C208.22 183.489 209.456 186.586 213.094 186.468C218.532 186.282 234.112 193.834 236.218 178.544C236.603 175.76 237.544 174.705 235.788 173.346Z" fill="#024EA2"/>
</svg>
