<svg width="215" height="64" viewBox="0 0 215 64" fill="none" xmlns="http://www.w3.org/2000/svg">
<g id="&#235;&#161;&#156;&#234;&#179;&#160;" clip-path="url(#clip0_1298_185)">
<g id="Group">
<path id="Vector" d="M173.133 18.6655H167.284V25.9932H162.04L162.031 29.7982L167.284 29.8067L167.293 41.2387H173.124L173.133 18.6655Z" fill="white"/>
<path id="Vector_2" d="M173.146 46.8479H149.133V39.3491H143.438V46.5742C143.446 48.8401 145.257 50.6613 147.501 50.6955H173.138V46.8479H173.146Z" fill="white"/>
<path id="Vector_3" d="M156.653 23.4025H164.55V19.1444H156.33V16.28H150.745V19.1444H142.695V23.223H150.439C148.68 30.6875 142.729 33.1244 140.57 33.7486L143.027 36.878C148.399 35.5869 151.612 32.2693 153.533 29.2339C155.463 32.2693 158.676 35.5869 164.048 36.878L166.505 33.7486C164.363 33.1329 158.455 30.7474 156.645 23.4025H156.653Z" fill="white"/>
<path id="Vector_4" d="M182.462 18.8709L213.097 18.8623V31.5597H215.001L214.993 35.51L201.111 35.5014L201.103 43.479H195.501L195.484 35.587H181.391V31.5597H207.419V22.8981H182.453L182.462 18.8709Z" fill="white"/>
<path id="Vector_5" d="M186.887 50.6955H213.06V46.7196H188.656V38.2375H182.969V46.6597C183.011 48.8401 184.728 50.5929 186.887 50.7041V50.6955Z" fill="white"/>
<path id="Vector_6" d="M110.299 18.5032C105.165 18.5032 101 25.3863 101 33.8854C101 42.3845 105.165 49.2676 110.299 49.2676C115.434 49.2676 119.59 42.376 119.59 33.8854C119.59 25.3948 115.434 18.5032 110.299 18.5032ZM110.299 45.2318C108.285 45.2318 106.653 40.1529 106.653 33.8854C106.653 27.6179 108.285 22.539 110.299 22.539C112.314 22.539 113.938 27.6179 113.938 33.8854C113.938 40.1529 112.305 45.2318 110.299 45.2318Z" fill="white"/>
<path id="Vector_7" d="M128.383 18.5801H133.747L133.73 50.6955H128.375L128.383 18.5801Z" fill="white"/>
<path id="Vector_8" d="M121.383 50.6955H126.747V18.5886H121.4V50.6955H121.383Z" fill="white"/>
<path id="Vector_9" d="M123.312 24.6167H117.531V28.5926H123.312V24.6167Z" fill="white"/>
<path id="Vector_10" d="M123.312 37.7417H117.531V41.7861H123.312V37.7417Z" fill="white"/>
</g>
<g id="Group_2">
<g id="Group_3">
<path id="Vector_11" d="M18.3366 51.7215C24.8989 59.1945 35.0909 63.9913 46.5409 63.9913C57.9909 63.9913 68.2338 59.1689 74.7876 51.6702C66.4828 53.4059 56.3928 54.3379 46.4389 54.3379C36.4849 54.3379 26.5905 53.423 18.3281 51.7129L18.3366 51.7215Z" fill="#4DAC26"/>
<path id="Vector_12" d="M46.5387 13.6978C56.3566 13.6978 64.5509 19.8627 66.557 28.0967C72.4818 28.8834 77.9135 30.012 82.3592 31.457C82.0362 14.0398 66.1235 0 46.5387 0C26.9538 0 11.0836 14.0056 10.7266 31.3972C15.1808 29.9693 20.621 28.8492 26.5288 28.0711C28.5434 19.8541 36.7377 13.6978 46.5387 13.6978Z" fill="#4DAC26"/>
</g>
<path id="Vector_13" d="M65.7497 28.832L65.8177 28.8491C71.6915 30.3711 75.8226 33.9965 75.8226 38.2204C75.8226 42.4443 71.5554 46.1809 65.5287 47.6686H65.5032C58.2864 49.5583 48.4854 50.7553 36.9164 50.8836C27.6765 50.9862 19.0656 50.3791 11.8828 49.2505C20.4172 51.8583 32.7427 53.4915 46.4453 53.4915C72.21 53.4915 93.1039 47.7114 93.1039 40.5889C93.1039 35.3646 81.8834 30.867 65.7497 28.8406V28.832Z" fill="#0860A8"/>
<path id="Vector_14" d="M17.6213 37.7758C17.3493 34.5608 21.0979 31.3373 27.2777 28.8149C13.0141 30.5678 2.56711 34.2359 0.280512 38.6137V38.6308C0.0935041 39.0071 0 39.3918 0 39.7766C0 44.7188 15.1902 48.6861 33.9335 48.6861C47.8826 48.6861 59.8596 46.4716 65.0789 43.2994C60.6077 44.5819 55.3885 45.4968 49.7782 45.9671C32.5309 47.4121 18.1398 43.7868 17.6213 37.7758Z" fill="#0860A8"/>
<path id="Vector_15" d="M59.3559 31.9957C59.3559 38.323 53.6181 43.4447 46.5373 43.4447C39.4565 43.4447 33.7188 38.3144 33.7188 31.9957C33.7188 25.6769 39.4565 20.5466 46.5373 20.5466C53.6181 20.5466 59.3559 25.6769 59.3559 31.9957Z" fill="#FF4D00"/>
</g>
</g>
<defs>
<clipPath id="clip0_1298_185">
<rect width="215" height="64" fill="white"/>
</clipPath>
</defs>
</svg>
