<svg width="58" height="58" viewBox="0 0 58 58" fill="none" xmlns="http://www.w3.org/2000/svg">
<g clip-path="url(#clip0_982_2)">
<path d="M37.81 11.22C37.32 10.94 36.72 10.93 36.23 11.22L22.11 19.24H9.59C8.71 19.24 8 19.95 8 20.83V38.44C8 39.32 8.71 40.03 9.59 40.03H22.11L36.23 48.05C36.47 48.19 36.74 48.26 37.01 48.26C37.28 48.26 37.56 48.19 37.81 48.04C38.3 47.76 38.6 47.23 38.6 46.67V12.59C38.6 12.03 38.3 11.5 37.81 11.22ZM11.17 22.4H20.94V36.84H11.17V22.4ZM35.42 43.92L24.11 37.49V21.73L35.42 15.3V43.91V43.92Z" fill="white" stroke="white"/>
<path d="M43.1801 25.2C42.5601 24.58 41.5601 24.58 40.9401 25.2C40.3201 25.82 40.3201 26.82 40.9401 27.44C42.1401 28.64 42.1401 30.59 40.9401 31.79C40.3201 32.41 40.3201 33.41 40.9401 34.03C41.2501 34.34 41.6601 34.49 42.0601 34.49C42.4601 34.49 42.8701 34.34 43.1801 34.03C45.6201 31.59 45.6201 27.63 43.1801 25.19V25.2Z" fill="white" stroke="white"/>
<path d="M47.4198 20.96C46.7998 20.34 45.7998 20.34 45.1798 20.96C44.5598 21.58 44.5598 22.58 45.1798 23.2C48.7198 26.74 48.7198 32.49 45.1798 36.03C44.5598 36.65 44.5598 37.65 45.1798 38.27C45.4898 38.58 45.8998 38.73 46.2998 38.73C46.6998 38.73 47.1098 38.58 47.4198 38.27C52.1898 33.49 52.1898 25.73 47.4198 20.95V20.96Z" fill="white" stroke="white"/>
</g>
<line x1="1.93934" y1="56.9393" x2="56.9393" y2="1.93934" stroke="white" stroke-width="3"/>
<defs>
<clipPath id="clip0_982_2">
<rect width="45" height="45" fill="white" transform="translate(7 7)"/>
</clipPath>
</defs>
</svg>
