<svg width="45" height="45" viewBox="0 0 45 45" fill="none" xmlns="http://www.w3.org/2000/svg">
<g clip-path="url(#clip0_982_2)">
<path d="M30.81 4.21999C30.32 3.93999 29.72 3.92999 29.23 4.21999L15.11 12.24H2.59C1.71 12.24 1 12.95 1 13.83V31.44C1 32.32 1.71 33.03 2.59 33.03H15.11L29.23 41.05C29.47 41.19 29.74 41.26 30.01 41.26C30.28 41.26 30.56 41.19 30.81 41.04C31.3 40.76 31.6 40.23 31.6 39.67V5.58999C31.6 5.02999 31.3 4.49999 30.81 4.21999ZM4.17 15.4H13.94V29.84H4.17V15.4ZM28.42 36.92L17.11 30.49V14.73L28.42 8.29999V36.91V36.92Z" fill="white" stroke="white"/>
<path d="M36.1801 18.2C35.5601 17.58 34.5601 17.58 33.9401 18.2C33.3201 18.82 33.3201 19.82 33.9401 20.44C35.1401 21.64 35.1401 23.59 33.9401 24.79C33.3201 25.41 33.3201 26.41 33.9401 27.03C34.2501 27.34 34.6601 27.49 35.0601 27.49C35.4601 27.49 35.8701 27.34 36.1801 27.03C38.6201 24.59 38.6201 20.63 36.1801 18.19V18.2Z" fill="white" stroke="white"/>
<path d="M40.4198 13.96C39.7998 13.34 38.7998 13.34 38.1798 13.96C37.5598 14.58 37.5598 15.58 38.1798 16.2C41.7198 19.74 41.7198 25.49 38.1798 29.03C37.5598 29.65 37.5598 30.65 38.1798 31.27C38.4898 31.58 38.8998 31.73 39.2998 31.73C39.6998 31.73 40.1098 31.58 40.4198 31.27C45.1898 26.49 45.1898 18.73 40.4198 13.95V13.96Z" fill="white" stroke="white"/>
</g>
<defs>
<clipPath id="clip0_982_2">
<rect width="45" height="45" fill="white"/>
</clipPath>
</defs>
</svg>
