<svg width="45" height="45" viewBox="0 0 45 45" fill="none" xmlns="http://www.w3.org/2000/svg">
<g clip-path="url(#clip0_392_120)">
<path d="M30.81 4.22011C30.32 3.94011 29.72 3.93011 29.23 4.22011L15.11 12.2401H2.59C1.71 12.2401 1 12.9501 1 13.8301V31.4401C1 32.3201 1.71 33.0301 2.59 33.0301H15.11L29.23 41.0501C29.47 41.1901 29.74 41.2601 30.01 41.2601C30.28 41.2601 30.56 41.1901 30.81 41.0401C31.3 40.7601 31.6 40.2301 31.6 39.6701V5.59011C31.6 5.03011 31.3 4.50011 30.81 4.22011ZM4.17 15.4001H13.94V29.8401H4.17V15.4001ZM28.42 36.9201L17.11 30.4901V14.7301L28.42 8.30011V36.9101V36.9201Z" fill="white" stroke="white"/>
<path d="M36.1801 18.2001C35.5601 17.5801 34.5601 17.5801 33.9401 18.2001C33.3201 18.8201 33.3201 19.8201 33.9401 20.4401C35.1401 21.6401 35.1401 23.5901 33.9401 24.7901C33.3201 25.4101 33.3201 26.4101 33.9401 27.0301C34.2501 27.3401 34.6601 27.4901 35.0601 27.4901C35.4601 27.4901 35.8701 27.3401 36.1801 27.0301C38.6201 24.5901 38.6201 20.6301 36.1801 18.1901V18.2001Z" fill="white" stroke="white"/>
<path d="M40.4198 13.9601C39.7998 13.3401 38.7998 13.3401 38.1798 13.9601C37.5598 14.5801 37.5598 15.5801 38.1798 16.2001C41.7198 19.7401 41.7198 25.4901 38.1798 29.0301C37.5598 29.6501 37.5598 30.6501 38.1798 31.2701C38.4898 31.5801 38.8998 31.7301 39.2998 31.7301C39.6998 31.7301 40.1098 31.5801 40.4198 31.2701C45.1898 26.4901 45.1898 18.7301 40.4198 13.9501V13.9601Z" fill="white" stroke="white"/>
</g>
<defs>
<clipPath id="clip0_392_120">
<rect width="45" height="45" fill="white"/>
</clipPath>
</defs>
</svg>
