<svg width="40" height="40" viewBox="0 0 40 40" fill="none" xmlns="http://www.w3.org/2000/svg">
<g clip-path="url(#clip0_40_1439)">
<path fill-rule="evenodd" clip-rule="evenodd" d="M4.72156 40H3.00809C2.58924 39.5429 2.11328 39.5429 1.29462 38.6857C0.875773 38.2286 0 36.4952 0 35.6762C0 34.3619 0.894812 33.0476 1.29462 32.6286L13.7458 20L1.29462 7.35238C0.875773 6.93333 0 5.61905 0 4.34286C0 3.48571 0.894812 2.15238 1.29462 1.29524C2.58924 0.438095 3.4079 0.0190476 4.72156 0.0190476C6.03522 0.0190476 6.83484 0.438095 7.72965 1.29524L20.1809 13.4667L32.2513 1.27619C33.07 0.419048 34.3646 0 35.2594 0C36.554 0 37.7915 0.419048 38.6863 1.27619C39.505 2.15238 40 3.46667 40 4.32381C40 5.6 39.524 6.93333 38.6863 7.33333L26.2351 19.9619L38.6863 32.5905C39.505 33.0095 40 34.3238 40 35.6381C40 36.4762 39.524 38.2095 38.6863 38.6476C38.2865 39.5048 37.7915 39.5048 37.3917 39.9619H33.9648C33.07 39.5048 32.6702 39.5048 32.2513 38.6476L20.1999 26.4762L7.74869 38.6476C7.32984 39.5048 6.85388 39.5048 6.45407 39.9619H4.7406L4.72156 40Z" fill="white"/>
</g>
<defs>
<clipPath id="clip0_40_1439">
<rect width="40" height="40" fill="white"/>
</clipPath>
</defs>
</svg>
