<svg width="70" height="69" viewBox="0 0 70 69" fill="none" xmlns="http://www.w3.org/2000/svg">
<g clip-path="url(#clip0_21_397)">
<path d="M58.9401 46.5481H58.8351C58.2401 46.5481 57.7851 46.0581 57.7851 45.4631C57.7851 44.8681 58.2751 44.4131 58.8351 44.4131C58.8351 44.4131 58.7651 44.4131 58.9051 44.4131C59.2901 44.4131 63.2801 44.3431 65.7651 41.8931C67.1651 40.5281 67.8651 38.6381 67.8651 36.2581C67.8651 34.4381 67.3051 33.0031 66.1501 31.8481C63.3851 29.0831 58.1351 29.0481 58.0651 29.0481C57.7501 29.0481 57.4701 28.9081 57.2601 28.6981C57.0501 28.4531 56.9451 28.1731 57.0151 27.8581C57.0151 27.7881 57.7151 21.9081 54.2151 17.9531C52.0101 15.4681 48.6151 14.2081 44.1001 14.2081C39.9351 14.2081 36.6451 14.9781 34.3351 16.5531C33.8451 16.8681 33.1801 16.7631 32.8651 16.2731C32.5501 15.7831 32.6551 15.1181 33.1451 14.8031C35.8051 13.0181 39.4801 12.1081 44.1001 12.1081C49.2801 12.1081 53.2351 13.6131 55.8251 16.5881C58.9751 20.1931 59.2551 24.8831 59.1851 27.0181C61.1101 27.1931 65.0651 27.8231 67.6201 30.3781C69.1601 31.9181 69.9651 33.9131 69.9651 36.2931C69.9651 39.2681 69.0551 41.6831 67.2351 43.4681C64.1901 46.4431 59.6751 46.5831 58.9051 46.5831L58.9401 46.5481Z" fill="#1A7CC8"/>
<path d="M11.34 52.6381C9.66 52.6381 5.985 52.3231 3.255 49.8381C1.085 47.8781 0 45.0081 0 41.3681C0 38.2531 1.05 35.7331 3.08 33.9131C6.615 30.7631 12.145 30.5531 14.665 30.6581C14.595 28.9081 14.84 25.7231 17.115 22.9581C19.74 19.7731 24.185 18.1631 30.38 18.1631C35.56 18.1631 39.515 19.6681 42.105 22.6431C45.255 26.2481 45.535 30.9381 45.465 33.0731C47.39 33.2481 51.345 33.8781 53.9 36.4331C55.44 37.9731 56.245 39.9681 56.245 42.3481C56.245 45.3231 55.335 47.7381 53.515 49.5231C50.26 52.7081 45.325 52.6381 45.08 52.6381H12.215C12.215 52.6381 11.795 52.6381 11.34 52.6381ZM13.86 32.7581C11.41 32.7581 7.14 33.1431 4.515 35.4881C2.94 36.8881 2.135 38.8831 2.135 41.3681C2.135 44.4131 3.01 46.7231 4.69 48.2631C7.56 50.8881 12.005 50.4681 12.075 50.4681C12.075 50.4681 12.145 50.4681 12.18 50.4681H45.15C45.15 50.4681 49.455 50.5381 52.08 47.9481C53.48 46.5831 54.18 44.6931 54.18 42.3131C54.18 40.4931 53.62 39.0581 52.465 37.9031C49.665 35.1381 44.485 35.1031 44.38 35.1031C44.065 35.1031 43.785 34.9631 43.575 34.7531C43.365 34.5081 43.26 34.2281 43.33 33.9131C43.33 33.8431 44.03 27.9631 40.53 24.0081C38.325 21.5231 34.93 20.2631 30.415 20.2631C24.885 20.2631 21 21.6281 18.795 24.2881C16.17 27.4731 16.94 31.5331 16.94 31.5681C17.01 31.8831 16.94 32.2331 16.66 32.4781C16.415 32.7231 16.1 32.8281 15.75 32.8281C15.75 32.8281 14.98 32.7581 13.86 32.7581Z" fill="#1A7CC8"/>
</g>
<defs>
<clipPath id="clip0_21_397">
<rect width="70" height="70" fill="white" transform="translate(0 -1.89191)"/>
</clipPath>
</defs>
</svg>
