<svg width="70" height="70" viewBox="0 0 70 70" fill="none" xmlns="http://www.w3.org/2000/svg">
<g clip-path="url(#clip0_21_446)">
<path d="M16.9049 57.295C16.9049 57.295 16.7999 57.295 16.7649 57.295C14.5949 57.225 12.6699 55.475 12.3899 53.27C12.2149 51.905 12.6699 50.68 13.1949 49.525C13.6849 48.44 15.5749 45.885 15.8549 45.535C16.0999 45.255 16.4499 45.08 16.8349 45.08C17.2199 45.08 17.5699 45.255 17.7799 45.57C17.7799 45.57 18.7949 46.9 19.2849 47.6L19.4249 47.81C20.5449 49.455 21.8399 51.275 21.3849 53.515C20.9999 55.615 19.0399 57.225 16.9049 57.225V57.295ZM16.7999 48.405C16.2399 49.21 15.6099 50.12 15.4349 50.54C15.0849 51.345 14.7349 52.22 14.8399 52.99C14.9449 53.935 15.8899 54.81 16.8699 54.845C17.8149 54.88 18.8299 54.075 19.0049 53.13C19.2499 51.905 18.3399 50.645 17.4299 49.28L17.2899 49.035C17.1499 48.86 17.0099 48.65 16.8349 48.405H16.7999Z" fill="#1A7CC8"/>
<path d="M29.61 70C29.61 70 29.505 70 29.47 70C27.265 69.93 25.375 68.145 25.095 65.975C24.92 64.61 25.375 63.385 25.9 62.23C26.39 61.145 28.28 58.625 28.56 58.24C28.805 57.96 29.155 57.82 29.54 57.785C29.925 57.785 30.275 57.96 30.485 58.275C30.485 58.275 31.5 59.605 31.99 60.305L32.13 60.515C33.25 62.16 34.545 63.98 34.125 66.22C33.74 68.32 31.78 69.93 29.645 69.93L29.61 70ZM28.14 63.245C27.79 64.05 27.44 64.925 27.545 65.695C27.65 66.64 28.595 67.515 29.575 67.55C29.575 67.55 29.61 67.55 29.645 67.55C30.59 67.55 31.535 66.78 31.71 65.835C31.955 64.61 31.045 63.315 30.135 61.985L29.995 61.775C29.855 61.6 29.715 61.39 29.54 61.145C28.98 61.95 28.35 62.86 28.175 63.28L28.14 63.245Z" fill="#1A7CC8"/>
<path d="M42.6649 57.295C42.6649 57.295 42.5599 57.295 42.5249 57.295C40.3199 57.225 38.4299 55.475 38.1499 53.27C37.9749 51.905 38.4299 50.68 38.9549 49.525C39.4449 48.44 41.3349 45.92 41.6149 45.535C41.8599 45.255 42.2099 45.08 42.5949 45.08C42.9799 45.08 43.3299 45.255 43.5399 45.57C43.5399 45.57 44.5549 46.9 45.0449 47.6L45.1849 47.81C46.3049 49.455 47.5999 51.275 47.1449 53.515C46.7599 55.615 44.7999 57.225 42.6649 57.225V57.295ZM41.1949 50.54C40.8449 51.345 40.4949 52.22 40.5999 52.99C40.7049 53.935 41.6499 54.81 42.6299 54.845C42.6299 54.845 42.6649 54.845 42.6999 54.845C43.6449 54.845 44.5899 54.075 44.7649 53.13C45.0099 51.905 44.0999 50.61 43.1899 49.28L43.0499 49.035C42.9099 48.86 42.7699 48.65 42.5949 48.405C42.0349 49.21 41.4049 50.12 41.2299 50.54H41.1949Z" fill="#1A7CC8"/>
<path d="M55.37 70C55.37 70 55.265 70 55.23 70C53.025 69.93 51.135 68.145 50.855 65.975C50.68 64.61 51.135 63.385 51.66 62.23C52.15 61.145 54.04 58.59 54.32 58.24C54.565 57.96 54.915 57.82 55.3 57.785C55.685 57.785 56.035 57.96 56.245 58.275C56.245 58.275 57.26 59.605 57.75 60.305L57.89 60.515C59.01 62.16 60.305 63.98 59.885 66.22C59.5 68.32 57.54 69.93 55.405 69.93L55.37 70ZM55.265 61.11C54.705 61.915 54.075 62.825 53.9 63.245C53.55 64.05 53.2 64.925 53.305 65.695C53.41 66.64 54.355 67.515 55.335 67.55C55.335 67.55 55.37 67.55 55.405 67.55C56.35 67.55 57.295 66.78 57.47 65.835C57.715 64.61 56.805 63.315 55.895 61.985L55.755 61.775C55.615 61.6 55.475 61.39 55.3 61.145L55.265 61.11Z" fill="#1A7CC8"/>
<path d="M16.59 39.795C14.63 39.795 10.43 39.445 7.28 36.575C4.795 34.3 3.5 31.01 3.5 26.775C3.5 23.17 4.69 20.265 7.07 18.165C11.13 14.525 17.535 14.28 20.44 14.385C20.37 12.355 20.65 8.68003 23.275 5.49503C26.285 1.82003 31.43 -0.0349731 38.57 -0.0349731C44.555 -0.0349731 49.105 1.71503 52.115 5.14503C55.755 9.27503 56.07 14.7 56 17.185C58.24 17.36 62.79 18.13 65.73 21.07C67.515 22.855 68.425 25.165 68.425 27.895C68.425 31.325 67.375 34.125 65.275 36.155C61.495 39.83 55.79 39.76 55.545 39.725H17.57C17.57 39.725 17.08 39.76 16.555 39.76L16.59 39.795ZM19.495 16.87C16.66 16.87 11.76 17.29 8.715 20.02C6.895 21.63 5.985 23.94 5.985 26.81C5.985 30.31 6.965 33.005 8.96 34.79C12.32 37.835 17.395 37.345 17.465 37.345C17.5 37.345 17.535 37.345 17.605 37.345H55.65C55.65 37.345 60.62 37.415 63.63 34.44C65.24 32.865 66.045 30.695 66.045 27.93C66.045 25.83 65.38 24.185 64.05 22.855C60.83 19.635 54.81 19.6 54.74 19.6C54.39 19.6 54.04 19.46 53.83 19.18C53.585 18.9 53.48 18.55 53.515 18.2C53.515 18.13 54.32 11.34 50.295 6.75503C47.775 3.88503 43.855 2.45003 38.605 2.45003C32.235 2.45003 27.755 3.99003 25.2 7.07003C22.155 10.745 23.03 15.47 23.03 15.505C23.1 15.89 22.995 16.275 22.715 16.555C22.435 16.835 22.05 16.975 21.665 16.94C21.665 16.94 20.79 16.835 19.495 16.835V16.87Z" fill="#1A7CC8"/>
<path d="M28.595 14.735C27.965 14.735 27.44 14.245 27.37 13.615C27.195 11.83 27.825 9.97504 29.12 8.54004C30.415 7.10504 32.165 6.26504 33.95 6.23004C34.615 6.23004 35.175 6.75504 35.175 7.45504C35.175 8.12004 34.65 8.68004 33.95 8.68004C32.865 8.68004 31.745 9.24004 30.905 10.15C30.065 11.095 29.645 12.25 29.75 13.335C29.82 14 29.33 14.595 28.665 14.665C28.63 14.665 28.595 14.665 28.56 14.665L28.595 14.735Z" fill="#1A7CC8"/>
</g>
<defs>
<clipPath id="clip0_21_446">
<rect width="70" height="70" fill="white"/>
</clipPath>
</defs>
</svg>
