<svg width="69" height="70" viewBox="0 0 69 70" fill="none" xmlns="http://www.w3.org/2000/svg">
<g clip-path="url(#clip0_21_402)">
<path d="M68.405 45.36H60.075C59.725 45.36 59.48 45.08 59.48 44.765C59.48 44.45 59.76 44.17 60.075 44.17H68.405C68.755 44.17 69 44.45 69 44.765C69 45.08 68.72 45.36 68.405 45.36Z" fill="#1A7CC8"/>
<path d="M64.24 49.525C63.89 49.525 63.645 49.245 63.645 48.93V40.6C63.645 40.25 63.925 40.005 64.24 40.005C64.555 40.005 64.835 40.285 64.835 40.6V48.93C64.835 49.28 64.555 49.525 64.24 49.525Z" fill="#1A7CC8"/>
<path d="M61.3 48.3C61.3 48.3 60.985 48.23 60.88 48.125C60.635 47.88 60.635 47.495 60.88 47.285L66.76 41.405C67.005 41.16 67.39 41.16 67.6 41.405C67.81 41.65 67.845 42.035 67.6 42.245L61.72 48.125C61.72 48.125 61.44 48.3 61.3 48.3Z" fill="#1A7CC8"/>
<path d="M67.18 48.3C67.18 48.3 66.865 48.23 66.76 48.125L60.88 42.245C60.635 42 60.635 41.615 60.88 41.405C61.125 41.195 61.51 41.16 61.72 41.405L67.6 47.285C67.845 47.53 67.845 47.915 67.6 48.125C67.495 48.23 67.32 48.3 67.18 48.3Z" fill="#1A7CC8"/>
<path d="M50.8 61.285H42.47C42.12 61.285 41.875 61.005 41.875 60.69C41.875 60.375 42.155 60.095 42.47 60.095H50.8C51.15 60.095 51.395 60.375 51.395 60.69C51.395 61.005 51.115 61.285 50.8 61.285Z" fill="#1A7CC8"/>
<path d="M46.635 65.45C46.285 65.45 46.04 65.17 46.04 64.855V56.525C46.04 56.175 46.32 55.93 46.635 55.93C46.95 55.93 47.23 56.21 47.23 56.525V64.855C47.23 65.205 46.95 65.45 46.635 65.45Z" fill="#1A7CC8"/>
<path d="M43.6951 64.26C43.6951 64.26 43.3801 64.19 43.2751 64.085C43.0301 63.84 43.0301 63.455 43.2751 63.245L49.1551 57.365C49.4001 57.12 49.7851 57.12 49.9951 57.365C50.2051 57.61 50.2401 57.995 49.9951 58.205L44.1151 64.085C44.1151 64.085 43.8351 64.26 43.6951 64.26Z" fill="#1A7CC8"/>
<path d="M49.5751 64.26C49.5751 64.26 49.2601 64.19 49.1551 64.085L43.2751 58.205C43.0301 57.96 43.0301 57.575 43.2751 57.365C43.5201 57.155 43.9051 57.12 44.1151 57.365L49.9951 63.245C50.2401 63.49 50.2401 63.875 49.9951 64.085C49.8901 64.19 49.7151 64.26 49.5751 64.26Z" fill="#1A7CC8"/>
<path d="M7.925 43.295H-0.405C-0.755 43.295 -1 43.015 -1 42.7C-1 42.385 -0.72 42.105 -0.405 42.105H7.925C8.275 42.105 8.52 42.385 8.52 42.7C8.52 43.015 8.24 43.295 7.925 43.295Z" fill="#1A7CC8"/>
<path d="M3.76004 47.46C3.41004 47.46 3.16504 47.18 3.16504 46.865V38.535C3.16504 38.185 3.44504 37.94 3.76004 37.94C4.07504 37.94 4.35504 38.22 4.35504 38.535V46.865C4.35504 47.215 4.07504 47.46 3.76004 47.46Z" fill="#1A7CC8"/>
<path d="M0.820058 46.235C0.820058 46.235 0.505059 46.165 0.400059 46.06C0.155059 45.815 0.155059 45.43 0.400059 45.22L6.28006 39.34C6.52506 39.095 6.91006 39.095 7.12006 39.34C7.33006 39.585 7.36506 39.97 7.12006 40.18L1.24006 46.06C1.24006 46.06 0.960059 46.235 0.820058 46.235Z" fill="#1A7CC8"/>
<path d="M6.73497 46.235C6.73497 46.235 6.41997 46.165 6.31497 46.06L0.434971 40.18C0.189971 39.935 0.189971 39.55 0.434971 39.34C0.679971 39.13 1.06497 39.095 1.27497 39.34L7.15497 45.22C7.39997 45.465 7.39997 45.85 7.15497 46.06C7.04997 46.165 6.87497 46.235 6.73497 46.235Z" fill="#1A7CC8"/>
<path d="M58.85 32.9H58.78C58.29 32.9 57.87 32.48 57.905 31.99C57.905 31.5 58.36 31.045 58.815 31.115C58.85 31.115 62.49 31.15 64.695 28.98C65.885 27.825 66.48 26.215 66.48 24.185C66.48 22.645 65.99 21.42 65.01 20.44C62.63 18.06 58.185 18.06 58.115 18.06C57.87 18.06 57.59 17.955 57.45 17.745C57.275 17.535 57.205 17.29 57.24 17.045C57.24 17.01 57.835 11.97 54.86 8.57501C53.005 6.44001 50.1 5.39001 46.215 5.39001C42.645 5.39001 39.845 6.05501 37.885 7.38501C37.465 7.66501 36.905 7.56001 36.625 7.14001C36.345 6.72001 36.45 6.16001 36.87 5.88001C39.145 4.34001 42.26 3.57001 46.215 3.57001C50.625 3.57001 53.985 4.86501 56.225 7.38501C58.92 10.465 59.165 14.455 59.095 16.275C60.74 16.415 64.135 16.975 66.305 19.145C67.635 20.475 68.3 22.155 68.3 24.185C68.3 26.74 67.53 28.77 65.955 30.31C63.365 32.865 59.48 32.97 58.85 32.97V32.9Z" fill="#1A7CC8"/>
<path d="M18.215 38.08C16.78 38.08 13.665 37.8 11.32 35.7C9.46502 34.02 8.52002 31.605 8.52002 28.455C8.52002 25.795 9.39502 23.66 11.145 22.085C14.155 19.39 18.88 19.215 21.05 19.285C20.98 17.78 21.225 15.05 23.15 12.705C25.39 9.97499 29.205 8.60999 34.455 8.60999C38.865 8.60999 42.225 9.90498 44.465 12.425C47.16 15.505 47.405 19.495 47.335 21.315C48.98 21.455 52.375 22.015 54.545 24.185C55.875 25.515 56.54 27.195 56.54 29.225C56.54 36.085 50.905 37.555 48.49 37.905C48 37.975 47.545 37.625 47.475 37.135C47.405 36.645 47.755 36.19 48.245 36.12C50.66 35.805 54.72 34.475 54.72 29.26C54.72 27.72 54.23 26.495 53.25 25.515C50.87 23.135 46.425 23.135 46.355 23.135C46.11 23.135 45.83 23.03 45.69 22.82C45.515 22.61 45.445 22.365 45.48 22.12C45.48 22.085 46.075 17.045 43.1 13.65C41.245 11.515 38.34 10.465 34.455 10.465C29.765 10.465 26.44 11.62 24.55 13.86C22.31 16.555 22.94 20.055 22.94 20.09C23.01 20.37 22.94 20.65 22.73 20.895C22.52 21.105 22.24 21.21 21.96 21.175C21.89 21.175 15.66 20.51 12.37 23.45C11.04 24.64 10.34 26.32 10.34 28.455C10.34 31.045 11.075 33.04 12.51 34.335C14.96 36.575 18.775 36.225 18.81 36.225C19.3 36.19 19.755 36.54 19.79 37.03C19.825 37.52 19.475 37.975 18.985 38.01C18.95 38.01 18.635 38.01 18.18 38.01L18.215 38.08Z" fill="#1A7CC8"/>
<path d="M16.7451 49.56C16.7451 49.56 16.5001 49.56 16.3951 49.49C15.9401 49.315 15.6951 48.755 15.9051 48.3L18.9501 40.95C19.1251 40.495 19.6851 40.285 20.1401 40.46C20.5951 40.635 20.8401 41.195 20.6301 41.65L17.5851 49C17.4451 49.35 17.0951 49.56 16.7451 49.56Z" fill="#1A7CC8"/>
<path d="M45.7251 49.56C45.7251 49.56 45.4801 49.56 45.3751 49.49C44.9201 49.315 44.6751 48.755 44.8851 48.3L47.9301 40.95C48.1051 40.495 48.6651 40.285 49.1201 40.46C49.5751 40.635 49.8201 41.195 49.6101 41.65L46.5651 49C46.4251 49.35 46.0751 49.56 45.7251 49.56Z" fill="#1A7CC8"/>
<path d="M20.1751 59.71C20.1751 59.71 19.9301 59.71 19.8251 59.64C19.3701 59.465 19.1251 58.905 19.3351 58.45L29.6251 33.46C29.8001 33.005 30.3601 32.76 30.8151 32.97C31.2701 33.145 31.5151 33.705 31.3051 34.16L21.0151 59.15C20.8751 59.5 20.5251 59.71 20.1751 59.71Z" fill="#1A7CC8"/>
<path d="M29.3101 56.035C29.3101 56.035 29.0651 56.035 28.9601 55.965C28.5051 55.79 28.2601 55.23 28.4701 54.775L34.1751 40.95C34.3501 40.495 34.9101 40.285 35.3651 40.46C35.8201 40.635 36.0651 41.195 35.8551 41.65L30.1501 55.475C30.0101 55.825 29.6601 56.035 29.3101 56.035Z" fill="#1A7CC8"/>
<path d="M35.0149 60.69C35.0149 60.69 34.7699 60.69 34.6649 60.62C34.2099 60.445 33.9649 59.885 34.1749 59.43L44.8849 33.495C45.0599 33.04 45.6199 32.795 46.0749 33.005C46.5299 33.18 46.7749 33.74 46.5649 34.195L35.8549 60.13C35.7149 60.48 35.3649 60.69 35.0149 60.69Z" fill="#1A7CC8"/>
</g>
<defs>
<clipPath id="clip0_21_402">
<rect width="70" height="70" fill="white" transform="translate(-1)"/>
</clipPath>
</defs>
</svg>
