<svg width="70" height="70" viewBox="0 0 70 70" fill="none" xmlns="http://www.w3.org/2000/svg">
<g clip-path="url(#clip0_21_435)">
<path d="M58.9399 34.44H58.8349C58.2399 34.44 57.7849 33.95 57.7849 33.355C57.7849 32.76 58.3099 32.27 58.8699 32.305C58.9049 32.305 63.1749 32.375 65.7649 29.785C67.1649 28.42 67.8649 26.53 67.8649 24.15C67.8649 22.33 67.3049 20.895 66.1499 19.74C63.3849 16.975 58.1349 16.94 58.0649 16.94C57.7499 16.94 57.4699 16.8 57.2599 16.59C57.0499 16.345 56.9799 16.065 57.0149 15.75C57.0149 15.68 57.7149 9.8 54.2149 5.845C52.0099 3.36 48.6149 2.1 44.0999 2.1C39.9349 2.1 36.6449 2.87 34.3349 4.445C33.8449 4.76 33.1799 4.655 32.8649 4.165C32.5499 3.675 32.6549 3.01 33.1449 2.695C35.8049 0.91 39.4799 0 44.0999 0C49.2799 0 53.2349 1.505 55.8249 4.48C58.9749 8.085 59.2549 12.775 59.1849 14.91C61.1099 15.085 65.0649 15.715 67.6199 18.27C69.1599 19.81 69.9649 21.805 69.9649 24.185C69.9649 27.16 69.0549 29.575 67.2349 31.36C64.1899 34.335 59.6749 34.475 58.9049 34.475L58.9399 34.44Z" fill="#1A7CC8"/>
<path d="M11.3399 40.53C9.65991 40.53 6.01991 40.215 3.28991 37.73C1.11991 35.77 0.0349121 32.9 0.0349121 29.26C0.0349121 26.145 1.08491 23.625 3.11491 21.805C6.64991 18.655 12.1799 18.445 14.6999 18.55C14.6299 16.8 14.8749 13.615 17.1499 10.85C19.7749 7.66499 24.2199 6.05499 30.4149 6.05499C35.5949 6.05499 39.5499 7.55999 42.1399 10.535C45.2899 14.14 45.5699 18.83 45.4999 20.965C47.4249 21.14 51.3799 21.77 53.9349 24.325C55.4749 25.865 56.2799 27.86 56.2799 30.24C56.2799 38.29 49.6999 40.005 46.8299 40.39C46.2349 40.495 45.7099 40.075 45.6399 39.48C45.5699 38.885 45.9549 38.36 46.5499 38.29C49.3849 37.905 54.1449 36.365 54.1449 30.24C54.1449 28.42 53.5849 26.985 52.4299 25.83C49.6649 23.065 44.4149 23.03 44.3449 23.03C44.0299 23.03 43.7499 22.89 43.5399 22.68C43.3299 22.435 43.2599 22.155 43.2949 21.84C43.2949 21.77 43.9949 15.89 40.4949 11.935C38.2899 9.44999 34.8949 8.18999 30.3799 8.18999C24.8849 8.18999 20.9649 9.51999 18.7949 12.18C16.1699 15.365 16.9049 19.46 16.9049 19.495C16.9749 19.81 16.8699 20.16 16.6249 20.405C16.3799 20.65 16.0649 20.755 15.7149 20.755C15.6449 20.755 8.32991 19.95 4.47991 23.415C2.90491 24.815 2.09991 26.81 2.09991 29.295C2.09991 32.34 2.97491 34.65 4.65491 36.19C7.52491 38.815 11.9699 38.395 12.0399 38.395C12.6349 38.325 13.1599 38.78 13.1949 39.34C13.2649 39.935 12.8449 40.46 12.2499 40.495C12.1799 40.495 11.8649 40.53 11.3049 40.53H11.3399Z" fill="#1A7CC8"/>
<path d="M9.62491 53.97C9.62491 53.97 9.34491 53.97 9.20491 53.9C8.64491 53.69 8.39991 53.06 8.60991 52.5L12.1799 43.89C12.3899 43.365 13.0199 43.085 13.5799 43.295C14.1399 43.505 14.3849 44.135 14.1749 44.695L10.6049 53.305C10.4299 53.725 10.0449 53.97 9.62491 53.97Z" fill="#1A7CC8"/>
<path d="M43.5749 53.97C43.5749 53.97 43.2949 53.97 43.1549 53.9C42.5949 53.69 42.3499 53.06 42.5599 52.5L46.1299 43.89C46.3399 43.365 46.9699 43.085 47.5299 43.295C48.0899 43.505 48.3349 44.135 48.1249 44.695L44.5549 53.305C44.3799 53.725 43.9949 53.97 43.5749 53.97Z" fill="#1A7CC8"/>
<path d="M13.6498 65.87C13.6498 65.87 13.3698 65.87 13.2298 65.8C12.6698 65.59 12.4248 64.96 12.6348 64.4L24.7098 35.14C24.9198 34.615 25.5498 34.335 26.1098 34.545C26.6698 34.755 26.9148 35.385 26.7048 35.945L14.6298 65.205C14.4548 65.625 14.0698 65.87 13.6498 65.87Z" fill="#1A7CC8"/>
<path d="M24.36 61.565C24.36 61.565 24.08 61.565 23.94 61.495C23.38 61.285 23.135 60.655 23.345 60.095L30.03 43.89C30.24 43.365 30.87 43.085 31.43 43.295C31.99 43.505 32.235 44.135 32.025 44.695L25.34 60.9C25.165 61.32 24.78 61.565 24.36 61.565Z" fill="#1A7CC8"/>
<path d="M31.0448 66.99C31.0448 66.99 30.7648 66.99 30.6248 66.92C30.0648 66.71 29.8198 66.08 30.0298 65.52L42.5598 35.105C42.7698 34.58 43.3998 34.3 43.9598 34.51C44.5198 34.72 44.7648 35.35 44.5548 35.91L32.0248 66.325C31.8498 66.745 31.4648 66.99 31.0448 66.99Z" fill="#1A7CC8"/>
</g>
<defs>
<clipPath id="clip0_21_435">
<rect width="70" height="70" fill="white"/>
</clipPath>
</defs>
</svg>
