<svg width="70" height="70" viewBox="0 0 70 70" fill="none" xmlns="http://www.w3.org/2000/svg">
<path d="M35 49.21C27.16 49.21 20.79 42.84 20.79 35C20.79 27.16 27.16 20.79 35 20.79C42.84 20.79 49.21 27.16 49.21 35C49.21 42.84 42.84 49.21 35 49.21ZM35 23.52C28.665 23.52 23.52 28.665 23.52 35C23.52 41.335 28.665 46.48 35 46.48C41.335 46.48 46.48 41.335 46.48 35C46.48 28.665 41.335 23.52 35 23.52Z" fill="#1A7CC8"/>
<path d="M35 12.74C34.23 12.74 33.635 12.11 33.635 11.375V1.365C33.635 0.595 34.265 0 35 0C35.735 0 36.365 0.63 36.365 1.365V11.375C36.365 12.145 35.735 12.74 35 12.74Z" fill="#1A7CC8"/>
<path d="M18.3051 19.6701C17.9551 19.6701 17.6051 19.5301 17.3251 19.2851L10.2551 12.2151C9.73008 11.6901 9.73008 10.8151 10.2551 10.2901C10.7801 9.76505 11.6551 9.76505 12.1801 10.2901L19.2501 17.3601C19.7751 17.8851 19.7751 18.7601 19.2501 19.2851C18.9701 19.5651 18.6201 19.6701 18.2701 19.6701H18.3051Z" fill="#1A7CC8"/>
<path d="M11.375 36.365H1.365C0.595 36.365 0 35.735 0 35C0 34.265 0.63 33.635 1.365 33.635H11.375C12.145 33.635 12.74 34.265 12.74 35C12.74 35.735 12.11 36.365 11.375 36.365Z" fill="#1A7CC8"/>
<path d="M11.2351 60.165C10.8851 60.165 10.5351 60.025 10.2551 59.78C9.73008 59.255 9.73008 58.38 10.2551 57.855L17.3251 50.785C17.8501 50.26 18.7251 50.26 19.2501 50.785C19.7751 51.31 19.7751 52.185 19.2501 52.71L12.1801 59.78C11.9001 60.06 11.5501 60.165 11.2001 60.165H11.2351Z" fill="#1A7CC8"/>
<path d="M35 70C34.23 70 33.635 69.37 33.635 68.635V58.625C33.635 57.855 34.265 57.26 35 57.26C35.735 57.26 36.365 57.89 36.365 58.625V68.635C36.365 69.405 35.735 70 35 70Z" fill="#1A7CC8"/>
<path d="M58.765 60.165C58.415 60.165 58.065 60.025 57.785 59.78L50.715 52.71C50.19 52.185 50.19 51.31 50.715 50.785C51.24 50.26 52.115 50.26 52.64 50.785L59.71 57.855C60.235 58.38 60.235 59.255 59.71 59.78C59.43 60.06 59.08 60.165 58.73 60.165H58.765Z" fill="#1A7CC8"/>
<path d="M68.635 36.365H58.625C57.855 36.365 57.26 35.735 57.26 35C57.26 34.265 57.89 33.635 58.625 33.635H68.635C69.405 33.635 70 34.265 70 35C70 35.735 69.37 36.365 68.635 36.365Z" fill="#1A7CC8"/>
<path d="M51.695 19.6701C51.345 19.6701 50.995 19.5301 50.715 19.2851C50.19 18.7601 50.19 17.8851 50.715 17.3601L57.785 10.2901C58.31 9.76505 59.185 9.76505 59.71 10.2901C60.235 10.8151 60.235 11.6901 59.71 12.2151L52.64 19.2851C52.36 19.5651 52.01 19.6701 51.66 19.6701H51.695Z" fill="#1A7CC8"/>
</svg>
