<svg xmlns="http://www.w3.org/2000/svg" width="38" height="38">
    <path fill-rule="evenodd" opacity=".902" d="M18.1 37.1C8.506 37.1 0 29.493 0 18.1 0 8.507 8.506 0 18.1 0c11.393 0 19 8.507 19 18.1 0 11.393-7.607 19-19 19zm0-35c-7.937 0-16 8.063-16 16 0 9.737 8.063 16 16 16 9.736 0 16-6.263 16-16 0-7.937-6.264-16-16-16zm0 27c-.757 0-3-.443-3-3v-7c0-.757 2.243-3 3-3 2.557 0 3 2.243 3 3v7c0 2.557-.443 3-3 3zm0-15c-.757 0-3-.443-3-3 0-.757 2.243-3 3-3 2.557 0 3 2.243 3 3 0 2.557-.443 3-3 3z"/>
</svg>
