<svg xmlns="http://www.w3.org/2000/svg" width="50" height="40">
    <path fill-rule="evenodd" opacity=".902" d="M49.1 34.1c0 3.661-1.339 5-5 5-1.862 0-5-1.339-5-5 0-1.519 2.618-3.536 4-3.999V22.1c0-.205.004-2-2-2h-16v10.001c3.182.463 4 2.48 4 3.999 0 3.661-1.339 5-5 5-1.862 0-5-1.339-5-5 0-1.519 2.618-3.536 4-3.999V20.1h-16c-.205 0-2 1.795-2 2v8.001c3.182.463 4 2.48 4 3.999 0 3.661-1.339 5-5 5-1.862 0-4.1-1.339-4.1-5 0-1.519 1.718-3.536 3.1-3.999V22.1c0-1.309 2.691-4 4-4h16v-9h2v9h16c3.109 0 4 2.691 4 4v8.001c3.182.463 4 2.48 4 3.999zm-30-30c0-1.861 3.138-4.1 5-4.1 3.661 0 5 2.239 5 4.1 0 3.661-1.339 5-5 5-1.862 0-5-1.339-5-5z"/>
</svg>
