<svg width="31" height="37" viewBox="0 0 31 37" fill="none" xmlns="http://www.w3.org/2000/svg">
<g id="Group">
<g id="Group_2">
<path id="Vector" d="M11.8618 18.1886C7.17941 18.1886 3.375 14.3771 3.375 9.68597C3.375 4.99487 7.17941 1.18335 11.8618 1.18335C16.5441 1.18335 20.3485 4.99487 20.3485 9.68597C20.3485 14.3771 16.5441 18.1886 11.8618 18.1886ZM11.8618 2.15455C7.70983 2.15455 4.34439 5.54461 4.34439 9.68597C4.34439 13.8273 7.72812 17.2174 11.8618 17.2174C15.9954 17.2174 19.3791 13.8273 19.3791 9.68597C19.3791 5.54461 15.9954 2.15455 11.8618 2.15455Z" fill="black" stroke="black"/>
<path id="Vector_2" d="M11.865 18.3717C7.09119 18.3717 3.19531 14.4686 3.19531 9.68588C3.19531 4.90315 7.09119 1 11.865 1C16.6388 1 20.5346 4.88483 20.5346 9.68588C20.5346 14.4869 16.6388 18.3717 11.865 18.3717ZM11.865 1.36649C7.29238 1.36649 3.56112 5.10472 3.56112 9.68588C3.56112 14.267 7.29238 18.0053 11.865 18.0053C16.4376 18.0053 20.1688 14.267 20.1688 9.68588C20.1688 5.10472 16.4376 1.36649 11.865 1.36649ZM11.865 17.4005C7.62161 17.4005 4.1647 13.9372 4.1647 9.68588C4.1647 5.43457 7.62161 1.9712 11.865 1.9712C16.1084 1.9712 19.5653 5.43457 19.5653 9.68588C19.5653 13.9372 16.1084 17.4005 11.865 17.4005ZM11.865 2.31937C7.82281 2.31937 4.51223 5.61781 4.51223 9.68588C4.51223 13.7539 7.80451 17.0524 11.865 17.0524C15.9255 17.0524 19.2177 13.7539 19.2177 9.68588C19.2177 5.61781 15.9255 2.31937 11.865 2.31937Z" fill="black" stroke="black"/>
</g>
<g id="Group_3">
<path id="Vector_3" d="M22.4881 35.8348H1.65526C1.39919 35.8348 1.17969 35.6149 1.17969 35.3584V28.1568C1.17969 22.1463 6.06325 17.2354 12.0808 17.2354C18.0984 17.2354 22.9819 22.128 22.9819 28.1568V35.3584C22.9819 35.6149 22.7624 35.8348 22.5064 35.8348H22.4881ZM2.1308 34.882H21.9942V28.1568C21.9942 22.6594 17.5314 18.2066 12.0625 18.2066C6.59368 18.2066 2.1308 22.6777 2.1308 28.1568V34.882Z" fill="black" stroke="black"/>
<path id="Vector_4" d="M22.4913 35.9999H1.65846C1.29265 35.9999 1 35.7067 1 35.3402V28.1387C1 22.0183 5.97501 17.0522 12.0657 17.0522C18.1564 17.0522 23.1314 22.0366 23.1314 28.1387V35.3402C23.1314 35.7067 22.8388 35.9999 22.473 35.9999H22.4913ZM12.084 17.4004C6.17619 17.4004 1.3658 22.2198 1.3658 28.1387V35.3402C1.3658 35.5052 1.49384 35.6334 1.65846 35.6334H22.4913C22.6559 35.6334 22.7839 35.5052 22.7839 35.3402V28.1387C22.7839 22.2198 17.9735 17.4004 12.0657 17.4004H12.084ZM22.0157 35.047H2.15228C2.06083 35.047 1.96939 34.9737 1.96939 34.8638V28.1387C1.96939 22.5497 6.50542 18.0052 12.084 18.0052C17.6626 18.0052 22.1986 22.5497 22.1986 28.1387V34.8638C22.1986 34.9554 22.1254 35.047 22.0157 35.047ZM2.31691 34.6805H21.8328V28.1387C21.8328 22.7512 17.4614 18.3716 12.084 18.3716C6.70661 18.3716 2.33519 22.7512 2.33519 28.1387V34.6805H2.31691Z" fill="black" stroke="black"/>
</g>
<g id="Group_4">
<path id="Vector_5" d="M19.5043 19.9842C17.4557 19.9842 15.5352 19.1779 14.0903 17.7303C13.9074 17.547 13.9074 17.2355 14.0903 17.0523C14.2732 16.869 14.5841 16.869 14.767 17.0523C16.0291 18.3167 17.7118 19.013 19.5043 19.013C23.1989 19.013 26.2168 15.9894 26.2168 12.2879C26.2168 8.58628 23.1989 5.56275 19.5043 5.56275C19.175 5.56275 18.8458 5.58106 18.5166 5.63604C18.2605 5.67269 18.0044 5.48944 17.9679 5.23289C17.9313 4.97635 18.1142 4.7198 18.3703 4.68315C18.7361 4.62818 19.1202 4.60986 19.486 4.60986C23.7111 4.60986 27.1497 8.05487 27.1497 12.2879C27.1497 16.5208 23.7111 19.9659 19.486 19.9659L19.5043 19.9842Z" fill="black" stroke="black"/>
<path id="Vector_6" d="M19.5075 20.1676C17.4041 20.1676 15.447 19.343 13.9655 17.8587C13.7094 17.6021 13.7094 17.1806 13.9655 16.9241C14.2216 16.6676 14.6422 16.6676 14.8983 16.9241C16.1237 18.1518 17.7699 18.8482 19.5075 18.8482C23.1107 18.8482 26.0372 15.9163 26.0372 12.3063C26.0372 8.69637 23.1107 5.76444 19.5075 5.76444C19.1783 5.76444 18.8673 5.78276 18.5564 5.83773C18.3918 5.87438 18.2089 5.83773 18.0808 5.72779C17.9345 5.61784 17.8431 5.47123 17.8248 5.28799C17.8065 5.10474 17.8248 4.93981 17.9528 4.79321C18.0626 4.64662 18.2089 4.55499 18.3918 4.53667C18.7759 4.4817 19.16 4.44507 19.5441 4.44507C23.8789 4.44507 27.3907 7.96338 27.3907 12.3063C27.3907 16.6493 23.8789 20.1676 19.5441 20.1676H19.5075ZM14.4227 17.0891C14.4227 17.0891 14.2764 17.1257 14.2033 17.1807C14.0935 17.2906 14.0935 17.4922 14.2033 17.6022C15.6116 19.0132 17.4956 19.8011 19.4892 19.8011C23.6228 19.8011 26.97 16.4294 26.97 12.3063C26.97 8.18328 23.6046 4.81156 19.4892 4.81156C19.1234 4.81156 18.7576 4.82987 18.3918 4.88484C18.3186 4.88484 18.2454 4.93981 18.1906 4.99478C18.1357 5.06808 18.1174 5.1414 18.1357 5.2147C18.1357 5.288 18.1906 5.3613 18.2638 5.41627C18.3186 5.47124 18.4101 5.48957 18.4832 5.47124C18.8125 5.41627 19.16 5.39793 19.4892 5.39793C23.2936 5.39793 26.3847 8.4948 26.3847 12.3063C26.3847 16.1178 23.2936 19.2147 19.4892 19.2147C17.6419 19.2147 15.9226 18.5001 14.6239 17.199C14.5691 17.144 14.4959 17.1074 14.4045 17.1074L14.4227 17.0891Z" fill="black" stroke="black"/>
</g>
<g id="Group_5">
<path id="Vector_7" d="M29.0426 35.8349H22.4946C22.2385 35.8349 22.019 35.615 22.019 35.3585C22.019 35.1019 22.2385 34.8821 22.4946 34.8821H28.567V28.8899C28.567 23.9972 24.6712 20.0025 19.8608 20.0025C19.3669 20.0025 18.8731 20.0391 18.3975 20.1307C18.1415 20.1674 17.8854 20.0024 17.8488 19.7459C17.8122 19.4894 17.9769 19.2328 18.2329 19.1962C18.7634 19.1046 19.3121 19.0496 19.8608 19.0496C25.1833 19.0496 29.5181 23.4658 29.5181 28.8899V35.3585C29.5181 35.615 29.2987 35.8349 29.0426 35.8349Z" fill="black" stroke="black"/>
<path id="Vector_8" d="M29.0388 36H22.4908C22.125 36 21.8324 35.7068 21.8324 35.3403C21.8324 34.9738 22.125 34.6806 22.4908 34.6806H28.3804V28.8717C28.3804 24.0707 24.5576 20.1675 19.857 20.1675C19.3815 20.1675 18.8876 20.2042 18.4304 20.2958C18.0645 20.3508 17.7353 20.1125 17.6622 19.7644C17.6256 19.5995 17.6622 19.4162 17.7719 19.2696C17.8816 19.123 18.028 19.0314 18.1926 18.9947C18.7413 18.9031 19.29 18.8481 19.857 18.8481C25.2893 18.8481 29.6973 23.3377 29.6973 28.8717V35.3403C29.6973 35.7068 29.4046 36 29.0388 36ZM22.4908 35.0471C22.3262 35.0471 22.1982 35.1754 22.1982 35.3403C22.1982 35.5052 22.3262 35.6335 22.4908 35.6335H29.0388C29.2034 35.6335 29.3314 35.5052 29.3314 35.3403V28.8717C29.3314 23.5392 25.0698 19.1963 19.857 19.1963C19.3266 19.1963 18.7779 19.2512 18.2657 19.3245C18.1926 19.3245 18.1194 19.3795 18.0645 19.4528C18.028 19.5261 18.0097 19.5994 18.0097 19.6727C18.0463 19.8376 18.1926 19.9476 18.3572 19.9109C18.851 19.8193 19.3449 19.7827 19.857 19.7827C24.7588 19.7827 28.7462 23.8507 28.7462 28.8534V34.8455C28.7462 34.9371 28.673 35.0288 28.5632 35.0288H22.4908V35.0471Z" fill="black" stroke="black"/>
</g>
</g>
</svg>
