<svg width="26" height="42" viewBox="0 0 26 42" fill="none" xmlns="http://www.w3.org/2000/svg">
<g id="Group">
<g id="Group_2">
<path id="Vector" d="M13.1251 40.7909C12.9164 40.7909 12.7285 40.6654 12.6242 40.4772L2.3128 18.4147C0.62206 14.7132 0.872511 10.4053 3.00159 6.91296C5.06804 3.48335 8.53304 1.41304 12.4572 1.20392C12.8956 1.183 13.3339 1.183 13.7722 1.20392C17.7173 1.41304 21.1614 3.48335 23.2278 6.91296C25.3569 10.4053 25.6074 14.7132 23.9166 18.4147L13.6052 40.4772C13.5217 40.6654 13.313 40.7909 13.1043 40.7909H13.1251ZM13.1251 2.29133C12.9164 2.29133 12.7286 2.29133 12.5198 2.29133C8.9505 2.47954 5.81951 4.36165 3.94091 7.45667C2.02057 10.6353 1.77008 14.546 3.3147 17.9337L13.1251 38.9297L22.9356 17.9337C24.4802 14.5669 24.2297 10.6563 22.3094 7.4776C20.4308 4.36167 17.2998 2.47956 13.7305 2.31227C13.5426 2.31227 13.3339 2.31227 13.1251 2.31227V2.29133Z" fill="black" stroke="black" stroke-width="0.5"/>
<path id="Vector_2" d="M13.1253 41C12.8331 41 12.5617 40.8327 12.4365 40.5608L2.12508 18.4984C0.41347 14.7341 0.663953 10.3635 2.8139 6.8084C4.9221 3.33696 8.42882 1.20389 12.4365 1.01568C12.8748 0.994772 13.334 0.994772 13.7724 1.01568C17.78 1.22481 21.2868 3.33696 23.395 6.8084C25.5449 10.3635 25.8163 14.7341 24.1046 18.4984L13.7933 40.5608C13.668 40.8327 13.3967 41 13.1044 41H13.1253ZM13.1253 1.41302C12.9166 1.41302 12.687 1.41302 12.4782 1.41302C8.61669 1.60123 5.23522 3.65065 3.18964 7.01753C1.10231 10.4471 0.851814 14.6714 2.52168 18.3311L12.8331 40.3935C12.9375 40.6236 13.3341 40.6236 13.4593 40.3935L23.7707 18.3311C25.4197 14.6923 25.1692 10.468 23.0819 7.03843C21.0363 3.67155 17.6548 1.64308 13.7933 1.43396C13.5845 1.43396 13.3549 1.43396 13.1462 1.43396L13.1253 1.41302ZM13.1253 39.1597C13.1253 39.1597 12.9792 39.1179 12.9375 39.0342L3.12702 18.0383C1.56152 14.6087 1.79112 10.6144 3.77409 7.37304C5.69443 4.21528 8.88805 2.29134 12.52 2.10313C12.9166 2.10313 13.334 2.10313 13.7515 2.10313C17.3835 2.29134 20.5771 4.21528 22.4974 7.37304C24.4595 10.6144 24.71 14.6087 23.1445 18.0383L13.3341 39.0551C13.3341 39.0551 13.2297 39.1806 13.1462 39.1806L13.1253 39.1597ZM13.1253 2.50047C12.9166 2.50047 12.7287 2.50047 12.5409 2.50047C9.03415 2.66777 5.98665 4.52895 4.12893 7.58214C2.22946 10.6981 1.99985 14.546 3.50272 17.871L13.1253 38.4696L22.7479 17.871C24.2508 14.5669 24.0212 10.719 22.1217 7.60307C20.264 4.54988 17.2165 2.70958 13.7098 2.52137C13.5219 2.52137 13.3132 2.52137 13.1253 2.52137V2.50047Z" fill="black" stroke="black" stroke-width="0.5"/>
</g>
<g id="Group_3">
<path id="Vector_3" d="M13.1271 19.732C9.51602 19.732 6.59375 16.8043 6.59375 13.1864C6.59375 9.5686 9.51602 6.64087 13.1271 6.64087C16.7382 6.64087 19.6604 9.5686 19.6604 13.1864C19.6604 16.8043 16.7382 19.732 13.1271 19.732ZM13.1271 7.72832C10.1213 7.72832 7.67917 10.1751 7.67917 13.1864C7.67917 16.1978 10.1213 18.6445 13.1271 18.6445C16.1329 18.6445 18.575 16.1978 18.575 13.1864C18.575 10.1751 16.1329 7.72832 13.1271 7.72832Z" fill="black" stroke="black" stroke-width="0.5"/>
<path id="Vector_4" d="M13.1249 19.9412C9.40943 19.9412 6.38281 16.9089 6.38281 13.1865C6.38281 9.46416 9.40943 6.43188 13.1249 6.43188C16.8403 6.43188 19.8669 9.46416 19.8669 13.1865C19.8669 16.9089 16.8403 19.9412 13.1249 19.9412ZM13.1249 6.85012C9.63904 6.85012 6.80027 9.69419 6.80027 13.1865C6.80027 16.6789 9.63904 19.523 13.1249 19.523C16.6107 19.523 19.4495 16.6789 19.4495 13.1865C19.4495 9.69419 16.6107 6.85012 13.1249 6.85012ZM13.1249 18.8538C10.0148 18.8538 7.48909 16.3234 7.48909 13.2074C7.48909 10.0915 10.0148 7.56113 13.1249 7.56113C16.235 7.56113 18.7607 10.0915 18.7607 13.2074C18.7607 16.3234 16.235 18.8538 13.1249 18.8538ZM13.1249 7.95847C10.2444 7.95847 7.88569 10.3215 7.88569 13.2074C7.88569 16.0933 10.2444 18.4564 13.1249 18.4564C16.0054 18.4564 18.3641 16.0933 18.3641 13.2074C18.3641 10.3215 16.0263 7.95847 13.1249 7.95847Z" fill="black" stroke="black" stroke-width="0.5"/>
</g>
</g>
</svg>
