<svg width="512" height="148" viewBox="0 0 512 148" fill="none" xmlns="http://www.w3.org/2000/svg">
<g filter="url(#filter0_d_72_4)">
<path d="M476.986 0H35.0144C17.8856 0 4 10.9377 4 24.43V115.57C4 129.062 17.8856 140 35.0144 140H476.986C494.114 140 508 129.062 508 115.57V24.43C508 10.9377 494.114 0 476.986 0Z" fill="white"/>
</g>
<path d="M62.38 116.61C89.2321 116.61 111 95.7416 111 69.9996C111 44.2577 89.2321 23.3896 62.38 23.3896C35.5279 23.3896 13.76 44.2577 13.76 69.9996C13.76 95.7416 35.5279 116.61 62.38 116.61Z" fill="#FFDEE4"/>
<path d="M13.24 20C10.09 20 7 20.28 4 20.8V119.2C7 119.71 10.09 120 13.24 120C42.05 120 65.4 97.61 65.4 70C65.4 42.39 42.05 20 13.24 20Z" fill="#FF3F5E"/>
<rect x="18" y="23" width="84" height="94" rx="10" fill="#D9D9D9"/>
<defs>
<filter id="filter0_d_72_4" x="0" y="0" width="512" height="148" filterUnits="userSpaceOnUse" color-interpolation-filters="sRGB">
<feFlood flood-opacity="0" result="BackgroundImageFix"/>
<feColorMatrix in="SourceAlpha" type="matrix" values="0 0 0 0 0 0 0 0 0 0 0 0 0 0 0 0 0 0 127 0" result="hardAlpha"/>
<feOffset dy="4"/>
<feGaussianBlur stdDeviation="2"/>
<feComposite in2="hardAlpha" operator="out"/>
<feColorMatrix type="matrix" values="0 0 0 0 0 0 0 0 0 0 0 0 0 0 0 0 0 0 0.25 0"/>
<feBlend mode="normal" in2="BackgroundImageFix" result="effect1_dropShadow_72_4"/>
<feBlend mode="normal" in="SourceGraphic" in2="effect1_dropShadow_72_4" result="shape"/>
</filter>
</defs>
</svg>
