<svg width="512" height="148" viewBox="0 0 512 148" fill="none" xmlns="http://www.w3.org/2000/svg">
<g filter="url(#filter0_d_670_4)">
<path d="M476.986 0H35.0144C17.8856 0 4 10.9377 4 24.43V115.57C4 129.062 17.8856 140 35.0144 140H476.986C494.114 140 508 129.062 508 115.57V24.43C508 10.9377 494.114 0 476.986 0Z" fill="white"/>
</g>
<path d="M62.3798 116.61C89.2319 116.61 111 95.7416 111 69.9996C111 44.2577 89.2319 23.3896 62.3798 23.3896C35.5277 23.3896 13.7598 44.2577 13.7598 69.9996C13.7598 95.7416 35.5277 116.61 62.3798 116.61Z" fill="#E2F5F5"/>
<path d="M13.24 20C10.09 20 7 20.28 4 20.8V119.2C7 119.71 10.09 120 13.24 120C42.05 120 65.4 97.61 65.4 70C65.4 42.39 42.05 20 13.24 20Z" fill="#00908D"/>
<rect x="14" y="23" width="90" height="94" rx="10" fill="white"/>
<path d="M65.5067 34.005C71.7659 38.9654 74.5434 46.5784 72.4503 54.541C70.9067 60.4156 66.9404 64.3819 62.8342 66.5998C58.1785 69.1175 53.5977 69.5521 49.3617 68.568C47.2786 68.0835 46.799 67.8137 45.6201 67.3392C47.5833 68.623 49.6664 69.7319 52.4938 70.4063C57.8938 71.6901 63.5285 70.741 68.0194 67.8337C72.0607 65.2211 75.4275 60.6404 76.4066 55.7599C78.145 47.0929 73.9789 37.5867 65.5067 34V34.005Z" fill="#00908D"/>
<path d="M71.0067 50.7299C71.0067 50.7299 66.4509 49.4411 61.5005 52.808C61.5005 52.808 59.917 53.7022 56.5501 57.7634C56.5501 57.7634 52.7286 63.3233 46.7392 60.6507C46.7392 60.6507 43.2474 59.3469 41.4041 55.4755C40.2302 53.0128 39.1911 49.3162 40.9046 44.6406C40.9046 44.6406 41.9636 41.3836 45.0357 38.8959C47.4285 36.9627 51.5147 35.0694 56.5051 36.1384C56.5051 36.1384 61.8752 37.0626 64.9623 41.8182C64.9623 41.8182 58.9978 36.603 51.1001 39.6402C51.1001 39.6402 41.9436 42.7373 42.7429 53.7222C42.7429 53.7222 43.0526 60.1412 48.003 59.8365C48.003 59.8365 50.3908 60.0563 53.1332 56.04C53.1332 56.04 55.556 52.5133 60.0119 50.9297C60.0119 50.9297 62.8842 50.1355 63.6785 50.1355C63.6785 50.1355 60.2617 49.8757 56.65 51.8189C56.65 51.8189 53.9525 52.9429 51.4648 56.4446C51.4648 56.4446 49.3967 59.6766 46.6692 58.7675C46.6692 58.7675 48.0679 52.9479 53.7777 50.1355C53.7777 50.1355 61.7103 45.7645 71.0067 50.7299Z" fill="#00908D"/>
<path d="M35.4509 79.6266C35.7606 79.0072 36.2651 78.6975 36.9645 78.6975C37.6638 78.6975 38.1734 79.0072 38.4781 79.6266C38.7828 80.2411 38.9377 80.9155 38.9377 81.6448C38.9377 82.3741 38.7778 83.0535 38.4731 83.6629C38.1534 84.2723 37.6538 84.5821 36.9645 84.5821C36.2751 84.5821 35.7756 84.2723 35.4609 83.6629C35.1512 83.0535 34.9963 82.3791 34.9963 81.6448C34.9963 80.9105 35.1512 80.2461 35.4559 79.6266H35.4509ZM33.6725 78.5327C32.7434 79.3719 32.2738 80.4109 32.2738 81.6448C32.2738 82.8786 32.7434 83.9476 33.6725 84.7919C34.6067 85.6261 35.7056 86.0507 36.9645 86.0507C38.2233 86.0507 39.3473 85.6311 40.2664 84.7919C41.1956 83.9526 41.6551 82.8986 41.6551 81.6448C41.6551 80.3909 41.1956 79.3719 40.2664 78.5327C39.3473 77.6934 38.2433 77.2738 36.9645 77.2738C35.6857 77.2738 34.6067 77.6934 33.6725 78.5327ZM43.2187 93.7836C43.2187 93.8385 43.2387 93.8835 43.2786 93.9234C43.3136 93.9634 43.3636 93.9784 43.4135 93.9784H44.3526C44.7423 93.9784 45.067 93.8535 45.3317 93.5987C45.5965 93.339 45.7214 92.8144 45.7214 92.0202V76.1948C45.7214 76.1299 45.7064 76.0849 45.6714 76.045C45.6415 76.01 45.5915 76 45.5266 76H42.2046C42.0348 76 41.8899 76.025 41.765 76.0749C41.6402 76.1199 41.5802 76.2048 41.5802 76.3497C41.5802 76.6744 41.855 76.9192 42.3995 77.094C42.944 77.2638 43.2187 77.6784 43.2187 78.3478V86.6402L31.4746 87.2446C31.3147 87.2446 31.1998 87.2646 31.1199 87.3095C31.04 87.3595 31 87.4544 31 87.5993C31 87.844 31.2498 88.1388 31.7343 88.4635C32.2239 88.7932 32.6035 88.953 32.8733 88.923L43.2087 87.849V93.7885L43.2187 93.7836Z" fill="black"/>
<path d="M58.4548 88.1987C58.8195 87.7092 59.309 87.4544 59.9185 87.4544C60.5279 87.4544 61.0374 87.7092 61.3971 88.1987C61.7568 88.6933 61.9316 89.3027 61.9316 90.037C61.9316 90.7713 61.7568 91.3608 61.3971 91.8553C61.0374 92.3449 60.5479 92.5946 59.9185 92.5946C59.2891 92.5946 58.8345 92.3449 58.4598 91.8553C58.0952 91.3558 57.9053 90.7514 57.9053 90.037C57.9053 89.3227 58.0902 88.6933 58.4548 88.1987ZM56.8064 87.1047C55.8373 87.874 55.3527 88.8531 55.3527 90.037C55.3527 91.2209 55.8373 92.2 56.8064 92.9743C57.7805 93.7386 58.8195 94.1232 59.9435 94.1232C61.0674 94.1232 62.0965 93.7386 63.0656 92.9743C64.0347 92.2 64.5092 91.2209 64.5092 90.037C64.5092 88.8531 64.0347 87.874 63.0656 87.1047C62.0965 86.3404 61.0574 85.9508 59.9435 85.9508C58.8295 85.9508 57.7805 86.3404 56.8064 87.1047ZM60.2931 81.7497H60.1383C60.0833 81.7497 60.0284 81.7647 59.9784 81.7846C60.0284 81.6398 60.0084 81.4799 59.9085 81.3001C59.8086 81.1153 59.6088 80.9404 59.314 80.7656L60.0384 78.2679C60.1033 78.0381 60.0584 77.8433 59.9035 77.6485C59.7486 77.4636 59.5388 77.3687 59.2741 77.3687H51.5212C51.4263 77.3687 51.3314 77.3837 51.2265 77.4037C51.1266 77.4337 51.0717 77.5186 51.0717 77.6585C51.0717 77.8733 51.2865 78.123 51.7261 78.4278C52.1607 78.7375 52.5903 78.8873 53.0249 78.8873H57.0162V80.7606H51.3464C51.2165 80.7606 51.1116 80.7756 51.0167 80.8056C50.9268 80.8305 50.8818 80.9155 50.8818 81.0553C50.8818 81.3451 51.1066 81.5649 51.5462 81.7147C51.9908 81.8646 52.2106 82.1843 52.2106 82.6638V84.5421C52.2106 84.9967 52.3805 85.3713 52.7052 85.6661C53.0398 85.9608 53.3995 86.1356 53.7941 86.2006C54.3936 86.2905 55.4826 86.1356 57.0661 85.731C58.6546 85.3264 59.8835 84.9467 60.7727 84.602C61.2922 84.3872 61.512 84.1425 61.4221 83.8377C61.3372 83.543 61.0424 83.4381 60.5379 83.548C59.9135 83.6679 58.9694 83.8028 57.7005 83.9576C56.4367 84.1125 55.5275 84.1874 54.9681 84.1774C54.8382 84.1325 54.7732 84.0725 54.7732 83.9976V82.1993H59.2841C59.4189 82.1993 59.5238 82.1893 59.6188 82.1593C59.7087 82.1343 59.7886 82.0794 59.8685 82.0044C59.8685 82.2143 60.0434 82.459 60.388 82.7188C60.7277 82.9835 61.0175 83.1184 61.2423 83.1184H62.6659V86.1306C62.6659 86.1806 62.6859 86.2305 62.7259 86.2705C62.7658 86.3005 62.8108 86.3304 62.8608 86.3304H63.7999C64.1945 86.3304 64.5142 86.2705 64.774 86.1556C65.0387 86.0407 65.1686 85.6361 65.1686 84.9567V76.1948C65.1686 76.1299 65.1536 76.0849 65.1187 76.045C65.0837 76.01 65.0387 76 64.9738 76H61.7518C61.5769 76 61.4321 76.01 61.3072 76.045C61.1823 76.0849 61.1174 76.1748 61.1174 76.3147C61.1174 76.6544 61.3771 76.8792 61.8917 76.9791C62.4062 77.079 62.6659 77.4587 62.6659 78.113V79.1471H60.3031C60.2132 79.1471 60.1183 79.1571 60.0184 79.1821C59.9185 79.202 59.8735 79.282 59.8735 79.4218C59.8735 79.6167 60.0484 79.8514 60.403 80.1212C60.7527 80.3859 61.0324 80.5208 61.2472 80.5208H62.6709V81.7497H60.3081H60.2931Z" fill="black"/>
<path d="M75.6435 91.5508C75.6435 91.6457 75.6635 91.7056 75.6935 91.7256C75.7285 91.7456 75.7784 91.7506 75.8384 91.7506H83.4663C84.0358 91.7506 84.3205 92.0253 84.3205 92.5748C84.3205 93.1243 84.0358 93.4041 83.4663 93.4041H74.9841C74.5795 93.4041 74.1549 93.2792 73.7053 93.0444C73.2508 92.8046 73.031 92.365 73.031 91.7456V89.163C73.031 88.5985 72.8012 88.2688 72.3466 88.1689C71.892 88.064 71.6622 87.8542 71.6622 87.5395C71.6622 87.4196 71.7072 87.3547 71.7921 87.3247C71.877 87.2947 71.9669 87.2847 72.0718 87.2847H75.4537C75.5187 87.2847 75.5686 87.2947 75.5986 87.3297C75.6336 87.3697 75.6485 87.4146 75.6485 87.4796V91.5458L75.6435 91.5508ZM81.0585 83.1685L81.4282 78.7177C81.4282 78.6777 81.4282 78.6477 81.4182 78.6277C81.4132 78.6078 81.3782 78.5928 81.3133 78.5928H73.8652C73.6154 78.5928 73.2258 78.4279 72.6663 78.1132C72.1118 77.7885 71.8371 77.5238 71.8371 77.3239C71.8371 77.1791 71.892 77.0892 72.0019 77.0492C72.1118 77.0092 72.2117 76.9893 72.3116 76.9893H83.4114C83.7361 76.9893 84.0008 77.1141 84.2106 77.3689C84.4204 77.6187 84.5103 77.8884 84.4854 78.1632C84.4354 78.6078 84.2356 79.3521 83.9109 80.4061C83.5812 81.4601 83.2215 82.3843 82.8269 83.1635H85.5843C86.1638 83.1635 86.4635 83.4233 86.4635 83.9428C86.4635 84.4623 86.1638 84.7221 85.5843 84.7221H79.9945V88.2588C79.9945 88.7833 79.8846 89.123 79.6698 89.2679C79.455 89.4178 79.1853 89.4927 78.8805 89.4927H77.5518C77.4968 89.4927 77.4519 89.4777 77.4169 89.4377C77.3719 89.3978 77.352 89.3528 77.352 89.2979V84.7221H71.922C71.6572 84.7221 71.2826 84.5822 70.788 84.2825C70.2985 83.9928 70.0537 83.748 70.0537 83.5482C70.0537 83.3933 70.0737 83.2934 70.1286 83.2385C70.1836 83.1935 70.2785 83.1586 70.4184 83.1586H81.0685L81.0585 83.1685Z" fill="black"/>
<path d="M35.435 99.2092C35.38 99.5139 35.3451 99.9585 35.3351 100.548V104.275C35.3351 104.609 35.2701 104.924 35.1352 105.224C35.0004 105.523 34.8155 105.783 34.5908 106.008C34.351 106.238 34.0762 106.408 33.7565 106.537C33.4368 106.662 33.0971 106.722 32.7425 106.722C32.3878 106.722 32.0531 106.662 31.7434 106.537C31.4287 106.408 31.1539 106.243 30.9191 106.028C30.6794 105.808 30.4895 105.548 30.3547 105.254C30.2148 104.954 30.1449 104.634 30.1449 104.29V100.588C30.1299 99.9435 30.0849 99.489 30 99.2092H31.2488V104.399C31.2638 104.579 31.3138 104.744 31.3937 104.894C31.4736 105.044 31.5785 105.184 31.6984 105.304C31.8383 105.433 31.9932 105.538 32.173 105.608C32.3528 105.683 32.5377 105.718 32.7425 105.718C32.9473 105.718 33.1221 105.683 33.2969 105.613C33.4718 105.548 33.6216 105.448 33.7565 105.324C33.8864 105.204 33.9963 105.059 34.0812 104.894C34.1661 104.729 34.2261 104.559 34.2461 104.379V99.1992H35.435V99.2092Z" fill="black"/>
<path d="M38.1475 106.367V99.2588H39.2764V106.367H38.1475Z" fill="black"/>
<path d="M45.4609 106.378L43.3379 103.78H43.213V106.378H42.109V100.838C42.109 100.528 42.109 100.283 42.099 100.104C42.089 99.9237 42.069 99.634 42.0391 99.2344H44.1971C44.4318 99.2344 44.6916 99.2743 44.9763 99.3393C45.2611 99.4042 45.5258 99.5391 45.7606 99.7239C45.9954 99.9038 46.1952 100.144 46.3501 100.443C46.5049 100.738 46.5849 101.113 46.5849 101.562C46.5849 101.922 46.5299 102.227 46.415 102.476C46.3001 102.726 46.1553 102.936 45.9904 103.111C45.7956 103.291 45.5758 103.425 45.346 103.52C45.1112 103.615 44.8864 103.685 44.6766 103.72L46.8696 106.378H45.4609ZM45.5308 101.572C45.5308 101.362 45.4909 101.173 45.4159 101.018C45.341 100.853 45.2361 100.723 45.1062 100.603C44.9913 100.493 44.8615 100.408 44.7116 100.353C44.5667 100.298 44.4219 100.273 44.282 100.273H43.218V102.736H44.0772C44.282 102.736 44.4618 102.711 44.6267 102.661C44.7915 102.611 44.9314 102.551 45.0463 102.466C45.2061 102.356 45.331 102.217 45.4109 102.062C45.4959 101.907 45.5308 101.747 45.5308 101.572Z" fill="black"/>
<path d="M54.1722 99.209C53.8825 99.4837 53.5727 99.8384 53.253 100.283L51.6645 102.956V106.382H50.5705V102.931L48.962 100.223C48.6773 99.8184 48.4175 99.4837 48.1777 99.209H49.5764L51.145 101.812L52.7135 99.209H54.1672H54.1722Z" fill="black"/>
<path d="M60.6116 106.512C60.3418 106.437 59.9122 106.397 59.3228 106.373H56.3105V99.2141H58.9681C59.7374 99.1692 60.2569 99.1142 60.5266 99.0293V100.243H57.4345V101.962H60.2119V103.041H57.4345V105.298H60.6066V106.512H60.6116Z" fill="black"/>
<path d="M70.0929 102.781C70.0929 103.305 69.993 103.795 69.7932 104.254C69.5934 104.714 69.3186 105.114 68.9739 105.453C68.6392 105.783 68.2446 106.043 67.79 106.238C67.3305 106.437 66.8509 106.532 66.3364 106.532C65.8219 106.532 65.3473 106.437 64.8977 106.248C64.4431 106.058 64.0535 105.793 63.7188 105.453C63.3641 105.114 63.0894 104.714 62.8896 104.254C62.6898 103.795 62.5898 103.305 62.5898 102.781C62.5898 102.256 62.6947 101.752 62.8996 101.292C63.1044 100.828 63.3791 100.428 63.7288 100.083C64.0635 99.7536 64.4531 99.4989 64.9077 99.314C65.3573 99.1242 65.8318 99.0293 66.3414 99.0293C66.8509 99.0293 67.3504 99.1292 67.8 99.324C68.2496 99.5188 68.6492 99.7936 68.9889 100.133C69.3236 100.468 69.5934 100.863 69.7932 101.322C69.988 101.782 70.0929 102.261 70.0929 102.781ZM69.0039 102.821C69.0039 102.461 68.934 102.121 68.8041 101.802C68.6692 101.477 68.4844 101.202 68.2446 100.968C68.0098 100.723 67.7251 100.528 67.4104 100.393C67.0857 100.253 66.741 100.183 66.3713 100.183C66.0017 100.183 65.672 100.253 65.3523 100.383C65.0276 100.518 64.7479 100.708 64.5131 100.943C64.2783 101.177 64.0935 101.457 63.9536 101.782C63.8137 102.101 63.7438 102.446 63.7438 102.821C63.7438 103.17 63.8087 103.505 63.9386 103.825C64.0735 104.14 64.2483 104.419 64.4781 104.659C64.7179 104.904 64.9976 105.094 65.3223 105.234C65.647 105.378 65.9967 105.448 66.3713 105.448C66.746 105.448 67.0907 105.378 67.4154 105.234C67.7451 105.089 68.0248 104.904 68.2596 104.669C68.4994 104.434 68.6792 104.155 68.8141 103.835C68.944 103.515 69.0089 103.175 69.0089 102.821H69.0039Z" fill="black"/>
<path d="M73.21 101.626V106.382H71.9512C72.0311 106.142 72.086 105.693 72.106 105.033V99.0488L76.9615 103.979V100.582C76.9216 99.948 76.8466 99.4934 76.7567 99.2187H78.0655V106.577L73.21 101.621V101.626Z" fill="black"/>
<path d="M87.4917 104.015C87.3618 104.37 87.187 104.704 86.9672 105.009C86.7474 105.309 86.4876 105.574 86.1929 105.793C85.8832 106.028 85.5335 106.213 85.1439 106.353C84.7592 106.488 84.3446 106.558 83.91 106.558C83.3655 106.558 82.856 106.453 82.3814 106.253C81.9119 106.053 81.5023 105.783 81.1526 105.439C80.8179 105.104 80.5481 104.709 80.3533 104.26C80.1585 103.81 80.0586 103.331 80.0586 102.811C80.0586 102.292 80.1635 101.792 80.3633 101.337C80.5681 100.878 80.8479 100.483 81.1975 100.154C81.5472 99.8188 81.9518 99.5641 82.4164 99.3792C82.876 99.1944 83.3755 99.1045 83.905 99.1045C84.1198 99.1045 84.3246 99.1195 84.5394 99.1495C84.7543 99.1794 84.9591 99.2344 85.1539 99.2993C85.3687 99.3692 85.5735 99.4592 85.7783 99.5691C85.9831 99.674 86.1729 99.7989 86.3578 99.9387V101.447C86.128 101.193 85.8982 100.983 85.6684 100.813C85.4386 100.643 85.2138 100.508 84.994 100.403C84.8142 100.308 84.6344 100.248 84.4545 100.213C84.2747 100.174 84.0899 100.154 83.905 100.154C83.5254 100.154 83.1757 100.223 82.851 100.353C82.5213 100.483 82.2316 100.663 81.9818 100.908C81.7221 101.153 81.5122 101.442 81.3624 101.772C81.2125 102.102 81.1326 102.456 81.1326 102.831C81.1326 103.206 81.2075 103.53 81.3474 103.855C81.4923 104.185 81.6871 104.465 81.9319 104.709C82.1866 104.959 82.4814 105.154 82.816 105.299C83.1557 105.444 83.5204 105.514 83.9 105.514C84.2098 105.514 84.5045 105.464 84.7842 105.354C85.064 105.249 85.3137 105.104 85.5435 104.929C85.7134 104.789 85.8682 104.634 86.0081 104.475C86.143 104.31 86.2479 104.14 86.3328 103.955V103.69H83.895V102.491C84.1298 102.556 84.5494 102.601 85.1489 102.636H87.5017L87.4917 104.025V104.015Z" fill="black"/>
<defs>
<filter id="filter0_d_670_4" x="0" y="0" width="512" height="148" filterUnits="userSpaceOnUse" color-interpolation-filters="sRGB">
<feFlood flood-opacity="0" result="BackgroundImageFix"/>
<feColorMatrix in="SourceAlpha" type="matrix" values="0 0 0 0 0 0 0 0 0 0 0 0 0 0 0 0 0 0 127 0" result="hardAlpha"/>
<feOffset dy="4"/>
<feGaussianBlur stdDeviation="2"/>
<feComposite in2="hardAlpha" operator="out"/>
<feColorMatrix type="matrix" values="0 0 0 0 0 0 0 0 0 0 0 0 0 0 0 0 0 0 0.25 0"/>
<feBlend mode="normal" in2="BackgroundImageFix" result="effect1_dropShadow_670_4"/>
<feBlend mode="normal" in="SourceGraphic" in2="effect1_dropShadow_670_4" result="shape"/>
</filter>
</defs>
</svg>
