<svg width="37" height="37" viewBox="0 0 37 37" fill="none" xmlns="http://www.w3.org/2000/svg">
<g clip-path="url(#clip0_519_703)">
<path d="M34.912 34.5434C34.7441 34.3756 34.5155 34.2506 34.2646 34.245V34.2448H34.2471H28.6842V6.81303C28.6842 6.40662 28.4427 6.10266 28.15 5.94508L28.1501 5.94497L28.1432 5.94151C25.5074 4.62575 23.5468 3.64651 22.0881 2.91795C20.5478 2.14868 19.5672 1.65889 18.9421 1.3475C18.3347 1.04487 18.0608 0.909544 17.9356 0.850035C17.883 0.825008 17.8359 0.802904 17.7999 0.792816C17.7911 0.790357 17.7722 0.785296 17.7469 0.783361C17.534 0.728323 17.2988 0.732879 17.065 0.873206L17.0518 0.881096L17.0462 0.884208C17.031 0.892448 17.0078 0.904659 16.9763 0.920973C16.9138 0.953428 16.8226 1.00001 16.7059 1.05919C16.4726 1.17744 16.1399 1.34479 15.7356 1.54749C15.1345 1.84882 14.3763 2.22783 13.5538 2.639C13.2698 2.78095 12.9782 2.92674 12.6827 3.07449C10.3816 4.22505 7.84446 5.49583 6.88765 5.99618L6.88764 5.99617L6.88498 5.9976C6.59232 6.15519 6.3508 6.45914 6.3508 6.86555V34.2448H0.752876C0.2121 34.2448 -0.25 34.7069 -0.25 35.2477C-0.25 35.7884 0.2121 36.2505 0.752876 36.2505H34.2471C34.7879 36.2505 35.25 35.7884 35.25 35.2477V35.2314L35.2479 35.2153C35.2139 34.9543 35.0851 34.7166 34.912 34.5434ZM26.731 17.0038V20.7269L18.4941 17.7557V14.0325L26.731 17.0038ZM18.4941 23.5862V19.863L26.731 22.8343V26.5574L18.4941 23.5862ZM26.731 11.1733V14.8964L18.4941 11.9252V8.20201L26.731 11.1733ZM18.4941 29.4167V25.6935L26.731 28.6648V32.3879L18.4941 29.4167ZM26.731 7.42263V9.06592L18.4941 6.09466V3.29588L26.731 7.42263ZM8.28652 34.2448V7.42263L16.5234 3.29588V34.2448H8.28652ZM18.4766 34.2448V31.524L26.0191 34.2448H18.4766Z" fill="white" stroke="white" stroke-width="0.5"/>
</g>
<defs>
<clipPath id="clip0_519_703">
<rect width="37" height="37" fill="white"/>
</clipPath>
</defs>
</svg>
