<svg width="37" height="37" viewBox="0 0 37 37" fill="none" xmlns="http://www.w3.org/2000/svg">
<g clip-path="url(#clip0_547_679)">
<path d="M30.4152 7.44695V7.19695H30.1652H26.139H25.889V7.44695V9.53321L18.7448 1.83L18.5613 1.63213L18.378 1.8302L1.81651 19.7273L1.42804 20.1471H2H6.54968V35V35.25H6.79968H30.1652H30.4152V35V20.1471H35H35.5699L35.1839 19.7278L30.4152 14.5472V7.44695Z" stroke="white" stroke-width="0.5"/>
<path d="M35.9202 18.9038L35.9143 18.8965L35.9079 18.8896L31.4429 14.0966V7.545C31.4429 6.77741 30.8583 6.1225 30.108 6.1225H26.1008C25.568 6.1225 25.0938 6.44144 24.8737 6.92367L19.4938 1.17911L19.4939 1.17902L19.4881 1.17323C19.243 0.928143 18.9027 0.75 18.5414 0.75C18.1881 0.75 17.8427 0.904323 17.588 1.18019C17.5879 1.18027 17.5878 1.18036 17.5877 1.18044L1.1057 18.8887C1.10549 18.8889 1.10528 18.8891 1.10507 18.8893C0.750844 19.2663 0.658713 19.894 0.842548 20.4047C1.03168 20.9301 1.52078 21.305 2.05769 21.305H5.5349V34.8275C5.5349 35.5896 6.11442 36.25 6.83481 36.25H30.0905C30.8608 36.25 31.4254 35.5924 31.4254 34.8275V21.305H34.9026C35.4698 21.305 35.9619 20.9348 36.1527 20.4047C36.3378 19.8906 36.2578 19.3259 35.9202 18.9038ZM30.0905 19.65V19.8825H29.8405V19.9V20.15V34.5775H7.08481V19.8825V19.6325H6.83481H2.63191L18.5416 2.53922L25.9005 10.428L26.3333 10.892V10.2575V7.8125H29.8405V14.685V14.7827L29.9067 14.8545L34.3317 19.65H30.0905Z" fill="white" stroke="white" stroke-width="0.5"/>
</g>
<defs>
<clipPath id="clip0_547_679">
<rect width="37" height="37" fill="white"/>
</clipPath>
</defs>
</svg>
