<svg width="37" height="37" viewBox="0 0 37 37" fill="none" xmlns="http://www.w3.org/2000/svg">
<g clip-path="url(#clip0_4_1412)">
<path d="M8.25 18.75V17.25H9.75V18.75H8.25Z" fill="white" stroke="white" stroke-width="0.5"/>
<path d="M12.7026 24.1972H16.3465H16.3641V24.197C16.6146 24.1914 16.8471 24.066 17.0076 23.8877C17.1704 23.7067 17.2753 23.4534 17.2447 23.1751V16.9736C17.2447 15.0115 16.3332 13.1306 14.7761 11.8012C13.2707 10.4711 11.178 9.75 9.02365 9.75C4.50408 9.75 0.75 13.0007 0.75 16.9736V23.2428C0.75 23.7846 1.21108 24.25 1.75331 24.25H5.43228C5.9745 24.25 6.43559 23.7846 6.43559 23.2428C6.43559 22.7009 5.9745 22.2355 5.43228 22.2355H2.77414V16.9736C2.77414 14.1598 5.52439 11.7809 9.09793 11.6588C10.795 11.6597 12.415 12.2234 13.5899 13.2354C14.7497 14.2494 15.3607 15.5388 15.3607 16.9208V22.1827H12.7026C12.1604 22.1827 11.6993 22.6481 11.6993 23.1899C11.6993 23.7318 12.1604 24.1972 12.7026 24.1972Z" fill="white" stroke="white" stroke-width="0.5"/>
<path d="M4.75 35.2629C4.75 35.5066 4.8213 35.7405 4.94281 35.9196C5.06142 36.0945 5.25386 36.25 5.5 36.25C5.74444 36.25 5.93597 36.0964 6.05392 35.9307C6.17498 35.7608 6.25 35.5388 6.25 35.3143V21.7371C6.25 21.4934 6.1787 21.2595 6.05719 21.0804C5.93858 20.9055 5.74614 20.75 5.5 20.75C5.25386 20.75 5.06142 20.9055 4.94281 21.0804C4.8213 21.2595 4.75 21.4934 4.75 21.7371V35.2629Z" fill="white" stroke="white" stroke-width="0.5"/>
<path d="M11.75 35.2629C11.75 35.5066 11.8213 35.7405 11.9428 35.9196C12.0614 36.0945 12.2539 36.25 12.5 36.25C12.7444 36.25 12.936 36.0964 13.0539 35.9307C13.175 35.7608 13.25 35.5388 13.25 35.3143V21.7371C13.25 21.4934 13.1787 21.2595 13.0572 21.0804C12.9386 20.9055 12.7461 20.75 12.5 20.75C12.2539 20.75 12.0614 20.9055 11.9428 21.0804C11.8213 21.2595 11.75 21.4934 11.75 21.7371V35.2629Z" fill="white" stroke="white" stroke-width="0.5"/>
<path d="M10.2447 35.3872L10.25 35.3618V35.3358V27.714C10.25 27.4165 10.0705 27.1707 9.84586 27.0103C9.61824 26.8478 9.31692 26.75 9 26.75C8.68308 26.75 8.38176 26.8478 8.15414 27.0103C7.92952 27.1707 7.75 27.4165 7.75 27.714V35.286C7.75 35.5835 7.92952 35.8293 8.15414 35.9897C8.38176 36.1522 8.68308 36.25 9 36.25C9.28947 36.25 9.57021 36.1478 9.78884 35.9992C10.0022 35.8541 10.1916 35.6395 10.2447 35.3872Z" fill="white" stroke="white" stroke-width="0.5"/>
<path d="M3.75 6C3.75 8.92156 6.14125 11.25 9 11.25C11.8588 11.25 14.25 8.92156 14.25 6C14.25 3.08067 11.9295 0.75 9 0.75C6.07052 0.75 3.75 3.08067 3.75 6ZM5.67123 6.06826C5.67123 4.21209 7.20078 2.73464 9 2.73464C10.7992 2.73464 12.3288 4.21209 12.3288 6.06826C12.3288 7.92675 10.8483 9.40188 9 9.40188C7.15174 9.40188 5.67123 7.92675 5.67123 6.06826Z" fill="white" stroke="white" stroke-width="0.5"/>
<path d="M28.75 4.5C28.75 6.59074 30.4723 8.25 32.5 8.25C34.5277 8.25 36.25 6.59074 36.25 4.5C36.25 2.41158 34.5803 0.75 32.5 0.75C30.4197 0.75 28.75 2.41158 28.75 4.5ZM30.64 4.55C30.64 3.5379 31.466 2.7 32.5 2.7C33.4722 2.7 34.36 3.543 34.36 4.55C34.36 5.56209 33.534 6.4 32.5 6.4C31.466 6.4 30.64 5.56209 30.64 4.55Z" fill="white" stroke="white" stroke-width="0.5"/>
<path d="M28.75 18.5C28.75 20.5907 30.4723 22.25 32.5 22.25C34.5277 22.25 36.25 20.5907 36.25 18.5C36.25 16.4116 34.5803 14.75 32.5 14.75C30.4197 14.75 28.75 16.4116 28.75 18.5ZM30.64 18.55C30.64 17.5379 31.466 16.7 32.5 16.7C33.4722 16.7 34.36 17.543 34.36 18.55C34.36 19.5621 33.534 20.4 32.5 20.4C31.466 20.4 30.64 19.5621 30.64 18.55Z" fill="white" stroke="white" stroke-width="0.5"/>
<path d="M28.75 32.5C28.75 34.5907 30.4723 36.25 32.5 36.25C34.5277 36.25 36.25 34.5907 36.25 32.5C36.25 30.4116 34.5803 28.75 32.5 28.75C30.4197 28.75 28.75 30.4116 28.75 32.5ZM30.64 32.55C30.64 31.5379 31.466 30.7 32.5 30.7C33.4722 30.7 34.36 31.543 34.36 32.55C34.36 33.5621 33.534 34.4 32.5 34.4C31.466 34.4 30.64 33.5621 30.64 32.55Z" fill="white" stroke="white" stroke-width="0.5"/>
<path d="M20.7963 33.25H26.2037C26.4844 33.25 26.7415 33.1358 26.9284 32.9683C27.1132 32.8027 27.25 32.5651 27.25 32.3029C27.25 31.7499 26.7532 31.3035 26.2037 31.3035H21.8426V5.69651H26.2037C26.7285 5.69651 27.25 5.3245 27.25 4.7494C27.25 4.19641 26.7532 3.75 26.2037 3.75H20.7963C20.2468 3.75 19.75 4.19641 19.75 4.7494V32.2506C19.75 32.8036 20.2468 33.25 20.7963 33.25Z" fill="white" stroke="white" stroke-width="0.5"/>
<path d="M16.758 19.25H26.242C26.4899 19.25 26.728 19.1795 26.9107 19.059C27.0883 18.9418 27.25 18.7494 27.25 18.5C27.25 18.2506 27.0883 18.0582 26.9107 17.941C26.728 17.8205 26.4899 17.75 26.242 17.75H16.758C16.5101 17.75 16.272 17.8205 16.0893 17.941C15.9117 18.0582 15.75 18.2506 15.75 18.5C15.75 18.7494 15.9117 18.9418 16.0893 19.059C16.272 19.1795 16.5101 19.25 16.758 19.25Z" fill="white" stroke="white" stroke-width="0.5"/>
</g>
<defs>
<clipPath id="clip0_4_1412">
<rect width="37" height="37" fill="white"/>
</clipPath>
</defs>
</svg>
