<svg width="37" height="37" viewBox="0 0 37 37" fill="none" xmlns="http://www.w3.org/2000/svg">
<g clip-path="url(#clip0_547_785)">
<path d="M35.08 36H1.92C1.43 36 1 35.63 1 35.08V1.92C1 1.43 1.37 1 1.92 1H35.08C35.57 1 36 1.37 36 1.92V35.08C36 35.63 35.63 36 35.08 36ZM2.84 34.22H34.16V2.84H2.84V34.22Z" fill="white"/>
<path d="M29.7404 8.25016H7.32039C6.83039 8.25016 6.40039 7.88016 6.40039 7.33016C6.40039 6.78016 6.77039 6.41016 7.32039 6.41016H29.7304C30.2204 6.41016 30.6504 6.78016 30.6504 7.33016C30.6504 7.88016 30.2204 8.25016 29.7304 8.25016H29.7404Z" fill="white"/>
<path d="M29.7404 12.7301H7.32039C6.83039 12.7301 6.40039 12.3601 6.40039 11.8101C6.40039 11.2601 6.77039 10.8901 7.32039 10.8901H29.7304C30.2204 10.8901 30.6504 11.2601 30.6504 11.8101C30.6504 12.3601 30.2204 12.7301 29.7304 12.7301H29.7404Z" fill="white"/>
<path d="M29.7404 17.2101H7.32039C6.83039 17.2101 6.40039 16.8401 6.40039 16.2901C6.40039 15.8001 6.77039 15.3701 7.32039 15.3701H29.7304C30.2204 15.3701 30.6504 15.7401 30.6504 16.2901C30.5904 16.8401 30.2204 17.2101 29.7304 17.2101H29.7404Z" fill="white"/>
<path d="M29.7404 21.6901H7.32039C6.83039 21.6901 6.40039 21.3201 6.40039 20.7701C6.40039 20.2201 6.77039 19.8501 7.32039 19.8501H29.7304C30.2204 19.8501 30.6504 20.2201 30.6504 20.7701C30.6504 21.3201 30.2204 21.6901 29.7304 21.6901H29.7404Z" fill="white"/>
<path d="M29.7404 26.1798H7.32039C6.83039 26.1798 6.40039 25.8098 6.40039 25.2598C6.40039 24.7698 6.77039 24.3398 7.32039 24.3398H29.7304C30.2204 24.3398 30.6504 24.7098 30.6504 25.2598C30.5904 25.7498 30.2204 26.1798 29.7304 26.1798H29.7404Z" fill="white"/>
<path d="M29.7404 30.5998H7.32039C6.83039 30.5998 6.40039 30.2298 6.40039 29.6798C6.40039 29.1298 6.77039 28.7598 7.32039 28.7598H29.7304C30.2204 28.7598 30.6504 29.1298 30.6504 29.6798C30.6504 30.2298 30.2204 30.5998 29.7304 30.5998H29.7404Z" fill="white"/>
</g>
<defs>
<clipPath id="clip0_547_785">
<rect width="37" height="37" fill="white"/>
</clipPath>
</defs>
</svg>
