<svg width="37" height="37" viewBox="0 0 37 37" fill="none" xmlns="http://www.w3.org/2000/svg">
<g clip-path="url(#clip0_547_692)">
<path d="M34.9119 15.6085C34.7441 15.4407 34.5155 15.3158 34.2646 15.3102V15.31H34.2471H30.2827L20.8364 6.60389C21.1485 6.02952 21.348 5.35552 21.348 4.675C21.348 2.56241 19.6108 0.75 17.4212 0.75C15.2347 0.75 13.4944 2.48931 13.4944 4.675C13.4944 5.40474 13.6948 6.04056 14.0064 6.60597L4.73347 15.31H0.752876C0.212222 15.31 -0.25 15.7718 -0.25 16.3125V35.2475C-0.25 35.7882 0.212221 36.25 0.752876 36.25H34.2471C34.7878 36.25 35.25 35.7882 35.25 35.2475V16.3125V16.2963L35.2479 16.2802C35.2138 16.0192 35.0851 15.7816 34.9119 15.6085ZM33.2442 34.2275H1.70323V17.2625H33.2442V34.2275ZM17.4737 2.7025C18.5601 2.7025 19.4298 3.5869 19.4298 4.6575C19.4298 5.72681 18.5439 6.6125 17.4737 6.6125C16.4036 6.6125 15.5176 5.72681 15.5176 4.6575C15.5176 3.58819 16.4036 2.7025 17.4737 2.7025ZM7.56857 15.31L15.4718 7.94706C16.6987 8.68348 18.2138 8.68348 19.4406 7.94706L27.3439 15.31H7.56857Z" fill="white" stroke="white" stroke-width="0.5"/>
</g>
<defs>
<clipPath id="clip0_547_692">
<rect width="37" height="37" fill="white"/>
</clipPath>
</defs>
</svg>
