<svg width="37" height="37" viewBox="0 0 37 37" fill="none" xmlns="http://www.w3.org/2000/svg">
<g clip-path="url(#clip0_547_682)">
<path d="M5.67188 10.575C5.67188 15.372 9.49922 19.2815 14.2644 19.414V19.435H14.5144C19.3949 19.435 23.3569 15.4731 23.3569 10.5925C23.3569 5.7116 19.3771 1.75 14.5144 1.75C9.6523 1.75 5.67188 5.69343 5.67188 10.575ZM7.15187 10.575C7.15187 6.51307 10.4524 3.2125 14.5144 3.2125C18.5763 3.2125 21.8769 6.51307 21.8769 10.575C21.8769 14.6369 18.5763 17.9375 14.5144 17.9375C10.4524 17.9375 7.15187 14.6369 7.15187 10.575Z" fill="white" stroke="white" stroke-width="0.5"/>
<path d="M4.18922 37.2501H25.2592C25.6831 37.2501 25.9992 36.9048 25.9992 36.5101V29.2301C25.9992 23.0195 20.9348 17.9551 14.7242 17.9551C8.51365 17.9551 3.44922 23.0195 3.44922 29.2301V36.5101C3.44922 36.9339 3.7945 37.2501 4.18922 37.2501ZM24.5192 29.2476V35.7876H4.89422V29.2476C4.89422 23.8381 9.29729 19.4351 14.7067 19.4351C20.1161 19.4351 24.5192 23.8381 24.5192 29.2476Z" fill="white" stroke="white" stroke-width="0.5"/>
<path d="M21.2668 6.78031L21.2668 6.78038L21.2727 6.77944C21.5885 6.72958 21.9073 6.7125 22.2313 6.7125C25.8382 6.7125 28.7712 9.64557 28.7712 13.2525C28.7712 16.8594 25.8382 19.7925 22.2313 19.7925C20.4958 19.7925 18.8442 19.1019 17.613 17.8707C17.3229 17.5806 16.8671 17.5806 16.577 17.8707C16.2868 18.1609 16.2868 18.6166 16.577 18.9068C18.0899 20.4197 20.1067 21.2504 22.2313 21.255V21.255H22.2488V21.255C26.6488 21.2455 30.2338 17.6547 30.2338 13.2525C30.2338 8.84443 26.6393 5.25 22.2313 5.25C21.8319 5.25 21.435 5.28624 21.0594 5.33986C20.6515 5.39497 20.3915 5.77357 20.4434 6.16304C20.4979 6.5717 20.8769 6.83229 21.2668 6.78031Z" fill="white" stroke="white" stroke-width="0.5"/>
<path d="M31.8916 37.2498H32.1416V37.1897C32.4339 37.0857 32.6316 36.8044 32.6316 36.4923V29.9473C32.6316 24.3355 28.1309 19.7573 22.5991 19.7573C22.0233 19.7573 21.4673 19.8113 20.9143 19.9005L20.9143 19.9003L20.9051 19.9022C20.5302 19.9772 20.2225 20.3366 20.3065 20.7564C20.3847 21.1472 20.7507 21.4102 21.1447 21.3576L21.1447 21.3579L21.1556 21.3559C21.6281 21.2716 22.1205 21.2373 22.5991 21.2373C27.3041 21.2373 31.1516 25.1459 31.1516 29.9648V35.7698H25.2591C24.8411 35.7698 24.5191 36.0917 24.5191 36.5098C24.5191 36.9337 24.8644 37.2498 25.2591 37.2498H31.8916Z" fill="white" stroke="white" stroke-width="0.5"/>
</g>
<defs>
<clipPath id="clip0_547_682">
<rect width="37" height="37" fill="white"/>
</clipPath>
</defs>
</svg>
