<svg width="37" height="37" viewBox="0 0 37 37" fill="none" xmlns="http://www.w3.org/2000/svg">
<g clip-path="url(#clip0_871_210)">
<path d="M34.3585 9.72999C34.0985 9.33999 33.5885 9.27999 33.2585 9.46999C32.8685 9.72999 32.8085 10.24 32.9985 10.57C36.2185 15.47 36.1585 21.66 32.9985 26.37C32.7385 26.76 32.8685 27.27 33.2585 27.47C33.6485 27.73 34.1585 27.6 34.3585 27.21C37.8385 21.99 37.9085 15.15 34.3585 9.73999V9.72999Z" fill="white" stroke="white"/>
<path d="M31.1398 12.1201C30.8798 11.7301 30.4298 11.6001 30.0398 11.8601C29.6498 12.1201 29.5198 12.5701 29.7798 12.9601C30.8098 14.6401 31.3898 16.5701 31.3898 18.4401C31.3898 20.3101 30.8098 22.3101 29.7798 23.9801C29.5198 24.3701 29.6498 24.8801 30.0398 25.0801C30.4298 25.3401 30.9398 25.2101 31.1398 24.8201C33.6498 20.9501 33.6498 16.1201 31.1398 12.1201Z" fill="white" stroke="white"/>
<path d="M26.6864 14.31C26.2964 14.5 26.1664 15.02 26.3664 15.41C27.5264 17.47 27.4664 19.67 26.3664 21.6C26.1764 21.99 26.3064 22.5 26.6864 22.7C27.0764 22.89 27.5864 22.76 27.7864 22.38C29.1364 19.99 29.2664 17.16 27.7864 14.64C27.5264 14.25 27.0764 14.12 26.6864 14.32V14.31Z" fill="white" stroke="white"/>
<path d="M24.1083 5.93008C24.1083 5.35008 23.5283 4.96008 22.9483 5.22008L5.34828 12.9601H2.95828C1.27828 12.9601 -0.0117188 14.3101 -0.0117188 15.9301V21.0201C-0.0117188 22.7001 1.33828 23.9901 2.95828 23.9901H5.34828L22.9483 31.6001C23.4683 31.8601 24.0483 31.4701 24.0483 30.8901C24.1083 29.9901 24.1083 6.33008 24.1083 5.94008V5.93008ZM1.60828 21.0101V15.9201C1.60828 15.1501 2.24828 14.5701 2.95828 14.5701H4.69828V22.3701H2.95828C2.24828 22.4301 1.60828 21.7901 1.60828 21.0201V21.0101ZM6.31828 22.6901V14.3101L22.4983 7.15008V10.0501L9.14828 15.4001C8.75828 15.5901 8.50828 16.0501 8.69828 16.4301C8.88828 16.8201 9.33828 17.0801 9.72828 16.8801L22.4983 11.7901V29.6501L6.31828 22.6901Z" fill="white" stroke="white"/>
</g>
<defs>
<clipPath id="clip0_871_210">
<rect width="37" height="37" fill="white"/>
</clipPath>
</defs>
</svg>
