<svg width="37" height="37" viewBox="0 0 37 37" fill="none" xmlns="http://www.w3.org/2000/svg">
<g clip-path="url(#clip0_547_677)">
<path d="M13.5475 26.35C16.4199 26.35 19.2753 25.3826 21.6166 23.4815L34.3183 36.1768L34.495 36.3535L34.6717 36.1768L36.1767 34.6726L36.3536 34.4958L36.1767 34.3189L23.4753 21.6239C27.4482 16.7451 27.3022 9.62645 23.0049 4.92316H23.0413L22.6142 4.49634C20.1154 1.99875 16.831 0.75 13.565 0.75C10.2994 0.75 6.99736 1.9985 4.49827 4.49634C-0.499596 9.49171 -0.499143 17.5909 4.49795 22.6033L4.49827 22.6036C6.99711 25.1012 10.2815 26.35 13.5475 26.35ZM20.8461 20.6725H20.829L20.7558 20.7457C18.825 22.6755 16.281 23.7335 13.5475 23.7335C10.814 23.7335 8.27002 22.6755 6.33923 20.7457C2.37699 16.7855 2.37699 10.3149 6.35635 6.35461L6.35673 6.35423C8.28752 4.42441 10.8315 3.36644 13.565 3.36644C16.2985 3.36644 18.8425 4.42441 20.7733 6.35423C24.729 10.308 24.7526 16.7066 20.8461 20.6725Z" fill="white" stroke="white" stroke-width="0.5"/>
</g>
<defs>
<clipPath id="clip0_547_677">
<rect width="37" height="37" fill="white"/>
</clipPath>
</defs>
</svg>
