<svg width="80" height="80" viewBox="0 0 80 80" fill="none" xmlns="http://www.w3.org/2000/svg">
<g clip-path="url(#clip0_320_104)">
<path d="M64.9201 27.42C64.9201 41.18 40.0001 77.5 40.0001 77.5C40.0001 77.5 15.0801 41.18 15.0801 27.42C15.0801 13.66 26.2401 2.5 40.0001 2.5C53.7601 2.5 64.9201 13.66 64.9201 27.42Z" fill="#DB1F27"/>
<path d="M40 38.0299C46.4673 38.0299 51.71 32.7871 51.71 26.3199C51.71 19.8526 46.4673 14.6099 40 14.6099C33.5328 14.6099 28.29 19.8526 28.29 26.3199C28.29 32.7871 33.5328 38.0299 40 38.0299Z" fill="white"/>
<path d="M19.3502 29.6098C19.3502 17.6498 29.0402 7.9598 41.0002 7.9598C47.9902 7.9598 54.2002 11.2698 58.1602 16.4098C54.4202 9.9198 47.4202 5.5498 39.3902 5.5498C27.4302 5.5498 17.7402 15.2398 17.7402 27.1998C17.7402 32.1698 19.4102 36.7398 22.2302 40.3998C20.4002 37.2198 19.3502 33.5398 19.3502 29.6098Z" fill="#EB4943"/>
<path d="M34.1201 67.9698C37.5201 73.6598 40.0001 77.4998 40.0001 77.4998C40.0001 77.4998 64.9201 41.1798 64.9201 27.4198C64.9201 26.6998 64.8801 25.9798 64.8201 25.2798C63.8401 29.0998 62.4501 32.8298 60.7401 36.3798C56.0201 46.1998 49.0501 52.4898 41.6201 60.4598C39.2201 63.0298 36.7301 65.5698 34.1201 67.9798V67.9698Z" fill="#C82127"/>
</g>
<defs>
<clipPath id="clip0_320_104">
<rect width="80" height="80" fill="white"/>
</clipPath>
</defs>
</svg>
