<svg width="31" height="20" viewBox="0 0 31 20" fill="none" xmlns="http://www.w3.org/2000/svg">
<line x1="10.1016" y1="-2.73196e-08" x2="10.1016" y2="20" stroke="white"/>
<line x1="4.5" y1="-2.73196e-08" x2="4.5" y2="20" stroke="white"/>
<line x1="15.6992" y1="-2.73196e-08" x2="15.6992" y2="20" stroke="white"/>
<line x1="20" y1="10.1001" x2="-4.37114e-08" y2="10.1001" stroke="white"/>
<line x1="20" y1="5.2998" x2="-4.37114e-08" y2="5.2998" stroke="white"/>
<line x1="20" y1="15.7002" x2="-4.37114e-08" y2="15.7002" stroke="white"/>
<path d="M24.3296 13.78C24.3296 13.78 24.2791 13.78 24.2575 13.7656C24.1855 13.7367 24.1423 13.6718 24.1423 13.5924L24.0703 4.2658C24.0703 4.1864 24.1135 4.12144 24.1855 4.09256C24.2575 4.06369 24.3367 4.07812 24.3944 4.13587L30.8825 10.7915C30.9329 10.8493 30.9545 10.9287 30.9185 11.0008C30.8897 11.073 30.8177 11.1163 30.7457 11.1163L27.066 11.073L24.4664 13.7295C24.4304 13.7656 24.38 13.7873 24.3296 13.7873V13.78ZM24.452 4.73503L24.5168 13.1304L26.8499 10.7482C26.8859 10.7121 26.9435 10.6977 26.9867 10.6904L30.292 10.7265L24.452 4.73503Z" fill="white"/>
<path d="M24.3313 13.8522C24.3313 13.8522 24.2664 13.8522 24.2304 13.8305C24.1296 13.7944 24.072 13.7006 24.072 13.5923L24 4.26578C24 4.1575 24.0648 4.06366 24.1584 4.02035C24.2592 3.97704 24.3673 4.00591 24.4393 4.0781L30.9274 10.7337C30.9994 10.8059 31.021 10.9214 30.9778 11.0153C30.9346 11.1091 30.841 11.1741 30.7402 11.1741L27.0893 11.138L24.5113 13.7728C24.4609 13.8233 24.3961 13.8522 24.3241 13.8522H24.3313ZM24.2592 4.15029C24.2592 4.15029 24.2304 4.15029 24.216 4.15751C24.1728 4.17916 24.144 4.22247 24.144 4.26578L24.216 13.5923C24.216 13.6429 24.2448 13.6862 24.288 13.7006C24.3313 13.715 24.3817 13.7006 24.4177 13.6717L27.0172 11.0153C27.0172 11.0153 27.0533 11.0008 27.0677 10.9936L30.7474 11.0369C30.7978 11.0369 30.841 11.008 30.8554 10.9647C30.877 10.9214 30.8626 10.8709 30.8338 10.8348L24.3457 4.17916C24.3457 4.17916 24.2952 4.14307 24.2592 4.14307V4.15029ZM24.5185 13.2025C24.5185 13.2025 24.5041 13.2025 24.4897 13.2025C24.4609 13.1953 24.4465 13.1664 24.4465 13.1376L24.3817 4.74222C24.3817 4.74222 24.3961 4.68447 24.4249 4.67725C24.4537 4.66282 24.4825 4.67726 24.5041 4.69169L30.3441 10.6832C30.3441 10.6832 30.3729 10.7337 30.3585 10.7626C30.3441 10.7915 30.3225 10.8059 30.2937 10.8059L26.9884 10.7698C26.9884 10.7698 26.9236 10.7843 26.902 10.8059L24.5689 13.1881C24.5689 13.1881 24.5401 13.2097 24.5185 13.2097V13.2025ZM24.5185 4.90825L24.5833 12.9571L26.8012 10.6976C26.8588 10.6327 26.9452 10.6254 26.9812 10.6182L30.1209 10.6543L24.5185 4.90825Z" fill="white"/>
<path d="M29.2874 16.6458C29.2154 16.6458 29.1434 16.6025 29.1146 16.5303L26.8175 10.9575C26.7743 10.8636 26.8175 10.7481 26.9183 10.712C27.0119 10.6687 27.1271 10.712 27.1631 10.8131L29.4603 16.3859C29.5035 16.4798 29.4603 16.5953 29.3594 16.6314C29.3378 16.6386 29.309 16.6458 29.2874 16.6458Z" fill="white"/>
<path d="M29.2868 16.7181C29.1788 16.7181 29.0852 16.6531 29.0492 16.5592L26.7521 10.9864C26.7233 10.9215 26.7233 10.8493 26.7521 10.7843C26.7809 10.7193 26.8313 10.6688 26.8961 10.6471C26.9609 10.6183 27.0329 10.6183 27.0977 10.6471C27.1625 10.676 27.2129 10.7265 27.2345 10.7915L29.5317 16.3643C29.5605 16.4293 29.5605 16.5015 29.5317 16.5665C29.5029 16.6314 29.4525 16.682 29.3877 16.7108C29.3589 16.7253 29.3229 16.7325 29.2868 16.7325V16.7181ZM26.9897 10.7626C26.9897 10.7626 26.9609 10.7626 26.9465 10.7699C26.9177 10.7843 26.8961 10.806 26.8817 10.8348C26.8673 10.8637 26.8673 10.8926 26.8817 10.9287L29.1788 16.5015C29.2004 16.5592 29.2724 16.5881 29.3301 16.5665C29.3589 16.552 29.3805 16.5304 29.3949 16.5015C29.4093 16.4726 29.4093 16.4437 29.3949 16.4077L27.0977 10.8348C27.0977 10.8348 27.0617 10.7843 27.0329 10.7699C27.0185 10.7699 27.0041 10.7626 26.9897 10.7626Z" fill="white"/>
</svg>
