<svg width="36" height="20" viewBox="0 0 36 20" fill="none" xmlns="http://www.w3.org/2000/svg">
<path d="M33 1L30.1133 6L35.8868 6L33 1ZM33.5 19L33.5 5.5L32.5 5.5L32.5 19L33.5 19Z" fill="white"/>
<line x1="18.1016" y1="-2.73196e-08" x2="18.1016" y2="20" stroke="white"/>
<line x1="12.5" y1="-2.73196e-08" x2="12.5" y2="20" stroke="white"/>
<line x1="23.6992" y1="-2.73196e-08" x2="23.6992" y2="20" stroke="white"/>
<line x1="28" y1="10.1001" x2="8" y2="10.1001" stroke="white"/>
<line x1="28" y1="5.2998" x2="8" y2="5.2998" stroke="white"/>
<line x1="28" y1="15.7002" x2="8" y2="15.7002" stroke="white"/>
<path d="M3 19L5.88675 14L0.113248 14L3 19ZM2.5 1L2.5 14.5L3.5 14.5L3.5 1L2.5 1Z" fill="white"/>
</svg>
