<svg width="20" height="20" viewBox="0 0 20 20" fill="none" xmlns="http://www.w3.org/2000/svg">
<g id="&#236;&#130;&#173;&#236;&#160;&#156;" clip-path="url(#clip0_989_127)">
<g id="&#236;&#130;&#173;&#236;&#160;&#156;_2">
<g id="Group">
<path id="Vector" d="M19.5665 2.49169H14.9819V1.59468C14.9819 0.697674 14.2496 0 13.3859 0H6.60755C5.711 0 5.01149 0.730897 5.01149 1.59468V2.49169H0.430213C0.197044 2.49169 0 2.69103 0 2.92359C0 3.15615 0.200328 3.35548 0.430213 3.35548H2.92282V19.5681C2.92282 19.8007 3.12315 20 3.35632 20H16.6437C16.8768 20 17.0739 19.8007 17.0739 19.5681V3.32226H19.5665C19.7997 3.32226 20 3.12292 20 2.89037C19.9672 2.69103 19.7668 2.49169 19.5665 2.49169ZM5.84565 1.59468C5.84565 1.16279 6.17734 0.830565 6.61084 0.830565H13.3563C13.7865 0.830565 14.1215 1.16279 14.1215 1.59468V2.49169H5.84893V1.59468H5.84565ZM16.243 19.103H3.78654V3.32226H16.243V19.103Z" fill="white" stroke="white"/>
<path id="Vector_2" d="M6.27725 5.41504C6.04408 5.41504 5.84375 5.61437 5.84375 5.84693V16.6443C5.84375 16.8768 6.04408 17.0762 6.27725 17.0762C6.51042 17.0762 6.70746 16.8768 6.70746 16.6443V5.81371C6.67462 5.58115 6.47429 5.41504 6.27725 5.41504Z" fill="white" stroke="white"/>
<path id="Vector_3" d="M10.0005 5.41504C9.76736 5.41504 9.57031 5.61437 9.57031 5.84693V16.6443C9.57031 16.8768 9.77064 17.0762 10.0005 17.0762C10.2304 17.0762 10.434 16.8768 10.434 16.6443V5.81371C10.434 5.58115 10.2337 5.41504 10.0005 5.41504Z" fill="white" stroke="white"/>
<path id="Vector_4" d="M13.7538 5.41504C13.5206 5.41504 13.3203 5.61437 13.3203 5.84693V16.6443C13.3203 16.8768 13.5206 17.0762 13.7538 17.0762C13.987 17.0762 14.184 16.8768 14.184 16.6443V5.81371C14.1512 5.58115 13.9509 5.41504 13.7538 5.41504Z" fill="white" stroke="white"/>
</g>
</g>
</g>
<defs>
<clipPath id="clip0_989_127">
<rect width="20" height="20" fill="white"/>
</clipPath>
</defs>
</svg>
