<svg width="40" height="40" viewBox="0 0 40 40" fill="none" xmlns="http://www.w3.org/2000/svg">
<g clip-path="url(#clip0_21_215)">
<path d="M0.819948 14.84H39.1999C39.6399 14.84 40.0199 14.46 40.0199 13.98C40.0199 13.64 39.8399 13.34 39.5799 13.2L20.4399 0.140005C20.1799 -0.0399951 19.8199 -0.0399951 19.5599 0.140005L0.379948 13.24C0.0799485 13.44 -0.0600515 13.84 0.0399485 14.22C0.139948 14.58 0.459948 14.84 0.819948 14.84ZM19.9999 1.90001L36.3999 13.12H3.57995L19.9999 1.90001Z" fill="black"/>
<path d="M36.4 18.2C36.84 18.2 37.22 17.82 37.22 17.34C37.22 16.86 36.86 16.48 36.4 16.48H3.65997C3.21997 16.48 2.83997 16.86 2.83997 17.34C2.83997 17.82 3.19997 18.2 3.65997 18.2H5.21997V35.5H3.65997C3.21997 35.5 2.83997 35.88 2.83997 36.36C2.83997 36.84 3.19997 37.22 3.65997 37.22H36.4C36.84 37.22 37.22 36.84 37.22 36.36C37.22 35.88 36.86 35.5 36.4 35.5H34.78V18.2H36.4ZM8.31997 35.5H6.85997V18.2H8.31997V35.5ZM13.52 35.5H9.93997V18.2H13.52V35.5ZM16.6 35.5H15.14V18.2H16.6V35.5ZM21.8 35.5H18.22V18.2H21.8V35.5ZM24.88 35.5H23.42V18.2H24.88V35.5ZM30.08 35.5H26.5V18.2H30.08V35.5ZM33.16 35.5H31.7V18.2H33.16V35.5Z" fill="black"/>
<path d="M39.94 39.14C39.94 38.66 39.58 38.28 39.12 38.28H0.82C0.38 38.28 0 38.66 0 39.14C0 39.62 0.36 40 0.82 40H39.14C39.58 40 39.96 39.62 39.96 39.14H39.94Z" fill="black"/>
</g>
<defs>
<clipPath id="clip0_21_215">
<rect width="40" height="40" fill="white"/>
</clipPath>
</defs>
</svg>
