<svg width="40" height="40" viewBox="0 0 40 40" fill="none" xmlns="http://www.w3.org/2000/svg">
<g clip-path="url(#clip0_21_359)">
<path d="M39.14 16.64H34.48L23.44 6.46C23.84 5.8 24.1 5 24.1 4.2C24.1 1.94 22.24 0 19.9 0C17.56 0 15.7 1.86 15.7 4.2C15.7 5.06 15.96 5.8 16.36 6.46L5.52 16.64H0.86C0.4 16.64 0 17.04 0 17.5V39.14C0 39.6 0.4 40 0.86 40H39.14C39.6 40 40 39.6 40 39.14V17.5C39.94 17.04 39.54 16.64 39.14 16.64ZM19.96 1.66C21.36 1.66 22.48 2.8 22.48 4.18C22.48 5.56 21.34 6.72 19.96 6.72C18.58 6.72 17.42 5.58 17.42 4.18C17.42 2.78 18.56 1.66 19.96 1.66ZM17.64 7.58C19.04 8.5 20.84 8.5 22.22 7.58L31.94 16.64H7.92L17.64 7.58ZM38.28 38.26H1.66V18.28H38.26V38.26H38.28Z" fill="black"/>
</g>
<defs>
<clipPath id="clip0_21_359">
<rect width="40" height="40" fill="white"/>
</clipPath>
</defs>
</svg>
