<svg width="40" height="40" viewBox="0 0 40 40" fill="none" xmlns="http://www.w3.org/2000/svg">
<g clip-path="url(#clip0_21_247)">
<path d="M39.14 38.26H32.48V6.63997C32.48 6.29997 32.28 6.03997 32.02 5.89997C19.64 -0.280028 20.3 0.039972 20.24 0.039972C20.04 -0.020028 19.84 -0.020028 19.64 0.099972C19.58 0.159972 10.18 4.81997 8 5.95997C7.74 6.09997 7.54 6.35997 7.54 6.69997V38.26H0.86C0.4 38.26 0 38.66 0 39.12C0 39.58 0.4 39.98 0.86 39.98H39.12C39.58 39.98 39.98 39.58 39.98 39.12C39.92 38.66 39.52 38.26 39.12 38.26H39.14ZM30.82 22.94L20.84 19.34V14.48L30.82 18.08V22.94ZM20.84 21.14L30.82 24.74V29.6L20.84 26V21.14ZM30.82 16.28L20.84 12.68V7.81997L30.82 11.42V16.28ZM20.84 27.8L30.82 31.4V36.26L20.84 32.66V27.8ZM30.82 9.61997L20.84 6.01997V2.15997L30.82 7.15997V9.61997ZM9.18 7.15997L19.16 2.15997V38.26H9.18V7.15997ZM20.82 38.26V34.46L30.8 38.06V38.26H20.82Z" fill="black"/>
</g>
<defs>
<clipPath id="clip0_21_247">
<rect width="40" height="40" fill="white"/>
</clipPath>
</defs>
</svg>
