<svg width="40" height="40" viewBox="0 0 40 40" fill="none" xmlns="http://www.w3.org/2000/svg">
<g clip-path="url(#clip0_21_133)">
<path d="M39.06 0H0.86C0.4 0 0 0.4 0 0.86C0 1.32 0.4 1.72 0.86 1.72H3.38V33C3.38 36.86 6.5 39.98 10.36 39.98H29.62C33.48 39.98 36.6 36.86 36.6 33V1.66H39.12C39.58 1.66 39.98 1.26 39.98 0.8C39.98 0.32 39.44 0 39.04 0L39.06 0ZM34.88 32.94C34.88 35.86 32.48 38.26 29.56 38.26H10.3C7.38 38.26 4.98 35.86 4.98 32.94V1.66H34.88V32.94Z" fill="black"/>
<path d="M8.29994 34.14H31.5599C32.0199 34.14 32.4199 33.74 32.4199 33.28V5C32.4199 4.54 32.0199 4.14 31.5599 4.14H8.29994C7.83994 4.14 7.43994 4.54 7.43994 5V33.28C7.49994 33.74 7.83994 34.14 8.29994 34.14ZM9.15994 5.86H30.7599V32.48H9.15994V5.86Z" fill="black"/>
</g>
<defs>
<clipPath id="clip0_21_133">
<rect width="40" height="40" fill="white"/>
</clipPath>
</defs>
</svg>
