<svg width="18" height="18" viewBox="0 0 18 18" fill="none" xmlns="http://www.w3.org/2000/svg">
<g id="buliding" clip-path="url(#clip0_989_2784)">
<g id="C - 459, Buildings, construction, house, landscape, real estate">
<path id="Vector" d="M17.075 16.7141C16.9757 16.6149 16.8336 16.534 16.6693 16.5313V16.5312H16.6608H14.0829V3.31445C14.0829 3.06089 13.9313 2.87381 13.7555 2.77917L13.7555 2.77906L13.7486 2.77561C12.466 2.13533 11.512 1.65884 10.8022 1.30435C10.0533 0.930296 9.57634 0.692087 9.27235 0.540634C8.97735 0.393664 8.84279 0.327176 8.78057 0.297591L8.77706 0.295919C8.75569 0.285743 8.72306 0.270195 8.69396 0.26206C8.6876 0.260282 8.67423 0.256642 8.65595 0.254356C8.52927 0.223677 8.38193 0.227058 8.23583 0.314722L8.23165 0.317248L8.23142 0.317369L8.19964 0.334088C8.16975 0.349592 8.12583 0.372032 8.06913 0.40078C7.95594 0.458169 7.79426 0.539474 7.5976 0.638073C7.30532 0.784611 6.93663 0.968915 6.53656 1.1689C6.39835 1.23799 6.2564 1.30895 6.11256 1.38087C4.99378 1.94027 3.75806 2.55919 3.29126 2.8033L3.29125 2.80329L3.28858 2.80472C3.11281 2.89937 2.9612 3.08644 2.9612 3.34V16.5312H0.366264C0.0322803 16.5312 -0.25 16.8135 -0.25 17.1475C-0.25 17.4815 0.0322803 17.7638 0.366264 17.7638H16.6608C16.9947 17.7638 17.277 17.4815 17.277 17.1475V17.1313L17.2749 17.1152C17.2544 16.9576 17.1773 16.8165 17.075 16.7141ZM12.8759 8.36227V9.90058L9.12552 8.54772V7.00941L12.8759 8.36227ZM9.12552 11.3842V9.84587L12.8759 11.1987V12.737L9.12552 11.3842ZM12.8759 5.52581V7.06412L9.12552 5.71127V4.17295L12.8759 5.52581ZM9.12552 14.2206V12.6823L12.8759 14.0352V15.5735L9.12552 14.2206ZM12.8759 3.69028V4.22766L9.12552 2.87481V1.81131L12.8759 3.69028ZM4.15966 16.5312V3.69028L7.91003 1.81131V16.5312H4.15966ZM9.117 16.5312V15.5188L11.9237 16.5312H9.117Z" fill="white" stroke="white" stroke-width="0.5"/>
</g>
</g>
<defs>
<clipPath id="clip0_989_2784">
<rect width="18" height="18" fill="white"/>
</clipPath>
</defs>
</svg>
