<svg width="18" height="18" viewBox="0 0 18 18" fill="none" xmlns="http://www.w3.org/2000/svg">
<g id="buliding" clip-path="url(#clip0_989_2555)">
<g id="C - 459, Buildings, construction, house, landscape, real estate">
<path id="Vector" d="M17.075 16.7142C16.9757 16.615 16.8336 16.5341 16.6693 16.5314V16.5313H16.6608H14.0829V3.31451C14.0829 3.06095 13.9313 2.87388 13.7555 2.77923L13.7555 2.77912L13.7486 2.77567C12.466 2.13539 11.512 1.6589 10.8022 1.30441C10.0533 0.930357 9.57634 0.692148 9.27235 0.540695C8.97735 0.393725 8.84279 0.327237 8.78057 0.297652L8.77706 0.29598C8.75569 0.285804 8.72306 0.270256 8.69396 0.262121C8.6876 0.260343 8.67423 0.256703 8.65595 0.254417C8.52927 0.223738 8.38193 0.227119 8.23583 0.314783L8.23165 0.317309L8.23142 0.31743L8.19964 0.334149C8.16975 0.349653 8.12583 0.372093 8.06913 0.400841C7.95594 0.45823 7.79426 0.539535 7.5976 0.638134C7.30532 0.784672 6.93663 0.968976 6.53656 1.16896C6.39835 1.23805 6.2564 1.30901 6.11256 1.38093C4.99378 1.94033 3.75806 2.55925 3.29126 2.80336L3.29125 2.80335L3.28858 2.80478C3.11281 2.89943 2.9612 3.0865 2.9612 3.34006V16.5313H0.366264C0.0322803 16.5313 -0.25 16.8136 -0.25 17.1476C-0.25 17.4816 0.0322803 17.7638 0.366264 17.7638H16.6608C16.9947 17.7638 17.277 17.4816 17.277 17.1476V17.1313L17.2749 17.1152C17.2544 16.9576 17.1773 16.8165 17.075 16.7142ZM12.8759 8.36233V9.90064L9.12552 8.54779V7.00947L12.8759 8.36233ZM9.12552 11.3842V9.84593L12.8759 11.1988V12.7371L9.12552 11.3842ZM12.8759 5.52587V7.06418L9.12552 5.71133V4.17301L12.8759 5.52587ZM9.12552 14.2207V12.6824L12.8759 14.0353V15.5736L9.12552 14.2207ZM12.8759 3.69034V4.22772L9.12552 2.87487V1.81137L12.8759 3.69034ZM4.15966 16.5313V3.69034L7.91003 1.81137V16.5313H4.15966ZM9.117 16.5313V15.5189L11.9237 16.5313H9.117Z" fill="#F44178" stroke="#F44178" stroke-width="0.5"/>
</g>
</g>
<defs>
<clipPath id="clip0_989_2555">
<rect width="18" height="18" fill="white"/>
</clipPath>
</defs>
</svg>
