<svg width="25" height="22" viewBox="0 0 25 22" fill="none" xmlns="http://www.w3.org/2000/svg">
<g id="&#236;&#136;&#152;&#236;&#160;&#149;">
<g id="Group">
<path id="Vector" d="M23.1632 21.0925H1.42208C1.25791 21.0925 1.11719 20.9515 1.11719 20.787C1.11719 20.6225 1.25791 20.4814 1.42208 20.4814H23.1632C23.3273 20.4814 23.468 20.6225 23.468 20.787C23.468 20.9515 23.3273 21.0925 23.1632 21.0925Z" fill="#F44178" stroke="#F44178"/>
<path id="Vector_2" d="M23.1632 21.2101H1.42216C1.18763 21.2101 1 21.0221 1 20.7871C1 20.552 1.18763 20.364 1.42216 20.364H23.1632C23.3978 20.364 23.5854 20.552 23.5854 20.7871C23.5854 21.0221 23.3978 21.2101 23.1632 21.2101ZM1.42216 20.599C1.31662 20.599 1.23453 20.6813 1.23453 20.7871C1.23453 20.8928 1.31662 20.9751 1.42216 20.9751H23.1632C23.2688 20.9751 23.3509 20.8928 23.3509 20.7871C23.3509 20.6813 23.2688 20.599 23.1632 20.599H1.42216Z" fill="#F44178" stroke="#F44178"/>
</g>
<g id="Group_2">
<path id="Vector_3" d="M7.10582 18.7068C7.10582 18.7068 6.98855 18.6951 6.94165 18.6598C6.85956 18.6011 6.81266 18.5188 6.80093 18.4248L6.57812 14.8641C6.57812 14.7935 6.58985 14.7348 6.62503 14.676L15.3027 1.26744C15.3965 1.12642 15.5841 1.07941 15.7249 1.17342L19.2663 3.47675C19.3366 3.52375 19.3835 3.59426 19.3953 3.67652C19.407 3.75878 19.3953 3.84104 19.3484 3.91155L10.6707 17.3202C10.6707 17.3202 10.5886 17.4142 10.5183 17.4377L7.18791 18.6951C7.18791 18.6951 7.11755 18.7186 7.08237 18.7186L7.10582 18.7068ZM7.19963 14.9228L7.38726 17.9665L10.2251 16.8971L18.68 3.82928L15.6545 1.86676L7.19963 14.9346V14.9228Z" fill="#F44178" stroke="#F44178"/>
<path id="Vector_4" d="M7.1059 18.8245C7.02381 18.8245 6.94173 18.801 6.87137 18.754C6.7541 18.6835 6.68374 18.5542 6.68374 18.4249L6.46094 14.8642C6.46094 14.7701 6.48439 14.6879 6.5313 14.6056L15.209 1.19704C15.2676 1.10302 15.3614 1.03251 15.4787 1.00901C15.5842 0.985503 15.7015 1.00901 15.7953 1.06777L19.3367 3.37108C19.4305 3.42983 19.5009 3.52386 19.5243 3.64138C19.5478 3.74714 19.5243 3.86464 19.4657 3.95866L10.788 17.3673C10.7411 17.4378 10.6708 17.4965 10.5887 17.5318L7.25835 18.7892C7.25835 18.7892 7.16453 18.8127 7.1059 18.8127V18.8245ZM15.5608 1.23229C15.5608 1.23229 15.5373 1.23229 15.5256 1.23229C15.4787 1.23229 15.4318 1.26754 15.4083 1.31454L6.73065 14.7231C6.73065 14.7231 6.69547 14.7937 6.69547 14.8407L6.91827 18.4014C6.91827 18.4602 6.95345 18.5189 7.00036 18.5542C7.04727 18.5894 7.11763 18.5894 7.17626 18.5777L10.5066 17.3203C10.5066 17.3203 10.577 17.285 10.6004 17.2498L19.2781 3.84115C19.2781 3.84115 19.3133 3.74713 19.3015 3.70012C19.3015 3.65311 19.2664 3.60612 19.2195 3.58261L15.678 1.27929C15.678 1.27929 15.6077 1.24403 15.5725 1.24403L15.5608 1.23229ZM7.38734 18.0841C7.38734 18.0841 7.34043 18.0841 7.3287 18.0606C7.29352 18.0371 7.2818 18.0018 7.2818 17.9666L7.09417 14.9229C7.09417 14.9229 7.09417 14.8759 7.11763 14.8524L15.5725 1.78462C15.5725 1.78462 15.678 1.71411 15.7367 1.74936L18.7621 3.71188C18.7621 3.71188 18.809 3.75889 18.809 3.78239C18.809 3.81764 18.809 3.84114 18.7973 3.86464L10.3424 16.9325C10.3424 16.9325 10.3073 16.9677 10.2838 16.9795L7.44597 18.0489C7.44597 18.0489 7.42252 18.0489 7.41079 18.0489L7.38734 18.0841ZM7.31698 14.9582L7.49288 17.8021L10.1548 16.7914L18.5276 3.8529L15.6898 2.0079L7.31698 14.9464V14.9582ZM10.4362 17.2615C10.3776 17.2615 10.319 17.2145 10.319 17.144C10.319 17.0735 10.3659 17.0265 10.4362 17.0265C10.4949 17.0265 10.5535 17.0735 10.5535 17.144C10.5535 17.2145 10.5066 17.2615 10.4362 17.2615Z" fill="#F44178" stroke="#F44178"/>
</g>
</g>
</svg>
