<svg width="16" height="18" viewBox="0 0 16 18" fill="none" xmlns="http://www.w3.org/2000/svg">
<g id="&#236;&#149;&#148;&#237;&#152;&#184;">
<g id="&#236;&#149;&#148;&#237;&#152;&#184;_2">
<path id="Vector" d="M7.875 2.25C9.68625 2.25 11.25 3.78 11.25 5.625H13.5C13.5 2.475 10.98 0 7.875 0C4.77 0 2.25 2.475 2.25 5.625H4.5C4.5 3.78 6.06375 2.25 7.875 2.25ZM13.5 6.75V5.625H11.25V6.75H4.5V5.625H2.25V6.75C1.0125 6.75 0 7.7625 0 9V15.75C0 16.9875 1.0125 18 2.25 18H13.5C14.7375 18 15.75 16.9875 15.75 15.75V9C15.75 7.7625 14.7375 6.75 13.5 6.75Z" fill="white"/>
</g>
</g>
</svg>
