<svg width="31" height="20" viewBox="0 0 31 20" fill="none" xmlns="http://www.w3.org/2000/svg">
<g id="&#236;&#157;&#184;&#236;&#130;&#172;&#235;&#148;&#148;&#235;&#185;&#132;&#235;&#143;&#153;&#234;&#184;&#176;&#237;&#153;&#148;" clip-path="url(#clip0_989_2724)">
<path id="Vector" d="M17.3709 13.1119C18.2997 12.3706 18.9002 11.2062 18.9002 9.9C18.9002 7.6718 17.1567 5.85 15 5.85C12.8433 5.85 11.0998 7.6718 11.0998 9.9C11.0998 11.2062 11.7003 12.3706 12.6291 13.1119C10.4108 14.0796 8.85 16.3521 8.85 19V19.15H9H9.99967H10.1497V19C10.1497 16.2107 12.3318 13.95 15 13.95C17.6682 13.95 19.8503 16.2107 19.8503 19V19.15H20.0003H21H21.15V19C21.15 16.3521 19.5892 14.0796 17.3709 13.1119ZM15 12.6104C13.5721 12.6104 12.3994 11.3996 12.3994 9.9C12.3994 8.40044 13.5721 7.18959 15 7.18959C16.4279 7.18959 17.6006 8.40044 17.6006 9.9C17.6006 11.3996 16.4279 12.6104 15 12.6104Z" fill="white" stroke="white" stroke-width="0.3"/>
<path id="Vector_2" d="M22.4789 11.5619C23.3755 10.8761 23.9568 9.80432 23.9568 8.6C23.9568 6.52937 22.2462 4.85 20.1475 4.85C19.1305 4.85 18.2073 5.24606 17.5227 5.88806L17.5227 5.88806L17.5223 5.88844C17.2704 6.12636 17.0499 6.39641 16.8711 6.69679L16.7812 6.84779L16.9445 6.91285C17.2396 7.03046 17.5205 7.17519 17.7782 7.34845L17.9068 7.43489L17.989 7.30362C18.1526 7.0426 18.3615 6.81388 18.6066 6.62807C19.0337 6.30449 19.5658 6.11151 20.1456 6.11151C21.5445 6.11151 22.6794 7.23151 22.6794 8.60189C22.6794 9.73847 21.8968 10.7021 20.8308 10.9974L20.8306 10.9975C20.6121 11.0584 20.3832 11.0923 20.1456 11.0923C20.0654 11.0923 19.9857 11.087 19.9031 11.0796L19.7477 11.0657L19.7399 11.2215C19.7231 11.5566 19.6692 11.8805 19.5818 12.1895L19.523 12.3974L19.7384 12.3798C19.7826 12.3762 19.8245 12.3721 19.8651 12.3681C19.9617 12.3587 20.051 12.35 20.1456 12.35C20.3362 12.35 20.5243 12.3646 20.7128 12.3868C23.0549 12.6641 24.8746 14.628 24.8746 17V17.15H25.0246H26H26.15V17C26.15 14.5544 24.6314 12.4599 22.4789 11.5619Z" fill="white" stroke="white" stroke-width="0.3"/>
<path id="Vector_3" d="M10.2601 12.3796L10.4793 12.4006L10.4186 12.1889C10.3296 11.8789 10.2775 11.5552 10.2607 11.2215L10.2529 11.0657L10.0976 11.0796C10.0149 11.087 9.93527 11.0923 9.8551 11.0923C9.61753 11.0923 9.38871 11.0584 9.17023 10.9975L9.16999 10.9974C8.10425 10.7021 7.32183 9.74032 7.32183 8.60189C7.32183 7.23148 8.45649 6.11151 9.8551 6.11151C10.4344 6.11151 10.9665 6.30615 11.3939 6.62819C11.6393 6.81426 11.8496 7.04289 12.0108 7.30297L12.0925 7.43491L12.2216 7.34872C12.4816 7.17508 12.7608 7.03034 13.0555 6.91284L13.2201 6.84727L13.1283 6.69579C12.9484 6.39871 12.7303 6.12693 12.4779 5.88845L12.4776 5.88822C11.7949 5.24599 10.8699 4.85 9.85317 4.85C7.75488 4.85 6.0447 6.5294 6.0447 8.6C6.0447 9.80392 6.62383 10.8756 7.52136 11.5615C5.36871 12.4593 3.85 14.554 3.85 17V17.15H4H4.97521H5.12521V17C5.12521 14.628 6.94451 12.664 9.28607 12.3868C9.47453 12.3646 9.66264 12.35 9.85317 12.35H9.8551C9.96381 12.35 10.0692 12.3606 10.1826 12.372C10.208 12.3745 10.2338 12.3771 10.2601 12.3796Z" fill="white" stroke="white" stroke-width="0.3"/>
<path id="Vector_4" d="M26.4606 8.1129C28.6277 9.08105 30.15 11.3542 30.15 14V14.15H30H29.0246H28.8746V14C28.8746 11.6108 27.3111 9.61938 25.2324 9.09386L25.1004 9.06048L25.1208 8.92586C25.1547 8.70323 25.1768 8.4815 25.1768 8.25548C25.1768 8.00475 25.1528 7.76084 25.1134 7.52123L25.0953 7.41112L25.1956 7.36214C26.0664 6.93685 26.6794 5.99764 26.6794 4.90144C26.6794 3.39859 25.5334 2.19148 24.1456 2.19148C23.569 2.19148 23.0384 2.39925 22.6112 2.74991L26.4606 8.1129ZM26.4606 8.1129C27.3697 7.37132 27.9568 6.20585 27.9568 4.89939C27.9568 2.67506 26.2573 0.85 24.1475 0.85C23.1266 0.85 22.2021 1.28073 21.5184 1.9752L21.518 1.97559C21.2665 2.23295 21.0466 2.5247 20.8685 2.84876L20.7891 2.99333L20.9406 3.05871C21.2353 3.18592 21.516 3.34253 21.7736 3.53018L21.9083 3.62828L21.9917 3.48404C22.1562 3.19976 22.3659 2.95132 22.6112 2.74992L26.4606 8.1129Z" fill="#EF4444" stroke="#EF4444" stroke-width="0.3"/>
<path id="Vector_5" d="M5.88661 7.52104L5.90453 7.41105L5.80439 7.36214C4.93362 6.93685 4.32059 5.99764 4.32059 4.90144C4.32059 3.39859 5.46663 2.19148 6.85443 2.19148C7.43063 2.19148 7.96134 2.40106 8.38898 2.75006C8.6346 2.95174 8.84581 3.20007 9.00789 3.48341L9.09076 3.62826L9.22599 3.53048C9.48605 3.34242 9.76503 3.18579 10.0594 3.05871L10.2121 2.99284L10.1309 2.84777C9.95159 2.52716 9.73405 2.23351 9.48202 1.97559L9.48178 1.97535C8.79986 1.28065 7.87333 0.85 6.8525 0.85L6.85235 0.85C4.74453 0.852143 3.04517 2.67712 3.04517 4.90144C3.04517 6.20679 3.63119 7.3714 4.53906 8.11307C2.37211 9.08131 0.85 11.3544 0.85 14V14.15H1H1.97542H2.12542V14C2.12542 11.6107 3.68899 9.61738 5.7675 9.09389L5.89984 9.06056L5.87913 8.92566C5.84529 8.7053 5.82315 8.4836 5.82315 8.25548C5.82315 8.00685 5.84722 7.76291 5.88661 7.52104Z" fill="#EF4444" stroke="#EF4444" stroke-width="0.3"/>
<path id="Vector_6" d="M17.9442 4.02949L17.9853 4.23462L18.1664 4.12983C18.4214 3.98223 18.6397 3.89221 18.7928 3.83936C18.8693 3.81294 18.9295 3.79582 18.9697 3.78546C18.9899 3.78028 19.005 3.77679 19.0147 3.77466L19.0251 3.77247L19.027 3.77209L19.0271 3.77208L19.0271 3.77207L19.0271 3.77207L19.0272 3.77205L19.0273 3.77203L19.1866 3.74288L19.145 3.58609C18.728 2.01367 17.2531 0.85 15.5 0.85C13.747 0.85 12.27 2.01357 11.855 3.58626L11.8134 3.74365L11.9733 3.77215L11.9734 3.77217L11.9735 3.77219L11.9735 3.77219L11.9736 3.7722L11.9737 3.77222L11.9755 3.77257L11.9859 3.77471C11.9955 3.77679 12.0106 3.78021 12.0307 3.78531C12.0709 3.79553 12.131 3.81245 12.2074 3.83873C12.3603 3.89131 12.5784 3.98124 12.8333 4.12963L13.0146 4.23518L13.0558 4.02949C13.2773 2.925 14.2812 2.07857 15.5 2.07857C16.7188 2.07857 17.7227 2.925 17.9442 4.02949Z" fill="#EF4444" stroke="#EF4444" stroke-width="0.3"/>
</g>
<defs>
<clipPath id="clip0_989_2724">
<rect width="31" height="20" fill="white"/>
</clipPath>
</defs>
</svg>
