<svg width="20" height="18" viewBox="0 0 20 18" fill="none" xmlns="http://www.w3.org/2000/svg">
<g id="&#236;&#167;&#129;&#236;&#155;&#144;&#235;&#179;&#128;&#234;&#178;&#189;" clip-path="url(#clip0_989_2731)">
<path id="Vector" d="M8.94643 11.6745C9.98488 10.8917 10.6625 9.62665 10.6625 8.2C10.6625 5.83226 8.79821 3.9 6.5 3.9C4.2018 3.9 2.3375 5.83226 2.3375 8.2C2.3375 9.62664 3.01346 10.8918 4.05353 11.6746C1.62146 12.6831 -0.1 15.1344 -0.1 18V18.1H0H1.08333H1.18333V18C1.18333 14.9645 3.57185 12.5 6.5 12.5C9.42815 12.5 11.8167 14.9645 11.8167 18V18.1H11.9167H13H13.1V18C13.1 15.1344 11.3786 12.6813 8.94643 11.6745ZM6.5 11.18C4.91504 11.18 3.62083 9.84685 3.62083 8.2C3.62083 6.55315 4.91504 5.22 6.5 5.22C8.08496 5.22 9.37917 6.55315 9.37917 8.2C9.37917 9.84685 8.08496 11.18 6.5 11.18Z" fill="#FFB800" stroke="#FFB800" stroke-width="0.2"/>
<path id="Vector_2" d="M10.6847 2.75781C10.4212 2.96633 10.1941 3.22038 10.0104 3.50709C10.0119 3.50813 10.0134 3.50917 10.0149 3.51022L9.9577 3.59224L9.87187 3.54094C9.87289 3.53922 9.87392 3.5375 9.87495 3.53578C9.62791 3.37089 9.36644 3.2286 9.09253 3.10788C9.09055 3.11129 9.08857 3.1147 9.0866 3.11812L9 3.06812L9.03864 2.97588C9.04291 2.97767 9.04718 2.97947 9.05145 2.98127C9.23331 2.68202 9.44857 2.4071 9.69584 2.16367C10.4265 1.44465 11.4116 1 12.4975 1C14.7389 1 16.5627 2.88458 16.5627 5.20057C16.5627 6.61692 15.8793 7.86961 14.8378 8.63092C14.8742 8.64523 14.9104 8.65985 14.9465 8.67479M10.6847 2.75781L14.9465 8.67479M10.6847 2.75781C11.1882 2.35856 11.8145 2.11826 12.4957 2.11826C14.1401 2.11826 15.4768 3.49953 15.4768 5.19868C15.4768 6.60833 14.5539 7.79849 13.3014 8.16178M10.6847 2.75781L12.3116 8.27249C12.3726 8.27672 12.4342 8.27909 12.4957 8.27909C12.7759 8.27909 13.045 8.23557 13.3014 8.16178M14.9465 8.67479C17.3787 9.6824 19.1 12.1351 19.1 15V15.1H19H17.9159H17.8159V15C17.8159 12.1877 15.7643 9.86858 13.1334 9.542C12.9221 9.51587 12.7103 9.49924 12.4957 9.49924C12.3846 9.49924 12.2792 9.50965 12.1681 9.52063C12.1255 9.52483 12.0821 9.52912 12.0372 9.53294L11.8945 9.54509L11.9323 9.4069C12.0328 9.03973 12.0922 8.65527 12.112 8.25896L12.1172 8.15386L12.2219 8.16446C12.3126 8.17365 12.4044 8.17909 12.4957 8.17909C12.7654 8.17909 13.0253 8.13721 13.2737 8.06568L13.3014 8.16178M14.9465 8.67479C15.9851 7.8919 16.6627 6.62698 16.6627 5.20057C16.6627 2.83246 14.7972 0.9 12.4975 0.9C11.3836 0.9 10.3737 1.3563 9.6257 2.0924L9.62569 2.09241C9.34792 2.36585 9.10993 2.67773 8.9134 3.01812L8.85661 3.11647L8.96136 3.16035C9.29395 3.29968 9.60814 3.4704 9.9005 3.67427L9.9885 3.73563L10.0435 3.64355C10.2299 3.33178 10.4674 3.05729 10.7467 2.83622L10.7468 2.83617C11.234 2.44993 11.8386 2.21826 12.4957 2.21826C14.0818 2.21826 15.3768 3.55164 15.3768 5.19868C15.3768 6.56438 14.4828 7.71499 13.2736 8.06574L13.3014 8.16178" fill="#FFB800" stroke="#FFB800" stroke-width="0.2"/>
</g>
<defs>
<clipPath id="clip0_989_2731">
<rect width="20" height="18" fill="white"/>
</clipPath>
</defs>
</svg>
