<svg xmlns="http://www.w3.org/2000/svg" width="83" height="81">
    <path fill-rule="evenodd" fill="#FFF" d="M41.1 23.1c11.669 0 20.4 9.63 20.4 20.4 0 10.77-8.731 18.6-20.4 18.6-9.87 0-18.6-7.83-18.6-18.6 0-10.77 8.73-20.4 18.6-20.4z"/>
    <path fill-rule="evenodd" fill="#E55C00" d="M43.1 26.1c11.117 0 19.4 9.183 19.4 19.4 0 10.217-8.283 17.6-19.4 17.6-9.317 0-17.6-7.383-17.6-17.6 0-10.217 8.283-19.4 17.6-19.4z"/>
    <path fill-rule="evenodd" d="M41.1 64.1c-10.974 0-20.6-8.726-20.6-20.6s9.626-22.4 20.6-22.4c12.774 0 22.4 10.526 22.4 22.4 0 11.874-9.626 20.6-22.4 20.6zm0-40c-9.317 0-17.6 9.183-17.6 19.4 0 10.217 8.283 17.6 17.6 17.6 11.117 0 19.4-7.383 19.4-17.6 0-10.217-8.283-19.4-19.4-19.4zM58.5 24.1l5-5 2 2-5 5-2-2zm-40 40 5-5 2 2-5 5-2-2zm0-43 2-2 5 5-2 2-5-5zm47 43-2 2-5-5 2-2 5 5zM66.5 44.1v-3h7v3h-7zm-26-33h3v7h-3v-7zm-30 30h7v3h-7v-3z"/>
    <path fill-rule="evenodd" stroke-width="3" stroke="#1D511B" fill="#4BA634" d="m6.5 66.1 16-16 8 8 19-19 27 27h-70z"/>
</svg>
