<svg xmlns="http://www.w3.org/2000/svg" width="81" height="81">
    <path fill-rule="evenodd" fill="#FFF" d="M49.5 19.1c10.769 0 18.6 9.63 18.6 20.4 0 10.77-7.831 18.6-18.6 18.6-10.77 0-20.4-7.83-20.4-18.6 0-10.77 9.63-20.4 20.4-20.4z"/>
    <path fill-rule="evenodd" fill="#F39800" d="M51.5 22.1c10.217 0 17.6 9.183 17.6 19.4 0 10.217-7.383 17.6-17.6 17.6-10.217 0-19.4-7.383-19.4-17.6 0-10.217 9.183-19.4 19.4-19.4z"/>
    <path fill-rule="evenodd" d="M49.5 60.1c-11.874 0-22.4-8.726-22.4-20.6s10.526-22.4 22.4-22.4c11.874 0 20.6 10.526 20.6 22.4 0 11.874-8.726 20.6-20.6 20.6zm0-40c-10.217 0-19.4 9.183-19.4 19.4 0 10.217 9.183 17.6 19.4 17.6 10.217 0 17.6-7.383 17.6-17.6 0-10.217-7.383-19.4-17.6-19.4zM65.1 20.1l5-5 2 2-5 5-2-2zm-40 40 5-5 2 2-5 5-2-2zm0-43 2-2 5 5-2 2-5-5zm47 43-2 2-5-5 2-2 5 5zM73.1 40.1v-3h7v3h-7zm-26 23h3v7h-3v-7zm0-56h3v7h-3v-7zm-30 30h7v3h-7v-3z"/>
    <path fill-rule="evenodd" d="M13.1 42.1c8.632 0 14 7.168 14 14 0 8.632-5.368 14-14 14-6.832 0-13.1-5.368-13.1-14 0-6.832 6.268-14 13.1-14zM48.1 46.1c7.527 0 12 6.273 12 12 0 7.527-4.473 12-12 12-5.727 0-12-4.473-12-12 0-5.727 6.273-12 12-12z"/>
    <path fill-rule="evenodd" d="M13.1 54.1h34v16h-34v-16z"/>
    <path fill-rule="evenodd" d="M30.1 30.1c11.946 0 20 9.854 20 20 0 11.946-8.054 20-20 20-10.146 0-20-8.054-20-20 0-10.146 9.854-20 20-20z"/>
    <path fill-rule="evenodd" fill="#FFF" d="M48.1 67.1h-35c-5.175 0-11-4.025-11-11 0-5.175 5.825-11 11-11 1.15 0 1.395.921 1.64.937C16.864 39.07 23.338 33.1 30.1 33.1c9.973 0 17.365 8.014 17.853 16.966.344-.04.692-.966.147-.966 5.871 0 9 4.929 9 9 0 5.871-3.129 9-9 9z"/>
    <path fill-rule="evenodd" fill="#C4C9D8" d="M50.1 69.1h-35c-5.175 0-11-4.025-11-11 0-5.175 5.825-11 11-11 1.15 0 1.395.921 1.64.937C18.864 41.07 25.338 35.1 32.1 35.1c9.973 0 17.365 8.014 17.853 16.966.344-.04.692-.966.147-.966 5.87 0 9 4.929 9 9 0 5.871-3.13 9-9 9z"/>
</svg>
