<svg xmlns="http://www.w3.org/2000/svg" width="81" height="81">
    <path fill-rule="evenodd" d="M70.1 40.1c0 7.527-4.473 12-12 12 .562 0 .23.877-1 .849V52.1h-34c-6.832 0-14-5.368-14-14 0-6.374 6.448-12.348 13.542-13.031C25.714 17.97 32.774 12.1 40.1 12.1c10.618 0 18.71 7.833 20.517 17.021 5.861.792 9.483 5.801 9.483 10.979z"/>
    <path fill-rule="evenodd" fill="#FFF" d="M58.1 49.1h-35c-5.175 0-11-4.025-11-11 0-5.175 5.825-11 11-11 1.15 0 1.395.921 1.64.937C26.864 21.07 33.338 15.1 40.1 15.1c9.973 0 17.365 8.014 17.853 16.966.344-.04.692-.066.147-.066 5.871 0 9 4.029 9 8.1 0 5.871-3.129 9-9 9z"/>
    <path fill-rule="evenodd" fill="#C4C9D8" d="M60.1 51.1h-35c-5.175 0-11-4.025-11-11 0-5.175 5.825-11 11-11 1.15 0 1.395.921 1.64.937C28.864 23.07 35.338 17.1 42.1 17.1c10.289 0 15 7.511 15 16 0 1.078.884 1.253.88 1.43.945-.337 1.959-1.43 2.12-1.43 5.871 0 9 4.929 9 9 0 5.871-3.129 9-9 9z"/>
    <path fill-rule="evenodd" fill="#3586C2" d="M51.1 68.1h-3l6-11h3l-6 11zm-13 0 6-11h3l-6 11h-3zm-10 0 6-11h3l-6 11h-3zm-10 0 6-11h3l-6 11h-3z"/>
</svg>
