<svg xmlns="http://www.w3.org/2000/svg" width="81" height="81">
    <path fill-rule="evenodd" d="M23.1 24.1c8.632 0 14 7.168 14 14 0 8.632-5.368 14-14 14-6.832 0-14-5.368-14-14 0-6.832 7.168-14 14-14zM58.1 28.1c7.527 0 12 6.273 12 12 0 7.527-4.473 12-12 12-5.727 0-12-4.473-12-12 0-5.727 6.273-12 12-12z"/>
    <path fill-rule="evenodd" d="M23.1 36.1h34v16h-34v-16z"/>
    <path fill-rule="evenodd" d="M40.1 12.1c11.946 0 20 9.854 20 20 0 11.946-8.054 20-20 20-10.146 0-20-8.054-20-20 0-10.146 9.854-20 20-20z"/>
    <path fill-rule="evenodd" fill="#FFF" d="M58.1 49.1h-35c-5.175 0-11-4.025-11-11 0-5.175 5.825-11 11-11 1.15 0 1.395.921 1.64.937C26.864 21.07 33.338 15.1 40.1 15.1c9.973 0 17.365 8.014 17.853 16.966.344-.04.692-.066.147-.066 5.871 0 9 4.029 9 8.1 0 5.871-3.129 9-9 9z"/>
    <path fill-rule="evenodd" fill="#C4C9D8" d="M60.1 51.1h-35c-5.175 0-11-4.025-11-11 0-5.175 5.825-11 11-11 1.15 0 1.395.921 1.64.937C28.864 23.07 35.338 17.1 42.1 17.1c10.289 0 15 7.511 15 16 0 1.078.884 1.253.88 1.43.945-.337 1.959-1.43 2.12-1.43 5.87 0 9 4.929 9 9 0 5.871-3.13 9-9 9z"/>
    <path fill-rule="evenodd" fill="#3586C2" d="M19.1 55.1c3.109 0 4 2.691 4 4 0 3.109-.891 4-4 4-1.309 0-4-.891-4-4 0-1.309 2.691-4 4-4zM32.1 64.1c3.109 0 4 2.691 4 4 0 3.109-.891 4-4 4-1.309 0-4-.891-4-4 0-1.309 2.691-4 4-4zM43.1 55.1c3.109 0 4 2.691 4 4 0 3.109-.891 4-4 4-1.309 0-4-.891-4-4 0-1.309 2.691-4 4-4zM58.1 60.1c3.109 0 4 2.691 4 4 0 3.109-.891 4-4 4-1.309 0-4-.891-4-4 0-1.309 2.691-4 4-4z"/>
    <path fill-rule="evenodd" fill="#FFF" d="M19.1 57.1c2.005 0 2 1.795 2 2 0 2.005.005 2-2 2-.205 0-2 .005-2-2 0-.205 1.795-2 2-2zM43.1 57.1c2.004 0 2 1.795 2 2 0 2.005.004 2-2 2-.205 0-2 .005-2-2 0-.205 1.795-2 2-2zM58.1 62.1c2.004 0 2 1.795 2 2 0 2.005.004 2-2 2-.205 0-2 .005-2-2 0-.205 1.795-2 2-2zM32.1 66.1c2.005 0 2 1.795 2 2 0 2.005.005 2-2 2-.205 0-2 .005-2-2 0-.205 1.795-2 2-2z"/>
</svg>
