<svg xmlns="http://www.w3.org/2000/svg" width="81" height="81">
    <path fill-rule="evenodd" stroke-width="3" stroke="#000" fill="#FFDB00" d="M24.1 31.7c0 8.45 7.75 14.4 16.2 14.4 5.88 0 10.979-2.422 13.54-7.287C52.7 47.936 44.932 54.1 35.5 54.1c-10.217 0-19.4-7.383-19.4-17.6 0-9.432 7.964-17.2 17.087-18.34-4.865 2.561-9.087 7.659-9.087 13.54z"/>
    <path fill-rule="evenodd" d="M27.1 42.1c8.632 0 14 7.168 14 14 0 8.632-5.368 14-14 14-6.832 0-14-5.368-14-14 0-6.832 7.168-14 14-14zM62.1 46.1c7.527 0 12 6.273 12 12 0 7.527-4.473 12-12 12-5.727 0-12-4.473-12-12 0-5.727 6.273-12 12-12z"/>
    <path fill-rule="evenodd" d="M27.1 54.1h34v16h-34v-16z"/>
    <path fill-rule="evenodd" d="M44.1 30.1c11.946 0 20.9 9.854 20.9 20 0 11.946-8.954 20-20.9 20-10.146 0-20-8.054-20-20 0-10.146 9.854-20 20-20z"/>
    <path fill-rule="evenodd" fill="#FFF" d="M62.1 67.1h-35c-5.175 0-11-4.025-11-11 0-5.175 5.825-11 11-11 1.15 0 1.395.921 1.64.937C30.864 39.07 37.338 33.1 44.1 33.1c9.973 0 17.365 8.014 17.853 16.966.344-.04.692-.966.147-.966 5.871 0 9 4.929 9 9 0 5.871-3.129 9-9 9z"/>
    <path fill-rule="evenodd" fill="#C4C9D8" d="M65 69.1H29.1c-5.175 0-11-4.025-11-11 0-5.175 5.825-11 11-11 1.15 0 1.395.921 1.64.937C32.864 41.07 39.338 35.1 46.1 35.1c10.289 0 15 7.511 15 16 0 1.078.884 1.253.88 1.43.945-.337 1.959-1.43 3.02-1.43 4.971 0 8.1 4.929 8.1 9 0 5.871-3.129 9-8.1 9z"/>
</svg>
