<svg xmlns="http://www.w3.org/2000/svg" width="81" height="81">
    <path fill-rule="evenodd" fill="#FFF" d="M40.5 20.1c10.77 0 18.6 9.63 18.6 20.4 0 10.77-7.83 18.6-18.6 18.6-10.77 0-20.4-7.83-20.4-18.6 0-10.77 9.63-20.4 20.4-20.4z"/>
    <path fill-rule="evenodd" fill="#F39800" d="M42.5 23.1c10.217 0 17.6 9.183 17.6 19.4 0 10.217-7.383 17.6-17.6 17.6-10.217 0-19.4-7.383-19.4-17.6 0-10.217 9.183-19.4 19.4-19.4z"/>
    <path fill-rule="evenodd" d="M40.5 61.1c-11.874 0-22.4-8.726-22.4-20.6s10.526-22.4 22.4-22.4c11.874 0 20.6 10.526 20.6 22.4 0 11.874-8.726 20.6-20.6 20.6zm0-40c-10.217 0-19.4 9.183-19.4 19.4 0 10.217 9.183 17.6 19.4 17.6 10.217 0 17.6-7.383 17.6-17.6 0-10.217-7.383-19.4-17.6-19.4zM56.1 21.1l5-5 2 2-5 5-2-2zm-40 40 5-5 2 2-5 5-2-2zm0-43 2-2 5 5-2 2-5-5zm47 43-2 2-5-5 2-2 5 5zM64.1 41.1v-3h7v3h-7zm-26 23h3v7h-3v-7zm0-56h3v7h-3v-7zm-30 30h7v3h-7v-3z"/>
</svg>
